%FSLAX45Y45*%
G04 Gerber Fmt 4.5, Leading zero omitted, Abs format (unit mm)*
G04 Created by KiCad (PCBNEW 6.0.6+dfsg-1) date 2022-07-24 22:16:44*
%MOMM*%
%LPD*%
G01*
G04 APERTURE LIST*
%TA.AperFunction,Profile*%
%ADD10C,0.100000*%
%TD*%
%ADD11C,0.200000*%
%ADD12C,0.040000*%
%ADD13C,0.060000*%
%ADD14C,0.080000*%
%ADD15C,0.090000*%
%ADD16C,0.100000*%
%ADD17C,0.110000*%
%ADD18C,0.320000*%
%ADD19C,0.350000*%
G04 APERTURE END LIST*
D10*
X16070000Y-9370000D02*
G75*
G03*
X16420000Y-9020000I0J350000D01*
G01*
X16420000Y-9020000D02*
X16420000Y-5620000D01*
X16070000Y-5270000D02*
X13600000Y-5270000D01*
X13590000Y-9370000D02*
X16070000Y-9370000D01*
X13240000Y-9020000D02*
G75*
G03*
X13590000Y-9370000I350000J0D01*
G01*
X13240000Y-5630000D02*
X13240000Y-9020000D01*
X13600000Y-5270000D02*
G75*
G03*
X13240000Y-5630000I0J-360000D01*
G01*
X16420000Y-5620000D02*
G75*
G03*
X16070000Y-5270000I-350000J0D01*
G01*
D11*
D12*
X15611160Y-8356920D02*
X15651160Y-8396920D01*
X15651160Y-8356920D02*
X15611160Y-8396920D01*
X15621320Y-8199440D02*
X15661320Y-8239440D01*
X15661320Y-8199440D02*
X15621320Y-8239440D01*
D13*
X16010540Y-7061200D02*
G75*
G03*
X16010540Y-7061200I-30000J0D01*
G01*
X16160540Y-7061200D02*
G75*
G03*
X16160540Y-7061200I-30000J0D01*
G01*
D14*
X15160720Y-6746880D02*
X15160720Y-6826880D01*
X15120720Y-6786880D02*
X15200720Y-6786880D01*
X15410720Y-6746880D02*
X15410720Y-6826880D01*
X15370720Y-6786880D02*
X15450720Y-6786880D01*
X15534640Y-5398140D02*
X15534640Y-5478140D01*
X15494640Y-5438140D02*
X15574640Y-5438140D01*
X15534640Y-6414140D02*
X15534640Y-6494140D01*
X15494640Y-6454140D02*
X15574640Y-6454140D01*
D15*
X16059220Y-6219260D02*
X16059220Y-6155620D01*
X15995580Y-6155620D01*
X15995580Y-6219260D01*
X16059220Y-6219260D01*
X16059220Y-6473260D02*
X16059220Y-6409620D01*
X15995580Y-6409620D01*
X15995580Y-6473260D01*
X16059220Y-6473260D01*
D16*
X13550900Y-6339040D02*
X13600900Y-6289040D01*
X13550900Y-6239040D01*
X13500900Y-6289040D01*
X13550900Y-6339040D01*
X13550900Y-6593040D02*
X13600900Y-6543040D01*
X13550900Y-6493040D01*
X13500900Y-6543040D01*
X13550900Y-6593040D01*
X13550900Y-6847040D02*
X13600900Y-6797040D01*
X13550900Y-6747040D01*
X13500900Y-6797040D01*
X13550900Y-6847040D01*
X14030860Y-6410160D02*
X14080860Y-6360160D01*
X14030860Y-6310160D01*
X13980860Y-6360160D01*
X14030860Y-6410160D01*
D11*
X13980860Y-6260160D02*
X13980860Y-6460160D01*
X14080860Y-6260160D02*
X14080860Y-6460160D01*
X13980860Y-6460160D02*
G75*
G03*
X14080860Y-6460160I50000J0D01*
G01*
X14080860Y-6260160D02*
G75*
G03*
X13980860Y-6260160I-50000J0D01*
G01*
D16*
X14224440Y-8932840D02*
X14274440Y-8882840D01*
X14224440Y-8832840D01*
X14174440Y-8882840D01*
X14224440Y-8932840D01*
X14224440Y-9186840D02*
X14274440Y-9136840D01*
X14224440Y-9086840D01*
X14174440Y-9136840D01*
X14224440Y-9186840D01*
X14500860Y-6110160D02*
X14550860Y-6060160D01*
X14500860Y-6010160D01*
X14450860Y-6060160D01*
X14500860Y-6110160D01*
D11*
X14600860Y-6010160D02*
X14400860Y-6010160D01*
X14600860Y-6110160D02*
X14400860Y-6110160D01*
X14400860Y-6010160D02*
G75*
G03*
X14400860Y-6110160I0J-50000D01*
G01*
X14600860Y-6110160D02*
G75*
G03*
X14600860Y-6010160I0J50000D01*
G01*
D16*
X14500860Y-6710160D02*
X14550860Y-6660160D01*
X14500860Y-6610160D01*
X14450860Y-6660160D01*
X14500860Y-6710160D01*
D11*
X14600860Y-6610160D02*
X14400860Y-6610160D01*
X14600860Y-6710160D02*
X14400860Y-6710160D01*
X14400860Y-6610160D02*
G75*
G03*
X14400860Y-6710160I0J-50000D01*
G01*
X14600860Y-6710160D02*
G75*
G03*
X14600860Y-6610160I0J50000D01*
G01*
D16*
X14724440Y-8930340D02*
X14774440Y-8880340D01*
X14724440Y-8830340D01*
X14674440Y-8880340D01*
X14724440Y-8930340D01*
X14724440Y-9184340D02*
X14774440Y-9134340D01*
X14724440Y-9084340D01*
X14674440Y-9134340D01*
X14724440Y-9184340D01*
X15204440Y-8930340D02*
X15254440Y-8880340D01*
X15204440Y-8830340D01*
X15154440Y-8880340D01*
X15204440Y-8930340D01*
X15204440Y-9184340D02*
X15254440Y-9134340D01*
X15204440Y-9084340D01*
X15154440Y-9134340D01*
X15204440Y-9184340D01*
D17*
X15118960Y-5423780D02*
X15228960Y-5533780D01*
X15228960Y-5423780D02*
X15118960Y-5533780D01*
X15228960Y-5478780D02*
G75*
G03*
X15228960Y-5478780I-55000J0D01*
G01*
X15118960Y-6439780D02*
X15228960Y-6549780D01*
X15228960Y-6439780D02*
X15118960Y-6549780D01*
X15228960Y-6494780D02*
G75*
G03*
X15228960Y-6494780I-55000J0D01*
G01*
X15241000Y-7491000D02*
X15351000Y-7601000D01*
X15351000Y-7491000D02*
X15241000Y-7601000D01*
X15351000Y-7546000D02*
G75*
G03*
X15351000Y-7546000I-55000J0D01*
G01*
X15241000Y-7745000D02*
X15351000Y-7855000D01*
X15351000Y-7745000D02*
X15241000Y-7855000D01*
X15351000Y-7800000D02*
G75*
G03*
X15351000Y-7800000I-55000J0D01*
G01*
X15241000Y-7999000D02*
X15351000Y-8109000D01*
X15351000Y-7999000D02*
X15241000Y-8109000D01*
X15351000Y-8054000D02*
G75*
G03*
X15351000Y-8054000I-55000J0D01*
G01*
D18*
X13431540Y-8857000D02*
X13751540Y-9177000D01*
X13751540Y-8857000D02*
X13431540Y-9177000D01*
X13591540Y-8857000D02*
X13591540Y-9177000D01*
X13431540Y-9017000D02*
X13751540Y-9017000D01*
X13440000Y-5470000D02*
X13760000Y-5790000D01*
X13760000Y-5470000D02*
X13440000Y-5790000D01*
X13600000Y-5470000D02*
X13600000Y-5790000D01*
X13440000Y-5630000D02*
X13760000Y-5630000D01*
X15900000Y-5470000D02*
X16220000Y-5790000D01*
X16220000Y-5470000D02*
X15900000Y-5790000D01*
X16060000Y-5470000D02*
X16060000Y-5790000D01*
X15900000Y-5630000D02*
X16220000Y-5630000D01*
X15900000Y-8850000D02*
X16220000Y-9170000D01*
X16220000Y-8850000D02*
X15900000Y-9170000D01*
X16060000Y-8850000D02*
X16060000Y-9170000D01*
X15900000Y-9010000D02*
X16220000Y-9010000D01*
D19*
X13455000Y-7625000D02*
X13805000Y-7975000D01*
X13805000Y-7625000D02*
X13455000Y-7975000D01*
X13753745Y-7923745D02*
X13753745Y-7676255D01*
X13506255Y-7676255D01*
X13506255Y-7923745D01*
X13753745Y-7923745D01*
D11*
X13492619Y-9685476D02*
X13492619Y-9485476D01*
X13540238Y-9485476D01*
X13568809Y-9495000D01*
X13587857Y-9514048D01*
X13597381Y-9533095D01*
X13606905Y-9571190D01*
X13606905Y-9599762D01*
X13597381Y-9637857D01*
X13587857Y-9656905D01*
X13568809Y-9675952D01*
X13540238Y-9685476D01*
X13492619Y-9685476D01*
X13692619Y-9685476D02*
X13692619Y-9552143D01*
X13692619Y-9590238D02*
X13702143Y-9571190D01*
X13711667Y-9561667D01*
X13730714Y-9552143D01*
X13749762Y-9552143D01*
X13816428Y-9685476D02*
X13816428Y-9552143D01*
X13816428Y-9485476D02*
X13806905Y-9495000D01*
X13816428Y-9504524D01*
X13825952Y-9495000D01*
X13816428Y-9485476D01*
X13816428Y-9504524D01*
X13940238Y-9685476D02*
X13921190Y-9675952D01*
X13911667Y-9656905D01*
X13911667Y-9485476D01*
X14045000Y-9685476D02*
X14025952Y-9675952D01*
X14016428Y-9656905D01*
X14016428Y-9485476D01*
X14273571Y-9685476D02*
X14273571Y-9485476D01*
X14340238Y-9628333D01*
X14406905Y-9485476D01*
X14406905Y-9685476D01*
X14587857Y-9685476D02*
X14587857Y-9580714D01*
X14578333Y-9561667D01*
X14559286Y-9552143D01*
X14521190Y-9552143D01*
X14502143Y-9561667D01*
X14587857Y-9675952D02*
X14568809Y-9685476D01*
X14521190Y-9685476D01*
X14502143Y-9675952D01*
X14492619Y-9656905D01*
X14492619Y-9637857D01*
X14502143Y-9618810D01*
X14521190Y-9609286D01*
X14568809Y-9609286D01*
X14587857Y-9599762D01*
X14683095Y-9552143D02*
X14683095Y-9752143D01*
X14683095Y-9561667D02*
X14702143Y-9552143D01*
X14740238Y-9552143D01*
X14759286Y-9561667D01*
X14768809Y-9571190D01*
X14778333Y-9590238D01*
X14778333Y-9647381D01*
X14768809Y-9666429D01*
X14759286Y-9675952D01*
X14740238Y-9685476D01*
X14702143Y-9685476D01*
X14683095Y-9675952D01*
X14864048Y-9666429D02*
X14873571Y-9675952D01*
X14864048Y-9685476D01*
X14854524Y-9675952D01*
X14864048Y-9666429D01*
X14864048Y-9685476D01*
X14864048Y-9561667D02*
X14873571Y-9571190D01*
X14864048Y-9580714D01*
X14854524Y-9571190D01*
X14864048Y-9561667D01*
X14864048Y-9580714D01*
D12*
X13195000Y-9995000D02*
X13235000Y-10035000D01*
X13235000Y-9995000D02*
X13195000Y-10035000D01*
D11*
X13530714Y-9905476D02*
X13549762Y-9905476D01*
X13568809Y-9915000D01*
X13578333Y-9924524D01*
X13587857Y-9943571D01*
X13597381Y-9981667D01*
X13597381Y-10029286D01*
X13587857Y-10067381D01*
X13578333Y-10086429D01*
X13568809Y-10095952D01*
X13549762Y-10105476D01*
X13530714Y-10105476D01*
X13511667Y-10095952D01*
X13502143Y-10086429D01*
X13492619Y-10067381D01*
X13483095Y-10029286D01*
X13483095Y-9981667D01*
X13492619Y-9943571D01*
X13502143Y-9924524D01*
X13511667Y-9915000D01*
X13530714Y-9905476D01*
X13683095Y-10086429D02*
X13692619Y-10095952D01*
X13683095Y-10105476D01*
X13673571Y-10095952D01*
X13683095Y-10086429D01*
X13683095Y-10105476D01*
X13864048Y-9972143D02*
X13864048Y-10105476D01*
X13816428Y-9895952D02*
X13768809Y-10038810D01*
X13892619Y-10038810D01*
X14006905Y-9905476D02*
X14025952Y-9905476D01*
X14045000Y-9915000D01*
X14054524Y-9924524D01*
X14064048Y-9943571D01*
X14073571Y-9981667D01*
X14073571Y-10029286D01*
X14064048Y-10067381D01*
X14054524Y-10086429D01*
X14045000Y-10095952D01*
X14025952Y-10105476D01*
X14006905Y-10105476D01*
X13987857Y-10095952D01*
X13978333Y-10086429D01*
X13968809Y-10067381D01*
X13959286Y-10029286D01*
X13959286Y-9981667D01*
X13968809Y-9943571D01*
X13978333Y-9924524D01*
X13987857Y-9915000D01*
X14006905Y-9905476D01*
X14197381Y-9905476D02*
X14216428Y-9905476D01*
X14235476Y-9915000D01*
X14245000Y-9924524D01*
X14254524Y-9943571D01*
X14264048Y-9981667D01*
X14264048Y-10029286D01*
X14254524Y-10067381D01*
X14245000Y-10086429D01*
X14235476Y-10095952D01*
X14216428Y-10105476D01*
X14197381Y-10105476D01*
X14178333Y-10095952D01*
X14168809Y-10086429D01*
X14159286Y-10067381D01*
X14149762Y-10029286D01*
X14149762Y-9981667D01*
X14159286Y-9943571D01*
X14168809Y-9924524D01*
X14178333Y-9915000D01*
X14197381Y-9905476D01*
X14349762Y-10105476D02*
X14349762Y-9972143D01*
X14349762Y-9991190D02*
X14359286Y-9981667D01*
X14378333Y-9972143D01*
X14406905Y-9972143D01*
X14425952Y-9981667D01*
X14435476Y-10000714D01*
X14435476Y-10105476D01*
X14435476Y-10000714D02*
X14445000Y-9981667D01*
X14464048Y-9972143D01*
X14492619Y-9972143D01*
X14511667Y-9981667D01*
X14521190Y-10000714D01*
X14521190Y-10105476D01*
X14616428Y-10105476D02*
X14616428Y-9972143D01*
X14616428Y-9991190D02*
X14625952Y-9981667D01*
X14645000Y-9972143D01*
X14673571Y-9972143D01*
X14692619Y-9981667D01*
X14702143Y-10000714D01*
X14702143Y-10105476D01*
X14702143Y-10000714D02*
X14711667Y-9981667D01*
X14730714Y-9972143D01*
X14759286Y-9972143D01*
X14778333Y-9981667D01*
X14787857Y-10000714D01*
X14787857Y-10105476D01*
X15178333Y-9895952D02*
X15006905Y-10153095D01*
X15435476Y-9905476D02*
X15454524Y-9905476D01*
X15473571Y-9915000D01*
X15483095Y-9924524D01*
X15492619Y-9943571D01*
X15502143Y-9981667D01*
X15502143Y-10029286D01*
X15492619Y-10067381D01*
X15483095Y-10086429D01*
X15473571Y-10095952D01*
X15454524Y-10105476D01*
X15435476Y-10105476D01*
X15416428Y-10095952D01*
X15406905Y-10086429D01*
X15397381Y-10067381D01*
X15387857Y-10029286D01*
X15387857Y-9981667D01*
X15397381Y-9943571D01*
X15406905Y-9924524D01*
X15416428Y-9915000D01*
X15435476Y-9905476D01*
X15587857Y-10086429D02*
X15597381Y-10095952D01*
X15587857Y-10105476D01*
X15578333Y-10095952D01*
X15587857Y-10086429D01*
X15587857Y-10105476D01*
X15721190Y-9905476D02*
X15740238Y-9905476D01*
X15759286Y-9915000D01*
X15768809Y-9924524D01*
X15778333Y-9943571D01*
X15787857Y-9981667D01*
X15787857Y-10029286D01*
X15778333Y-10067381D01*
X15768809Y-10086429D01*
X15759286Y-10095952D01*
X15740238Y-10105476D01*
X15721190Y-10105476D01*
X15702143Y-10095952D01*
X15692619Y-10086429D01*
X15683095Y-10067381D01*
X15673571Y-10029286D01*
X15673571Y-9981667D01*
X15683095Y-9943571D01*
X15692619Y-9924524D01*
X15702143Y-9915000D01*
X15721190Y-9905476D01*
X15978333Y-10105476D02*
X15864048Y-10105476D01*
X15921190Y-10105476D02*
X15921190Y-9905476D01*
X15902143Y-9934048D01*
X15883095Y-9953095D01*
X15864048Y-9962619D01*
X16159286Y-9905476D02*
X16064048Y-9905476D01*
X16054524Y-10000714D01*
X16064048Y-9991190D01*
X16083095Y-9981667D01*
X16130714Y-9981667D01*
X16149762Y-9991190D01*
X16159286Y-10000714D01*
X16168809Y-10019762D01*
X16168809Y-10067381D01*
X16159286Y-10086429D01*
X16149762Y-10095952D01*
X16130714Y-10105476D01*
X16083095Y-10105476D01*
X16064048Y-10095952D01*
X16054524Y-10086429D01*
X16235476Y-9905476D02*
X16368809Y-9905476D01*
X16283095Y-10105476D01*
X16435476Y-9905476D02*
X16435476Y-9943571D01*
X16511667Y-9905476D02*
X16511667Y-9943571D01*
X16806905Y-10181667D02*
X16797381Y-10172143D01*
X16778333Y-10143571D01*
X16768809Y-10124524D01*
X16759286Y-10095952D01*
X16749762Y-10048333D01*
X16749762Y-10010238D01*
X16759286Y-9962619D01*
X16768809Y-9934048D01*
X16778333Y-9915000D01*
X16797381Y-9886429D01*
X16806905Y-9876905D01*
X16873571Y-9924524D02*
X16883095Y-9915000D01*
X16902143Y-9905476D01*
X16949762Y-9905476D01*
X16968810Y-9915000D01*
X16978333Y-9924524D01*
X16987857Y-9943571D01*
X16987857Y-9962619D01*
X16978333Y-9991190D01*
X16864048Y-10105476D01*
X16987857Y-10105476D01*
X17225952Y-10105476D02*
X17225952Y-9905476D01*
X17311667Y-10105476D02*
X17311667Y-10000714D01*
X17302143Y-9981667D01*
X17283095Y-9972143D01*
X17254524Y-9972143D01*
X17235476Y-9981667D01*
X17225952Y-9991190D01*
X17435476Y-10105476D02*
X17416429Y-10095952D01*
X17406905Y-10086429D01*
X17397381Y-10067381D01*
X17397381Y-10010238D01*
X17406905Y-9991190D01*
X17416429Y-9981667D01*
X17435476Y-9972143D01*
X17464048Y-9972143D01*
X17483095Y-9981667D01*
X17492619Y-9991190D01*
X17502143Y-10010238D01*
X17502143Y-10067381D01*
X17492619Y-10086429D01*
X17483095Y-10095952D01*
X17464048Y-10105476D01*
X17435476Y-10105476D01*
X17616429Y-10105476D02*
X17597381Y-10095952D01*
X17587857Y-10076905D01*
X17587857Y-9905476D01*
X17768810Y-10095952D02*
X17749762Y-10105476D01*
X17711667Y-10105476D01*
X17692619Y-10095952D01*
X17683095Y-10076905D01*
X17683095Y-10000714D01*
X17692619Y-9981667D01*
X17711667Y-9972143D01*
X17749762Y-9972143D01*
X17768810Y-9981667D01*
X17778333Y-10000714D01*
X17778333Y-10019762D01*
X17683095Y-10038810D01*
X17854524Y-10095952D02*
X17873571Y-10105476D01*
X17911667Y-10105476D01*
X17930714Y-10095952D01*
X17940238Y-10076905D01*
X17940238Y-10067381D01*
X17930714Y-10048333D01*
X17911667Y-10038810D01*
X17883095Y-10038810D01*
X17864048Y-10029286D01*
X17854524Y-10010238D01*
X17854524Y-10000714D01*
X17864048Y-9981667D01*
X17883095Y-9972143D01*
X17911667Y-9972143D01*
X17930714Y-9981667D01*
X18006905Y-10181667D02*
X18016429Y-10172143D01*
X18035476Y-10143571D01*
X18045000Y-10124524D01*
X18054524Y-10095952D01*
X18064048Y-10048333D01*
X18064048Y-10010238D01*
X18054524Y-9962619D01*
X18045000Y-9934048D01*
X18035476Y-9915000D01*
X18016429Y-9886429D01*
X18006905Y-9876905D01*
D13*
X13235000Y-10279000D02*
G75*
G03*
X13235000Y-10279000I-30000J0D01*
G01*
D11*
X13530714Y-10169476D02*
X13549762Y-10169476D01*
X13568809Y-10179000D01*
X13578333Y-10188524D01*
X13587857Y-10207571D01*
X13597381Y-10245667D01*
X13597381Y-10293286D01*
X13587857Y-10331381D01*
X13578333Y-10350429D01*
X13568809Y-10359952D01*
X13549762Y-10369476D01*
X13530714Y-10369476D01*
X13511667Y-10359952D01*
X13502143Y-10350429D01*
X13492619Y-10331381D01*
X13483095Y-10293286D01*
X13483095Y-10245667D01*
X13492619Y-10207571D01*
X13502143Y-10188524D01*
X13511667Y-10179000D01*
X13530714Y-10169476D01*
X13683095Y-10350429D02*
X13692619Y-10359952D01*
X13683095Y-10369476D01*
X13673571Y-10359952D01*
X13683095Y-10350429D01*
X13683095Y-10369476D01*
X13864048Y-10169476D02*
X13825952Y-10169476D01*
X13806905Y-10179000D01*
X13797381Y-10188524D01*
X13778333Y-10217095D01*
X13768809Y-10255190D01*
X13768809Y-10331381D01*
X13778333Y-10350429D01*
X13787857Y-10359952D01*
X13806905Y-10369476D01*
X13845000Y-10369476D01*
X13864048Y-10359952D01*
X13873571Y-10350429D01*
X13883095Y-10331381D01*
X13883095Y-10283762D01*
X13873571Y-10264714D01*
X13864048Y-10255190D01*
X13845000Y-10245667D01*
X13806905Y-10245667D01*
X13787857Y-10255190D01*
X13778333Y-10264714D01*
X13768809Y-10283762D01*
X14006905Y-10169476D02*
X14025952Y-10169476D01*
X14045000Y-10179000D01*
X14054524Y-10188524D01*
X14064048Y-10207571D01*
X14073571Y-10245667D01*
X14073571Y-10293286D01*
X14064048Y-10331381D01*
X14054524Y-10350429D01*
X14045000Y-10359952D01*
X14025952Y-10369476D01*
X14006905Y-10369476D01*
X13987857Y-10359952D01*
X13978333Y-10350429D01*
X13968809Y-10331381D01*
X13959286Y-10293286D01*
X13959286Y-10245667D01*
X13968809Y-10207571D01*
X13978333Y-10188524D01*
X13987857Y-10179000D01*
X14006905Y-10169476D01*
X14197381Y-10169476D02*
X14216428Y-10169476D01*
X14235476Y-10179000D01*
X14245000Y-10188524D01*
X14254524Y-10207571D01*
X14264048Y-10245667D01*
X14264048Y-10293286D01*
X14254524Y-10331381D01*
X14245000Y-10350429D01*
X14235476Y-10359952D01*
X14216428Y-10369476D01*
X14197381Y-10369476D01*
X14178333Y-10359952D01*
X14168809Y-10350429D01*
X14159286Y-10331381D01*
X14149762Y-10293286D01*
X14149762Y-10245667D01*
X14159286Y-10207571D01*
X14168809Y-10188524D01*
X14178333Y-10179000D01*
X14197381Y-10169476D01*
X14349762Y-10369476D02*
X14349762Y-10236143D01*
X14349762Y-10255190D02*
X14359286Y-10245667D01*
X14378333Y-10236143D01*
X14406905Y-10236143D01*
X14425952Y-10245667D01*
X14435476Y-10264714D01*
X14435476Y-10369476D01*
X14435476Y-10264714D02*
X14445000Y-10245667D01*
X14464048Y-10236143D01*
X14492619Y-10236143D01*
X14511667Y-10245667D01*
X14521190Y-10264714D01*
X14521190Y-10369476D01*
X14616428Y-10369476D02*
X14616428Y-10236143D01*
X14616428Y-10255190D02*
X14625952Y-10245667D01*
X14645000Y-10236143D01*
X14673571Y-10236143D01*
X14692619Y-10245667D01*
X14702143Y-10264714D01*
X14702143Y-10369476D01*
X14702143Y-10264714D02*
X14711667Y-10245667D01*
X14730714Y-10236143D01*
X14759286Y-10236143D01*
X14778333Y-10245667D01*
X14787857Y-10264714D01*
X14787857Y-10369476D01*
X15178333Y-10159952D02*
X15006905Y-10417095D01*
X15435476Y-10169476D02*
X15454524Y-10169476D01*
X15473571Y-10179000D01*
X15483095Y-10188524D01*
X15492619Y-10207571D01*
X15502143Y-10245667D01*
X15502143Y-10293286D01*
X15492619Y-10331381D01*
X15483095Y-10350429D01*
X15473571Y-10359952D01*
X15454524Y-10369476D01*
X15435476Y-10369476D01*
X15416428Y-10359952D01*
X15406905Y-10350429D01*
X15397381Y-10331381D01*
X15387857Y-10293286D01*
X15387857Y-10245667D01*
X15397381Y-10207571D01*
X15406905Y-10188524D01*
X15416428Y-10179000D01*
X15435476Y-10169476D01*
X15587857Y-10350429D02*
X15597381Y-10359952D01*
X15587857Y-10369476D01*
X15578333Y-10359952D01*
X15587857Y-10350429D01*
X15587857Y-10369476D01*
X15721190Y-10169476D02*
X15740238Y-10169476D01*
X15759286Y-10179000D01*
X15768809Y-10188524D01*
X15778333Y-10207571D01*
X15787857Y-10245667D01*
X15787857Y-10293286D01*
X15778333Y-10331381D01*
X15768809Y-10350429D01*
X15759286Y-10359952D01*
X15740238Y-10369476D01*
X15721190Y-10369476D01*
X15702143Y-10359952D01*
X15692619Y-10350429D01*
X15683095Y-10331381D01*
X15673571Y-10293286D01*
X15673571Y-10245667D01*
X15683095Y-10207571D01*
X15692619Y-10188524D01*
X15702143Y-10179000D01*
X15721190Y-10169476D01*
X15864048Y-10188524D02*
X15873571Y-10179000D01*
X15892619Y-10169476D01*
X15940238Y-10169476D01*
X15959286Y-10179000D01*
X15968809Y-10188524D01*
X15978333Y-10207571D01*
X15978333Y-10226619D01*
X15968809Y-10255190D01*
X15854524Y-10369476D01*
X15978333Y-10369476D01*
X16045000Y-10169476D02*
X16168809Y-10169476D01*
X16102143Y-10245667D01*
X16130714Y-10245667D01*
X16149762Y-10255190D01*
X16159286Y-10264714D01*
X16168809Y-10283762D01*
X16168809Y-10331381D01*
X16159286Y-10350429D01*
X16149762Y-10359952D01*
X16130714Y-10369476D01*
X16073571Y-10369476D01*
X16054524Y-10359952D01*
X16045000Y-10350429D01*
X16340238Y-10169476D02*
X16302143Y-10169476D01*
X16283095Y-10179000D01*
X16273571Y-10188524D01*
X16254524Y-10217095D01*
X16245000Y-10255190D01*
X16245000Y-10331381D01*
X16254524Y-10350429D01*
X16264048Y-10359952D01*
X16283095Y-10369476D01*
X16321190Y-10369476D01*
X16340238Y-10359952D01*
X16349762Y-10350429D01*
X16359286Y-10331381D01*
X16359286Y-10283762D01*
X16349762Y-10264714D01*
X16340238Y-10255190D01*
X16321190Y-10245667D01*
X16283095Y-10245667D01*
X16264048Y-10255190D01*
X16254524Y-10264714D01*
X16245000Y-10283762D01*
X16435476Y-10169476D02*
X16435476Y-10207571D01*
X16511667Y-10169476D02*
X16511667Y-10207571D01*
X16806905Y-10445667D02*
X16797381Y-10436143D01*
X16778333Y-10407571D01*
X16768809Y-10388524D01*
X16759286Y-10359952D01*
X16749762Y-10312333D01*
X16749762Y-10274238D01*
X16759286Y-10226619D01*
X16768809Y-10198048D01*
X16778333Y-10179000D01*
X16797381Y-10150429D01*
X16806905Y-10140905D01*
X16873571Y-10188524D02*
X16883095Y-10179000D01*
X16902143Y-10169476D01*
X16949762Y-10169476D01*
X16968810Y-10179000D01*
X16978333Y-10188524D01*
X16987857Y-10207571D01*
X16987857Y-10226619D01*
X16978333Y-10255190D01*
X16864048Y-10369476D01*
X16987857Y-10369476D01*
X17225952Y-10369476D02*
X17225952Y-10169476D01*
X17311667Y-10369476D02*
X17311667Y-10264714D01*
X17302143Y-10245667D01*
X17283095Y-10236143D01*
X17254524Y-10236143D01*
X17235476Y-10245667D01*
X17225952Y-10255190D01*
X17435476Y-10369476D02*
X17416429Y-10359952D01*
X17406905Y-10350429D01*
X17397381Y-10331381D01*
X17397381Y-10274238D01*
X17406905Y-10255190D01*
X17416429Y-10245667D01*
X17435476Y-10236143D01*
X17464048Y-10236143D01*
X17483095Y-10245667D01*
X17492619Y-10255190D01*
X17502143Y-10274238D01*
X17502143Y-10331381D01*
X17492619Y-10350429D01*
X17483095Y-10359952D01*
X17464048Y-10369476D01*
X17435476Y-10369476D01*
X17616429Y-10369476D02*
X17597381Y-10359952D01*
X17587857Y-10340905D01*
X17587857Y-10169476D01*
X17768810Y-10359952D02*
X17749762Y-10369476D01*
X17711667Y-10369476D01*
X17692619Y-10359952D01*
X17683095Y-10340905D01*
X17683095Y-10264714D01*
X17692619Y-10245667D01*
X17711667Y-10236143D01*
X17749762Y-10236143D01*
X17768810Y-10245667D01*
X17778333Y-10264714D01*
X17778333Y-10283762D01*
X17683095Y-10302810D01*
X17854524Y-10359952D02*
X17873571Y-10369476D01*
X17911667Y-10369476D01*
X17930714Y-10359952D01*
X17940238Y-10340905D01*
X17940238Y-10331381D01*
X17930714Y-10312333D01*
X17911667Y-10302810D01*
X17883095Y-10302810D01*
X17864048Y-10293286D01*
X17854524Y-10274238D01*
X17854524Y-10264714D01*
X17864048Y-10245667D01*
X17883095Y-10236143D01*
X17911667Y-10236143D01*
X17930714Y-10245667D01*
X18006905Y-10445667D02*
X18016429Y-10436143D01*
X18035476Y-10407571D01*
X18045000Y-10388524D01*
X18054524Y-10359952D01*
X18064048Y-10312333D01*
X18064048Y-10274238D01*
X18054524Y-10226619D01*
X18045000Y-10198048D01*
X18035476Y-10179000D01*
X18016429Y-10150429D01*
X18006905Y-10140905D01*
D14*
X13195000Y-10503000D02*
X13195000Y-10583000D01*
X13155000Y-10543000D02*
X13235000Y-10543000D01*
D11*
X13530714Y-10433476D02*
X13549762Y-10433476D01*
X13568809Y-10443000D01*
X13578333Y-10452524D01*
X13587857Y-10471571D01*
X13597381Y-10509667D01*
X13597381Y-10557286D01*
X13587857Y-10595381D01*
X13578333Y-10614429D01*
X13568809Y-10623952D01*
X13549762Y-10633476D01*
X13530714Y-10633476D01*
X13511667Y-10623952D01*
X13502143Y-10614429D01*
X13492619Y-10595381D01*
X13483095Y-10557286D01*
X13483095Y-10509667D01*
X13492619Y-10471571D01*
X13502143Y-10452524D01*
X13511667Y-10443000D01*
X13530714Y-10433476D01*
X13683095Y-10614429D02*
X13692619Y-10623952D01*
X13683095Y-10633476D01*
X13673571Y-10623952D01*
X13683095Y-10614429D01*
X13683095Y-10633476D01*
X13806905Y-10519190D02*
X13787857Y-10509667D01*
X13778333Y-10500143D01*
X13768809Y-10481095D01*
X13768809Y-10471571D01*
X13778333Y-10452524D01*
X13787857Y-10443000D01*
X13806905Y-10433476D01*
X13845000Y-10433476D01*
X13864048Y-10443000D01*
X13873571Y-10452524D01*
X13883095Y-10471571D01*
X13883095Y-10481095D01*
X13873571Y-10500143D01*
X13864048Y-10509667D01*
X13845000Y-10519190D01*
X13806905Y-10519190D01*
X13787857Y-10528714D01*
X13778333Y-10538238D01*
X13768809Y-10557286D01*
X13768809Y-10595381D01*
X13778333Y-10614429D01*
X13787857Y-10623952D01*
X13806905Y-10633476D01*
X13845000Y-10633476D01*
X13864048Y-10623952D01*
X13873571Y-10614429D01*
X13883095Y-10595381D01*
X13883095Y-10557286D01*
X13873571Y-10538238D01*
X13864048Y-10528714D01*
X13845000Y-10519190D01*
X14006905Y-10433476D02*
X14025952Y-10433476D01*
X14045000Y-10443000D01*
X14054524Y-10452524D01*
X14064048Y-10471571D01*
X14073571Y-10509667D01*
X14073571Y-10557286D01*
X14064048Y-10595381D01*
X14054524Y-10614429D01*
X14045000Y-10623952D01*
X14025952Y-10633476D01*
X14006905Y-10633476D01*
X13987857Y-10623952D01*
X13978333Y-10614429D01*
X13968809Y-10595381D01*
X13959286Y-10557286D01*
X13959286Y-10509667D01*
X13968809Y-10471571D01*
X13978333Y-10452524D01*
X13987857Y-10443000D01*
X14006905Y-10433476D01*
X14197381Y-10433476D02*
X14216428Y-10433476D01*
X14235476Y-10443000D01*
X14245000Y-10452524D01*
X14254524Y-10471571D01*
X14264048Y-10509667D01*
X14264048Y-10557286D01*
X14254524Y-10595381D01*
X14245000Y-10614429D01*
X14235476Y-10623952D01*
X14216428Y-10633476D01*
X14197381Y-10633476D01*
X14178333Y-10623952D01*
X14168809Y-10614429D01*
X14159286Y-10595381D01*
X14149762Y-10557286D01*
X14149762Y-10509667D01*
X14159286Y-10471571D01*
X14168809Y-10452524D01*
X14178333Y-10443000D01*
X14197381Y-10433476D01*
X14349762Y-10633476D02*
X14349762Y-10500143D01*
X14349762Y-10519190D02*
X14359286Y-10509667D01*
X14378333Y-10500143D01*
X14406905Y-10500143D01*
X14425952Y-10509667D01*
X14435476Y-10528714D01*
X14435476Y-10633476D01*
X14435476Y-10528714D02*
X14445000Y-10509667D01*
X14464048Y-10500143D01*
X14492619Y-10500143D01*
X14511667Y-10509667D01*
X14521190Y-10528714D01*
X14521190Y-10633476D01*
X14616428Y-10633476D02*
X14616428Y-10500143D01*
X14616428Y-10519190D02*
X14625952Y-10509667D01*
X14645000Y-10500143D01*
X14673571Y-10500143D01*
X14692619Y-10509667D01*
X14702143Y-10528714D01*
X14702143Y-10633476D01*
X14702143Y-10528714D02*
X14711667Y-10509667D01*
X14730714Y-10500143D01*
X14759286Y-10500143D01*
X14778333Y-10509667D01*
X14787857Y-10528714D01*
X14787857Y-10633476D01*
X15178333Y-10423952D02*
X15006905Y-10681095D01*
X15435476Y-10433476D02*
X15454524Y-10433476D01*
X15473571Y-10443000D01*
X15483095Y-10452524D01*
X15492619Y-10471571D01*
X15502143Y-10509667D01*
X15502143Y-10557286D01*
X15492619Y-10595381D01*
X15483095Y-10614429D01*
X15473571Y-10623952D01*
X15454524Y-10633476D01*
X15435476Y-10633476D01*
X15416428Y-10623952D01*
X15406905Y-10614429D01*
X15397381Y-10595381D01*
X15387857Y-10557286D01*
X15387857Y-10509667D01*
X15397381Y-10471571D01*
X15406905Y-10452524D01*
X15416428Y-10443000D01*
X15435476Y-10433476D01*
X15587857Y-10614429D02*
X15597381Y-10623952D01*
X15587857Y-10633476D01*
X15578333Y-10623952D01*
X15587857Y-10614429D01*
X15587857Y-10633476D01*
X15721190Y-10433476D02*
X15740238Y-10433476D01*
X15759286Y-10443000D01*
X15768809Y-10452524D01*
X15778333Y-10471571D01*
X15787857Y-10509667D01*
X15787857Y-10557286D01*
X15778333Y-10595381D01*
X15768809Y-10614429D01*
X15759286Y-10623952D01*
X15740238Y-10633476D01*
X15721190Y-10633476D01*
X15702143Y-10623952D01*
X15692619Y-10614429D01*
X15683095Y-10595381D01*
X15673571Y-10557286D01*
X15673571Y-10509667D01*
X15683095Y-10471571D01*
X15692619Y-10452524D01*
X15702143Y-10443000D01*
X15721190Y-10433476D01*
X15854524Y-10433476D02*
X15978333Y-10433476D01*
X15911667Y-10509667D01*
X15940238Y-10509667D01*
X15959286Y-10519190D01*
X15968809Y-10528714D01*
X15978333Y-10547762D01*
X15978333Y-10595381D01*
X15968809Y-10614429D01*
X15959286Y-10623952D01*
X15940238Y-10633476D01*
X15883095Y-10633476D01*
X15864048Y-10623952D01*
X15854524Y-10614429D01*
X16168809Y-10633476D02*
X16054524Y-10633476D01*
X16111667Y-10633476D02*
X16111667Y-10433476D01*
X16092619Y-10462048D01*
X16073571Y-10481095D01*
X16054524Y-10490619D01*
X16349762Y-10433476D02*
X16254524Y-10433476D01*
X16245000Y-10528714D01*
X16254524Y-10519190D01*
X16273571Y-10509667D01*
X16321190Y-10509667D01*
X16340238Y-10519190D01*
X16349762Y-10528714D01*
X16359286Y-10547762D01*
X16359286Y-10595381D01*
X16349762Y-10614429D01*
X16340238Y-10623952D01*
X16321190Y-10633476D01*
X16273571Y-10633476D01*
X16254524Y-10623952D01*
X16245000Y-10614429D01*
X16435476Y-10433476D02*
X16435476Y-10471571D01*
X16511667Y-10433476D02*
X16511667Y-10471571D01*
X16806905Y-10709667D02*
X16797381Y-10700143D01*
X16778333Y-10671571D01*
X16768809Y-10652524D01*
X16759286Y-10623952D01*
X16749762Y-10576333D01*
X16749762Y-10538238D01*
X16759286Y-10490619D01*
X16768809Y-10462048D01*
X16778333Y-10443000D01*
X16797381Y-10414429D01*
X16806905Y-10404905D01*
X16968810Y-10500143D02*
X16968810Y-10633476D01*
X16921190Y-10423952D02*
X16873571Y-10566810D01*
X16997381Y-10566810D01*
X17225952Y-10633476D02*
X17225952Y-10433476D01*
X17311667Y-10633476D02*
X17311667Y-10528714D01*
X17302143Y-10509667D01*
X17283095Y-10500143D01*
X17254524Y-10500143D01*
X17235476Y-10509667D01*
X17225952Y-10519190D01*
X17435476Y-10633476D02*
X17416429Y-10623952D01*
X17406905Y-10614429D01*
X17397381Y-10595381D01*
X17397381Y-10538238D01*
X17406905Y-10519190D01*
X17416429Y-10509667D01*
X17435476Y-10500143D01*
X17464048Y-10500143D01*
X17483095Y-10509667D01*
X17492619Y-10519190D01*
X17502143Y-10538238D01*
X17502143Y-10595381D01*
X17492619Y-10614429D01*
X17483095Y-10623952D01*
X17464048Y-10633476D01*
X17435476Y-10633476D01*
X17616429Y-10633476D02*
X17597381Y-10623952D01*
X17587857Y-10604905D01*
X17587857Y-10433476D01*
X17768810Y-10623952D02*
X17749762Y-10633476D01*
X17711667Y-10633476D01*
X17692619Y-10623952D01*
X17683095Y-10604905D01*
X17683095Y-10528714D01*
X17692619Y-10509667D01*
X17711667Y-10500143D01*
X17749762Y-10500143D01*
X17768810Y-10509667D01*
X17778333Y-10528714D01*
X17778333Y-10547762D01*
X17683095Y-10566810D01*
X17854524Y-10623952D02*
X17873571Y-10633476D01*
X17911667Y-10633476D01*
X17930714Y-10623952D01*
X17940238Y-10604905D01*
X17940238Y-10595381D01*
X17930714Y-10576333D01*
X17911667Y-10566810D01*
X17883095Y-10566810D01*
X17864048Y-10557286D01*
X17854524Y-10538238D01*
X17854524Y-10528714D01*
X17864048Y-10509667D01*
X17883095Y-10500143D01*
X17911667Y-10500143D01*
X17930714Y-10509667D01*
X18006905Y-10709667D02*
X18016429Y-10700143D01*
X18035476Y-10671571D01*
X18045000Y-10652524D01*
X18054524Y-10623952D01*
X18064048Y-10576333D01*
X18064048Y-10538238D01*
X18054524Y-10490619D01*
X18045000Y-10462048D01*
X18035476Y-10443000D01*
X18016429Y-10414429D01*
X18006905Y-10404905D01*
D15*
X13221820Y-10838820D02*
X13221820Y-10775180D01*
X13158180Y-10775180D01*
X13158180Y-10838820D01*
X13221820Y-10838820D01*
D11*
X13530714Y-10697476D02*
X13549762Y-10697476D01*
X13568809Y-10707000D01*
X13578333Y-10716524D01*
X13587857Y-10735571D01*
X13597381Y-10773667D01*
X13597381Y-10821286D01*
X13587857Y-10859381D01*
X13578333Y-10878429D01*
X13568809Y-10887952D01*
X13549762Y-10897476D01*
X13530714Y-10897476D01*
X13511667Y-10887952D01*
X13502143Y-10878429D01*
X13492619Y-10859381D01*
X13483095Y-10821286D01*
X13483095Y-10773667D01*
X13492619Y-10735571D01*
X13502143Y-10716524D01*
X13511667Y-10707000D01*
X13530714Y-10697476D01*
X13683095Y-10878429D02*
X13692619Y-10887952D01*
X13683095Y-10897476D01*
X13673571Y-10887952D01*
X13683095Y-10878429D01*
X13683095Y-10897476D01*
X13787857Y-10897476D02*
X13825952Y-10897476D01*
X13845000Y-10887952D01*
X13854524Y-10878429D01*
X13873571Y-10849857D01*
X13883095Y-10811762D01*
X13883095Y-10735571D01*
X13873571Y-10716524D01*
X13864048Y-10707000D01*
X13845000Y-10697476D01*
X13806905Y-10697476D01*
X13787857Y-10707000D01*
X13778333Y-10716524D01*
X13768809Y-10735571D01*
X13768809Y-10783190D01*
X13778333Y-10802238D01*
X13787857Y-10811762D01*
X13806905Y-10821286D01*
X13845000Y-10821286D01*
X13864048Y-10811762D01*
X13873571Y-10802238D01*
X13883095Y-10783190D01*
X14006905Y-10697476D02*
X14025952Y-10697476D01*
X14045000Y-10707000D01*
X14054524Y-10716524D01*
X14064048Y-10735571D01*
X14073571Y-10773667D01*
X14073571Y-10821286D01*
X14064048Y-10859381D01*
X14054524Y-10878429D01*
X14045000Y-10887952D01*
X14025952Y-10897476D01*
X14006905Y-10897476D01*
X13987857Y-10887952D01*
X13978333Y-10878429D01*
X13968809Y-10859381D01*
X13959286Y-10821286D01*
X13959286Y-10773667D01*
X13968809Y-10735571D01*
X13978333Y-10716524D01*
X13987857Y-10707000D01*
X14006905Y-10697476D01*
X14197381Y-10697476D02*
X14216428Y-10697476D01*
X14235476Y-10707000D01*
X14245000Y-10716524D01*
X14254524Y-10735571D01*
X14264048Y-10773667D01*
X14264048Y-10821286D01*
X14254524Y-10859381D01*
X14245000Y-10878429D01*
X14235476Y-10887952D01*
X14216428Y-10897476D01*
X14197381Y-10897476D01*
X14178333Y-10887952D01*
X14168809Y-10878429D01*
X14159286Y-10859381D01*
X14149762Y-10821286D01*
X14149762Y-10773667D01*
X14159286Y-10735571D01*
X14168809Y-10716524D01*
X14178333Y-10707000D01*
X14197381Y-10697476D01*
X14349762Y-10897476D02*
X14349762Y-10764143D01*
X14349762Y-10783190D02*
X14359286Y-10773667D01*
X14378333Y-10764143D01*
X14406905Y-10764143D01*
X14425952Y-10773667D01*
X14435476Y-10792714D01*
X14435476Y-10897476D01*
X14435476Y-10792714D02*
X14445000Y-10773667D01*
X14464048Y-10764143D01*
X14492619Y-10764143D01*
X14511667Y-10773667D01*
X14521190Y-10792714D01*
X14521190Y-10897476D01*
X14616428Y-10897476D02*
X14616428Y-10764143D01*
X14616428Y-10783190D02*
X14625952Y-10773667D01*
X14645000Y-10764143D01*
X14673571Y-10764143D01*
X14692619Y-10773667D01*
X14702143Y-10792714D01*
X14702143Y-10897476D01*
X14702143Y-10792714D02*
X14711667Y-10773667D01*
X14730714Y-10764143D01*
X14759286Y-10764143D01*
X14778333Y-10773667D01*
X14787857Y-10792714D01*
X14787857Y-10897476D01*
X15178333Y-10687952D02*
X15006905Y-10945095D01*
X15435476Y-10697476D02*
X15454524Y-10697476D01*
X15473571Y-10707000D01*
X15483095Y-10716524D01*
X15492619Y-10735571D01*
X15502143Y-10773667D01*
X15502143Y-10821286D01*
X15492619Y-10859381D01*
X15483095Y-10878429D01*
X15473571Y-10887952D01*
X15454524Y-10897476D01*
X15435476Y-10897476D01*
X15416428Y-10887952D01*
X15406905Y-10878429D01*
X15397381Y-10859381D01*
X15387857Y-10821286D01*
X15387857Y-10773667D01*
X15397381Y-10735571D01*
X15406905Y-10716524D01*
X15416428Y-10707000D01*
X15435476Y-10697476D01*
X15587857Y-10878429D02*
X15597381Y-10887952D01*
X15587857Y-10897476D01*
X15578333Y-10887952D01*
X15587857Y-10878429D01*
X15587857Y-10897476D01*
X15721190Y-10697476D02*
X15740238Y-10697476D01*
X15759286Y-10707000D01*
X15768809Y-10716524D01*
X15778333Y-10735571D01*
X15787857Y-10773667D01*
X15787857Y-10821286D01*
X15778333Y-10859381D01*
X15768809Y-10878429D01*
X15759286Y-10887952D01*
X15740238Y-10897476D01*
X15721190Y-10897476D01*
X15702143Y-10887952D01*
X15692619Y-10878429D01*
X15683095Y-10859381D01*
X15673571Y-10821286D01*
X15673571Y-10773667D01*
X15683095Y-10735571D01*
X15692619Y-10716524D01*
X15702143Y-10707000D01*
X15721190Y-10697476D01*
X15854524Y-10697476D02*
X15978333Y-10697476D01*
X15911667Y-10773667D01*
X15940238Y-10773667D01*
X15959286Y-10783190D01*
X15968809Y-10792714D01*
X15978333Y-10811762D01*
X15978333Y-10859381D01*
X15968809Y-10878429D01*
X15959286Y-10887952D01*
X15940238Y-10897476D01*
X15883095Y-10897476D01*
X15864048Y-10887952D01*
X15854524Y-10878429D01*
X16159286Y-10697476D02*
X16064048Y-10697476D01*
X16054524Y-10792714D01*
X16064048Y-10783190D01*
X16083095Y-10773667D01*
X16130714Y-10773667D01*
X16149762Y-10783190D01*
X16159286Y-10792714D01*
X16168809Y-10811762D01*
X16168809Y-10859381D01*
X16159286Y-10878429D01*
X16149762Y-10887952D01*
X16130714Y-10897476D01*
X16083095Y-10897476D01*
X16064048Y-10887952D01*
X16054524Y-10878429D01*
X16340238Y-10764143D02*
X16340238Y-10897476D01*
X16292619Y-10687952D02*
X16245000Y-10830810D01*
X16368809Y-10830810D01*
X16435476Y-10697476D02*
X16435476Y-10735571D01*
X16511667Y-10697476D02*
X16511667Y-10735571D01*
X16806905Y-10973667D02*
X16797381Y-10964143D01*
X16778333Y-10935571D01*
X16768809Y-10916524D01*
X16759286Y-10887952D01*
X16749762Y-10840333D01*
X16749762Y-10802238D01*
X16759286Y-10754619D01*
X16768809Y-10726048D01*
X16778333Y-10707000D01*
X16797381Y-10678429D01*
X16806905Y-10668905D01*
X16873571Y-10716524D02*
X16883095Y-10707000D01*
X16902143Y-10697476D01*
X16949762Y-10697476D01*
X16968810Y-10707000D01*
X16978333Y-10716524D01*
X16987857Y-10735571D01*
X16987857Y-10754619D01*
X16978333Y-10783190D01*
X16864048Y-10897476D01*
X16987857Y-10897476D01*
X17225952Y-10897476D02*
X17225952Y-10697476D01*
X17311667Y-10897476D02*
X17311667Y-10792714D01*
X17302143Y-10773667D01*
X17283095Y-10764143D01*
X17254524Y-10764143D01*
X17235476Y-10773667D01*
X17225952Y-10783190D01*
X17435476Y-10897476D02*
X17416429Y-10887952D01*
X17406905Y-10878429D01*
X17397381Y-10859381D01*
X17397381Y-10802238D01*
X17406905Y-10783190D01*
X17416429Y-10773667D01*
X17435476Y-10764143D01*
X17464048Y-10764143D01*
X17483095Y-10773667D01*
X17492619Y-10783190D01*
X17502143Y-10802238D01*
X17502143Y-10859381D01*
X17492619Y-10878429D01*
X17483095Y-10887952D01*
X17464048Y-10897476D01*
X17435476Y-10897476D01*
X17616429Y-10897476D02*
X17597381Y-10887952D01*
X17587857Y-10868905D01*
X17587857Y-10697476D01*
X17768810Y-10887952D02*
X17749762Y-10897476D01*
X17711667Y-10897476D01*
X17692619Y-10887952D01*
X17683095Y-10868905D01*
X17683095Y-10792714D01*
X17692619Y-10773667D01*
X17711667Y-10764143D01*
X17749762Y-10764143D01*
X17768810Y-10773667D01*
X17778333Y-10792714D01*
X17778333Y-10811762D01*
X17683095Y-10830810D01*
X17854524Y-10887952D02*
X17873571Y-10897476D01*
X17911667Y-10897476D01*
X17930714Y-10887952D01*
X17940238Y-10868905D01*
X17940238Y-10859381D01*
X17930714Y-10840333D01*
X17911667Y-10830810D01*
X17883095Y-10830810D01*
X17864048Y-10821286D01*
X17854524Y-10802238D01*
X17854524Y-10792714D01*
X17864048Y-10773667D01*
X17883095Y-10764143D01*
X17911667Y-10764143D01*
X17930714Y-10773667D01*
X18006905Y-10973667D02*
X18016429Y-10964143D01*
X18035476Y-10935571D01*
X18045000Y-10916524D01*
X18054524Y-10887952D01*
X18064048Y-10840333D01*
X18064048Y-10802238D01*
X18054524Y-10754619D01*
X18045000Y-10726048D01*
X18035476Y-10707000D01*
X18016429Y-10678429D01*
X18006905Y-10668905D01*
D16*
X13185000Y-11121000D02*
X13235000Y-11071000D01*
X13185000Y-11021000D01*
X13135000Y-11071000D01*
X13185000Y-11121000D01*
D11*
X13597381Y-11161476D02*
X13483095Y-11161476D01*
X13540238Y-11161476D02*
X13540238Y-10961476D01*
X13521190Y-10990048D01*
X13502143Y-11009095D01*
X13483095Y-11018619D01*
X13683095Y-11142429D02*
X13692619Y-11151952D01*
X13683095Y-11161476D01*
X13673571Y-11151952D01*
X13683095Y-11142429D01*
X13683095Y-11161476D01*
X13816428Y-10961476D02*
X13835476Y-10961476D01*
X13854524Y-10971000D01*
X13864048Y-10980524D01*
X13873571Y-10999571D01*
X13883095Y-11037667D01*
X13883095Y-11085286D01*
X13873571Y-11123381D01*
X13864048Y-11142429D01*
X13854524Y-11151952D01*
X13835476Y-11161476D01*
X13816428Y-11161476D01*
X13797381Y-11151952D01*
X13787857Y-11142429D01*
X13778333Y-11123381D01*
X13768809Y-11085286D01*
X13768809Y-11037667D01*
X13778333Y-10999571D01*
X13787857Y-10980524D01*
X13797381Y-10971000D01*
X13816428Y-10961476D01*
X14006905Y-10961476D02*
X14025952Y-10961476D01*
X14045000Y-10971000D01*
X14054524Y-10980524D01*
X14064048Y-10999571D01*
X14073571Y-11037667D01*
X14073571Y-11085286D01*
X14064048Y-11123381D01*
X14054524Y-11142429D01*
X14045000Y-11151952D01*
X14025952Y-11161476D01*
X14006905Y-11161476D01*
X13987857Y-11151952D01*
X13978333Y-11142429D01*
X13968809Y-11123381D01*
X13959286Y-11085286D01*
X13959286Y-11037667D01*
X13968809Y-10999571D01*
X13978333Y-10980524D01*
X13987857Y-10971000D01*
X14006905Y-10961476D01*
X14197381Y-10961476D02*
X14216428Y-10961476D01*
X14235476Y-10971000D01*
X14245000Y-10980524D01*
X14254524Y-10999571D01*
X14264048Y-11037667D01*
X14264048Y-11085286D01*
X14254524Y-11123381D01*
X14245000Y-11142429D01*
X14235476Y-11151952D01*
X14216428Y-11161476D01*
X14197381Y-11161476D01*
X14178333Y-11151952D01*
X14168809Y-11142429D01*
X14159286Y-11123381D01*
X14149762Y-11085286D01*
X14149762Y-11037667D01*
X14159286Y-10999571D01*
X14168809Y-10980524D01*
X14178333Y-10971000D01*
X14197381Y-10961476D01*
X14349762Y-11161476D02*
X14349762Y-11028143D01*
X14349762Y-11047190D02*
X14359286Y-11037667D01*
X14378333Y-11028143D01*
X14406905Y-11028143D01*
X14425952Y-11037667D01*
X14435476Y-11056714D01*
X14435476Y-11161476D01*
X14435476Y-11056714D02*
X14445000Y-11037667D01*
X14464048Y-11028143D01*
X14492619Y-11028143D01*
X14511667Y-11037667D01*
X14521190Y-11056714D01*
X14521190Y-11161476D01*
X14616428Y-11161476D02*
X14616428Y-11028143D01*
X14616428Y-11047190D02*
X14625952Y-11037667D01*
X14645000Y-11028143D01*
X14673571Y-11028143D01*
X14692619Y-11037667D01*
X14702143Y-11056714D01*
X14702143Y-11161476D01*
X14702143Y-11056714D02*
X14711667Y-11037667D01*
X14730714Y-11028143D01*
X14759286Y-11028143D01*
X14778333Y-11037667D01*
X14787857Y-11056714D01*
X14787857Y-11161476D01*
X15178333Y-10951952D02*
X15006905Y-11209095D01*
X15435476Y-10961476D02*
X15454524Y-10961476D01*
X15473571Y-10971000D01*
X15483095Y-10980524D01*
X15492619Y-10999571D01*
X15502143Y-11037667D01*
X15502143Y-11085286D01*
X15492619Y-11123381D01*
X15483095Y-11142429D01*
X15473571Y-11151952D01*
X15454524Y-11161476D01*
X15435476Y-11161476D01*
X15416428Y-11151952D01*
X15406905Y-11142429D01*
X15397381Y-11123381D01*
X15387857Y-11085286D01*
X15387857Y-11037667D01*
X15397381Y-10999571D01*
X15406905Y-10980524D01*
X15416428Y-10971000D01*
X15435476Y-10961476D01*
X15587857Y-11142429D02*
X15597381Y-11151952D01*
X15587857Y-11161476D01*
X15578333Y-11151952D01*
X15587857Y-11142429D01*
X15587857Y-11161476D01*
X15721190Y-10961476D02*
X15740238Y-10961476D01*
X15759286Y-10971000D01*
X15768809Y-10980524D01*
X15778333Y-10999571D01*
X15787857Y-11037667D01*
X15787857Y-11085286D01*
X15778333Y-11123381D01*
X15768809Y-11142429D01*
X15759286Y-11151952D01*
X15740238Y-11161476D01*
X15721190Y-11161476D01*
X15702143Y-11151952D01*
X15692619Y-11142429D01*
X15683095Y-11123381D01*
X15673571Y-11085286D01*
X15673571Y-11037667D01*
X15683095Y-10999571D01*
X15692619Y-10980524D01*
X15702143Y-10971000D01*
X15721190Y-10961476D01*
X15854524Y-10961476D02*
X15978333Y-10961476D01*
X15911667Y-11037667D01*
X15940238Y-11037667D01*
X15959286Y-11047190D01*
X15968809Y-11056714D01*
X15978333Y-11075762D01*
X15978333Y-11123381D01*
X15968809Y-11142429D01*
X15959286Y-11151952D01*
X15940238Y-11161476D01*
X15883095Y-11161476D01*
X15864048Y-11151952D01*
X15854524Y-11142429D01*
X16073571Y-11161476D02*
X16111667Y-11161476D01*
X16130714Y-11151952D01*
X16140238Y-11142429D01*
X16159286Y-11113857D01*
X16168809Y-11075762D01*
X16168809Y-10999571D01*
X16159286Y-10980524D01*
X16149762Y-10971000D01*
X16130714Y-10961476D01*
X16092619Y-10961476D01*
X16073571Y-10971000D01*
X16064048Y-10980524D01*
X16054524Y-10999571D01*
X16054524Y-11047190D01*
X16064048Y-11066238D01*
X16073571Y-11075762D01*
X16092619Y-11085286D01*
X16130714Y-11085286D01*
X16149762Y-11075762D01*
X16159286Y-11066238D01*
X16168809Y-11047190D01*
X16340238Y-11028143D02*
X16340238Y-11161476D01*
X16292619Y-10951952D02*
X16245000Y-11094810D01*
X16368809Y-11094810D01*
X16435476Y-10961476D02*
X16435476Y-10999571D01*
X16511667Y-10961476D02*
X16511667Y-10999571D01*
X16806905Y-11237667D02*
X16797381Y-11228143D01*
X16778333Y-11199571D01*
X16768809Y-11180524D01*
X16759286Y-11151952D01*
X16749762Y-11104333D01*
X16749762Y-11066238D01*
X16759286Y-11018619D01*
X16768809Y-10990048D01*
X16778333Y-10971000D01*
X16797381Y-10942429D01*
X16806905Y-10932905D01*
X16892619Y-11161476D02*
X16930714Y-11161476D01*
X16949762Y-11151952D01*
X16959286Y-11142429D01*
X16978333Y-11113857D01*
X16987857Y-11075762D01*
X16987857Y-10999571D01*
X16978333Y-10980524D01*
X16968810Y-10971000D01*
X16949762Y-10961476D01*
X16911667Y-10961476D01*
X16892619Y-10971000D01*
X16883095Y-10980524D01*
X16873571Y-10999571D01*
X16873571Y-11047190D01*
X16883095Y-11066238D01*
X16892619Y-11075762D01*
X16911667Y-11085286D01*
X16949762Y-11085286D01*
X16968810Y-11075762D01*
X16978333Y-11066238D01*
X16987857Y-11047190D01*
X17225952Y-11161476D02*
X17225952Y-10961476D01*
X17311667Y-11161476D02*
X17311667Y-11056714D01*
X17302143Y-11037667D01*
X17283095Y-11028143D01*
X17254524Y-11028143D01*
X17235476Y-11037667D01*
X17225952Y-11047190D01*
X17435476Y-11161476D02*
X17416429Y-11151952D01*
X17406905Y-11142429D01*
X17397381Y-11123381D01*
X17397381Y-11066238D01*
X17406905Y-11047190D01*
X17416429Y-11037667D01*
X17435476Y-11028143D01*
X17464048Y-11028143D01*
X17483095Y-11037667D01*
X17492619Y-11047190D01*
X17502143Y-11066238D01*
X17502143Y-11123381D01*
X17492619Y-11142429D01*
X17483095Y-11151952D01*
X17464048Y-11161476D01*
X17435476Y-11161476D01*
X17616429Y-11161476D02*
X17597381Y-11151952D01*
X17587857Y-11132905D01*
X17587857Y-10961476D01*
X17768810Y-11151952D02*
X17749762Y-11161476D01*
X17711667Y-11161476D01*
X17692619Y-11151952D01*
X17683095Y-11132905D01*
X17683095Y-11056714D01*
X17692619Y-11037667D01*
X17711667Y-11028143D01*
X17749762Y-11028143D01*
X17768810Y-11037667D01*
X17778333Y-11056714D01*
X17778333Y-11075762D01*
X17683095Y-11094810D01*
X17854524Y-11151952D02*
X17873571Y-11161476D01*
X17911667Y-11161476D01*
X17930714Y-11151952D01*
X17940238Y-11132905D01*
X17940238Y-11123381D01*
X17930714Y-11104333D01*
X17911667Y-11094810D01*
X17883095Y-11094810D01*
X17864048Y-11085286D01*
X17854524Y-11066238D01*
X17854524Y-11056714D01*
X17864048Y-11037667D01*
X17883095Y-11028143D01*
X17911667Y-11028143D01*
X17930714Y-11037667D01*
X18178333Y-11085286D02*
X18330714Y-11085286D01*
X18254524Y-11161476D02*
X18254524Y-11009095D01*
X18559286Y-10961476D02*
X18683095Y-10961476D01*
X18616429Y-11037667D01*
X18645000Y-11037667D01*
X18664048Y-11047190D01*
X18673571Y-11056714D01*
X18683095Y-11075762D01*
X18683095Y-11123381D01*
X18673571Y-11142429D01*
X18664048Y-11151952D01*
X18645000Y-11161476D01*
X18587857Y-11161476D01*
X18568810Y-11151952D01*
X18559286Y-11142429D01*
X18911667Y-11151952D02*
X18930714Y-11161476D01*
X18968810Y-11161476D01*
X18987857Y-11151952D01*
X18997381Y-11132905D01*
X18997381Y-11123381D01*
X18987857Y-11104333D01*
X18968810Y-11094810D01*
X18940238Y-11094810D01*
X18921190Y-11085286D01*
X18911667Y-11066238D01*
X18911667Y-11056714D01*
X18921190Y-11037667D01*
X18940238Y-11028143D01*
X18968810Y-11028143D01*
X18987857Y-11037667D01*
X19111667Y-11161476D02*
X19092619Y-11151952D01*
X19083095Y-11132905D01*
X19083095Y-10961476D01*
X19216429Y-11161476D02*
X19197381Y-11151952D01*
X19187857Y-11142429D01*
X19178333Y-11123381D01*
X19178333Y-11066238D01*
X19187857Y-11047190D01*
X19197381Y-11037667D01*
X19216429Y-11028143D01*
X19245000Y-11028143D01*
X19264048Y-11037667D01*
X19273571Y-11047190D01*
X19283095Y-11066238D01*
X19283095Y-11123381D01*
X19273571Y-11142429D01*
X19264048Y-11151952D01*
X19245000Y-11161476D01*
X19216429Y-11161476D01*
X19340238Y-11028143D02*
X19416429Y-11028143D01*
X19368810Y-10961476D02*
X19368810Y-11132905D01*
X19378333Y-11151952D01*
X19397381Y-11161476D01*
X19416429Y-11161476D01*
X19473571Y-11151952D02*
X19492619Y-11161476D01*
X19530714Y-11161476D01*
X19549762Y-11151952D01*
X19559286Y-11132905D01*
X19559286Y-11123381D01*
X19549762Y-11104333D01*
X19530714Y-11094810D01*
X19502143Y-11094810D01*
X19483095Y-11085286D01*
X19473571Y-11066238D01*
X19473571Y-11056714D01*
X19483095Y-11037667D01*
X19502143Y-11028143D01*
X19530714Y-11028143D01*
X19549762Y-11037667D01*
X19625952Y-11237667D02*
X19635476Y-11228143D01*
X19654524Y-11199571D01*
X19664048Y-11180524D01*
X19673571Y-11151952D01*
X19683095Y-11104333D01*
X19683095Y-11066238D01*
X19673571Y-11018619D01*
X19664048Y-10990048D01*
X19654524Y-10971000D01*
X19635476Y-10942429D01*
X19625952Y-10932905D01*
D17*
X13125000Y-11280000D02*
X13235000Y-11390000D01*
X13235000Y-11280000D02*
X13125000Y-11390000D01*
X13235000Y-11335000D02*
G75*
G03*
X13235000Y-11335000I-55000J0D01*
G01*
D11*
X13597381Y-11425476D02*
X13483095Y-11425476D01*
X13540238Y-11425476D02*
X13540238Y-11225476D01*
X13521190Y-11254048D01*
X13502143Y-11273095D01*
X13483095Y-11282619D01*
X13683095Y-11406428D02*
X13692619Y-11415952D01*
X13683095Y-11425476D01*
X13673571Y-11415952D01*
X13683095Y-11406428D01*
X13683095Y-11425476D01*
X13883095Y-11425476D02*
X13768809Y-11425476D01*
X13825952Y-11425476D02*
X13825952Y-11225476D01*
X13806905Y-11254048D01*
X13787857Y-11273095D01*
X13768809Y-11282619D01*
X14006905Y-11225476D02*
X14025952Y-11225476D01*
X14045000Y-11235000D01*
X14054524Y-11244524D01*
X14064048Y-11263571D01*
X14073571Y-11301667D01*
X14073571Y-11349286D01*
X14064048Y-11387381D01*
X14054524Y-11406428D01*
X14045000Y-11415952D01*
X14025952Y-11425476D01*
X14006905Y-11425476D01*
X13987857Y-11415952D01*
X13978333Y-11406428D01*
X13968809Y-11387381D01*
X13959286Y-11349286D01*
X13959286Y-11301667D01*
X13968809Y-11263571D01*
X13978333Y-11244524D01*
X13987857Y-11235000D01*
X14006905Y-11225476D01*
X14197381Y-11225476D02*
X14216428Y-11225476D01*
X14235476Y-11235000D01*
X14245000Y-11244524D01*
X14254524Y-11263571D01*
X14264048Y-11301667D01*
X14264048Y-11349286D01*
X14254524Y-11387381D01*
X14245000Y-11406428D01*
X14235476Y-11415952D01*
X14216428Y-11425476D01*
X14197381Y-11425476D01*
X14178333Y-11415952D01*
X14168809Y-11406428D01*
X14159286Y-11387381D01*
X14149762Y-11349286D01*
X14149762Y-11301667D01*
X14159286Y-11263571D01*
X14168809Y-11244524D01*
X14178333Y-11235000D01*
X14197381Y-11225476D01*
X14349762Y-11425476D02*
X14349762Y-11292143D01*
X14349762Y-11311190D02*
X14359286Y-11301667D01*
X14378333Y-11292143D01*
X14406905Y-11292143D01*
X14425952Y-11301667D01*
X14435476Y-11320714D01*
X14435476Y-11425476D01*
X14435476Y-11320714D02*
X14445000Y-11301667D01*
X14464048Y-11292143D01*
X14492619Y-11292143D01*
X14511667Y-11301667D01*
X14521190Y-11320714D01*
X14521190Y-11425476D01*
X14616428Y-11425476D02*
X14616428Y-11292143D01*
X14616428Y-11311190D02*
X14625952Y-11301667D01*
X14645000Y-11292143D01*
X14673571Y-11292143D01*
X14692619Y-11301667D01*
X14702143Y-11320714D01*
X14702143Y-11425476D01*
X14702143Y-11320714D02*
X14711667Y-11301667D01*
X14730714Y-11292143D01*
X14759286Y-11292143D01*
X14778333Y-11301667D01*
X14787857Y-11320714D01*
X14787857Y-11425476D01*
X15178333Y-11215952D02*
X15006905Y-11473095D01*
X15435476Y-11225476D02*
X15454524Y-11225476D01*
X15473571Y-11235000D01*
X15483095Y-11244524D01*
X15492619Y-11263571D01*
X15502143Y-11301667D01*
X15502143Y-11349286D01*
X15492619Y-11387381D01*
X15483095Y-11406428D01*
X15473571Y-11415952D01*
X15454524Y-11425476D01*
X15435476Y-11425476D01*
X15416428Y-11415952D01*
X15406905Y-11406428D01*
X15397381Y-11387381D01*
X15387857Y-11349286D01*
X15387857Y-11301667D01*
X15397381Y-11263571D01*
X15406905Y-11244524D01*
X15416428Y-11235000D01*
X15435476Y-11225476D01*
X15587857Y-11406428D02*
X15597381Y-11415952D01*
X15587857Y-11425476D01*
X15578333Y-11415952D01*
X15587857Y-11406428D01*
X15587857Y-11425476D01*
X15721190Y-11225476D02*
X15740238Y-11225476D01*
X15759286Y-11235000D01*
X15768809Y-11244524D01*
X15778333Y-11263571D01*
X15787857Y-11301667D01*
X15787857Y-11349286D01*
X15778333Y-11387381D01*
X15768809Y-11406428D01*
X15759286Y-11415952D01*
X15740238Y-11425476D01*
X15721190Y-11425476D01*
X15702143Y-11415952D01*
X15692619Y-11406428D01*
X15683095Y-11387381D01*
X15673571Y-11349286D01*
X15673571Y-11301667D01*
X15683095Y-11263571D01*
X15692619Y-11244524D01*
X15702143Y-11235000D01*
X15721190Y-11225476D01*
X15959286Y-11292143D02*
X15959286Y-11425476D01*
X15911667Y-11215952D02*
X15864048Y-11358809D01*
X15987857Y-11358809D01*
X16045000Y-11225476D02*
X16168809Y-11225476D01*
X16102143Y-11301667D01*
X16130714Y-11301667D01*
X16149762Y-11311190D01*
X16159286Y-11320714D01*
X16168809Y-11339762D01*
X16168809Y-11387381D01*
X16159286Y-11406428D01*
X16149762Y-11415952D01*
X16130714Y-11425476D01*
X16073571Y-11425476D01*
X16054524Y-11415952D01*
X16045000Y-11406428D01*
X16235476Y-11225476D02*
X16359286Y-11225476D01*
X16292619Y-11301667D01*
X16321190Y-11301667D01*
X16340238Y-11311190D01*
X16349762Y-11320714D01*
X16359286Y-11339762D01*
X16359286Y-11387381D01*
X16349762Y-11406428D01*
X16340238Y-11415952D01*
X16321190Y-11425476D01*
X16264048Y-11425476D01*
X16245000Y-11415952D01*
X16235476Y-11406428D01*
X16435476Y-11225476D02*
X16435476Y-11263571D01*
X16511667Y-11225476D02*
X16511667Y-11263571D01*
X16806905Y-11501667D02*
X16797381Y-11492143D01*
X16778333Y-11463571D01*
X16768809Y-11444524D01*
X16759286Y-11415952D01*
X16749762Y-11368333D01*
X16749762Y-11330238D01*
X16759286Y-11282619D01*
X16768809Y-11254048D01*
X16778333Y-11235000D01*
X16797381Y-11206428D01*
X16806905Y-11196905D01*
X16978333Y-11225476D02*
X16883095Y-11225476D01*
X16873571Y-11320714D01*
X16883095Y-11311190D01*
X16902143Y-11301667D01*
X16949762Y-11301667D01*
X16968810Y-11311190D01*
X16978333Y-11320714D01*
X16987857Y-11339762D01*
X16987857Y-11387381D01*
X16978333Y-11406428D01*
X16968810Y-11415952D01*
X16949762Y-11425476D01*
X16902143Y-11425476D01*
X16883095Y-11415952D01*
X16873571Y-11406428D01*
X17225952Y-11425476D02*
X17225952Y-11225476D01*
X17311667Y-11425476D02*
X17311667Y-11320714D01*
X17302143Y-11301667D01*
X17283095Y-11292143D01*
X17254524Y-11292143D01*
X17235476Y-11301667D01*
X17225952Y-11311190D01*
X17435476Y-11425476D02*
X17416429Y-11415952D01*
X17406905Y-11406428D01*
X17397381Y-11387381D01*
X17397381Y-11330238D01*
X17406905Y-11311190D01*
X17416429Y-11301667D01*
X17435476Y-11292143D01*
X17464048Y-11292143D01*
X17483095Y-11301667D01*
X17492619Y-11311190D01*
X17502143Y-11330238D01*
X17502143Y-11387381D01*
X17492619Y-11406428D01*
X17483095Y-11415952D01*
X17464048Y-11425476D01*
X17435476Y-11425476D01*
X17616429Y-11425476D02*
X17597381Y-11415952D01*
X17587857Y-11396905D01*
X17587857Y-11225476D01*
X17768810Y-11415952D02*
X17749762Y-11425476D01*
X17711667Y-11425476D01*
X17692619Y-11415952D01*
X17683095Y-11396905D01*
X17683095Y-11320714D01*
X17692619Y-11301667D01*
X17711667Y-11292143D01*
X17749762Y-11292143D01*
X17768810Y-11301667D01*
X17778333Y-11320714D01*
X17778333Y-11339762D01*
X17683095Y-11358809D01*
X17854524Y-11415952D02*
X17873571Y-11425476D01*
X17911667Y-11425476D01*
X17930714Y-11415952D01*
X17940238Y-11396905D01*
X17940238Y-11387381D01*
X17930714Y-11368333D01*
X17911667Y-11358809D01*
X17883095Y-11358809D01*
X17864048Y-11349286D01*
X17854524Y-11330238D01*
X17854524Y-11320714D01*
X17864048Y-11301667D01*
X17883095Y-11292143D01*
X17911667Y-11292143D01*
X17930714Y-11301667D01*
X18006905Y-11501667D02*
X18016429Y-11492143D01*
X18035476Y-11463571D01*
X18045000Y-11444524D01*
X18054524Y-11415952D01*
X18064048Y-11368333D01*
X18064048Y-11330238D01*
X18054524Y-11282619D01*
X18045000Y-11254048D01*
X18035476Y-11235000D01*
X18016429Y-11206428D01*
X18006905Y-11196905D01*
X13035000Y-11499000D02*
X13235000Y-11699000D01*
X13235000Y-11499000D02*
X13035000Y-11699000D01*
X13135000Y-11499000D02*
X13135000Y-11699000D01*
X13035000Y-11599000D02*
X13235000Y-11599000D01*
X13473571Y-11489476D02*
X13597381Y-11489476D01*
X13530714Y-11565667D01*
X13559286Y-11565667D01*
X13578333Y-11575190D01*
X13587857Y-11584714D01*
X13597381Y-11603762D01*
X13597381Y-11651381D01*
X13587857Y-11670428D01*
X13578333Y-11679952D01*
X13559286Y-11689476D01*
X13502143Y-11689476D01*
X13483095Y-11679952D01*
X13473571Y-11670428D01*
X13683095Y-11670428D02*
X13692619Y-11679952D01*
X13683095Y-11689476D01*
X13673571Y-11679952D01*
X13683095Y-11670428D01*
X13683095Y-11689476D01*
X13768809Y-11508524D02*
X13778333Y-11499000D01*
X13797381Y-11489476D01*
X13845000Y-11489476D01*
X13864048Y-11499000D01*
X13873571Y-11508524D01*
X13883095Y-11527571D01*
X13883095Y-11546619D01*
X13873571Y-11575190D01*
X13759286Y-11689476D01*
X13883095Y-11689476D01*
X14006905Y-11489476D02*
X14025952Y-11489476D01*
X14045000Y-11499000D01*
X14054524Y-11508524D01*
X14064048Y-11527571D01*
X14073571Y-11565667D01*
X14073571Y-11613286D01*
X14064048Y-11651381D01*
X14054524Y-11670428D01*
X14045000Y-11679952D01*
X14025952Y-11689476D01*
X14006905Y-11689476D01*
X13987857Y-11679952D01*
X13978333Y-11670428D01*
X13968809Y-11651381D01*
X13959286Y-11613286D01*
X13959286Y-11565667D01*
X13968809Y-11527571D01*
X13978333Y-11508524D01*
X13987857Y-11499000D01*
X14006905Y-11489476D01*
X14197381Y-11489476D02*
X14216428Y-11489476D01*
X14235476Y-11499000D01*
X14245000Y-11508524D01*
X14254524Y-11527571D01*
X14264048Y-11565667D01*
X14264048Y-11613286D01*
X14254524Y-11651381D01*
X14245000Y-11670428D01*
X14235476Y-11679952D01*
X14216428Y-11689476D01*
X14197381Y-11689476D01*
X14178333Y-11679952D01*
X14168809Y-11670428D01*
X14159286Y-11651381D01*
X14149762Y-11613286D01*
X14149762Y-11565667D01*
X14159286Y-11527571D01*
X14168809Y-11508524D01*
X14178333Y-11499000D01*
X14197381Y-11489476D01*
X14349762Y-11689476D02*
X14349762Y-11556143D01*
X14349762Y-11575190D02*
X14359286Y-11565667D01*
X14378333Y-11556143D01*
X14406905Y-11556143D01*
X14425952Y-11565667D01*
X14435476Y-11584714D01*
X14435476Y-11689476D01*
X14435476Y-11584714D02*
X14445000Y-11565667D01*
X14464048Y-11556143D01*
X14492619Y-11556143D01*
X14511667Y-11565667D01*
X14521190Y-11584714D01*
X14521190Y-11689476D01*
X14616428Y-11689476D02*
X14616428Y-11556143D01*
X14616428Y-11575190D02*
X14625952Y-11565667D01*
X14645000Y-11556143D01*
X14673571Y-11556143D01*
X14692619Y-11565667D01*
X14702143Y-11584714D01*
X14702143Y-11689476D01*
X14702143Y-11584714D02*
X14711667Y-11565667D01*
X14730714Y-11556143D01*
X14759286Y-11556143D01*
X14778333Y-11565667D01*
X14787857Y-11584714D01*
X14787857Y-11689476D01*
X15178333Y-11479952D02*
X15006905Y-11737095D01*
X15435476Y-11489476D02*
X15454524Y-11489476D01*
X15473571Y-11499000D01*
X15483095Y-11508524D01*
X15492619Y-11527571D01*
X15502143Y-11565667D01*
X15502143Y-11613286D01*
X15492619Y-11651381D01*
X15483095Y-11670428D01*
X15473571Y-11679952D01*
X15454524Y-11689476D01*
X15435476Y-11689476D01*
X15416428Y-11679952D01*
X15406905Y-11670428D01*
X15397381Y-11651381D01*
X15387857Y-11613286D01*
X15387857Y-11565667D01*
X15397381Y-11527571D01*
X15406905Y-11508524D01*
X15416428Y-11499000D01*
X15435476Y-11489476D01*
X15587857Y-11670428D02*
X15597381Y-11679952D01*
X15587857Y-11689476D01*
X15578333Y-11679952D01*
X15587857Y-11670428D01*
X15587857Y-11689476D01*
X15787857Y-11689476D02*
X15673571Y-11689476D01*
X15730714Y-11689476D02*
X15730714Y-11489476D01*
X15711667Y-11518048D01*
X15692619Y-11537095D01*
X15673571Y-11546619D01*
X15864048Y-11508524D02*
X15873571Y-11499000D01*
X15892619Y-11489476D01*
X15940238Y-11489476D01*
X15959286Y-11499000D01*
X15968809Y-11508524D01*
X15978333Y-11527571D01*
X15978333Y-11546619D01*
X15968809Y-11575190D01*
X15854524Y-11689476D01*
X15978333Y-11689476D01*
X16149762Y-11489476D02*
X16111667Y-11489476D01*
X16092619Y-11499000D01*
X16083095Y-11508524D01*
X16064048Y-11537095D01*
X16054524Y-11575190D01*
X16054524Y-11651381D01*
X16064048Y-11670428D01*
X16073571Y-11679952D01*
X16092619Y-11689476D01*
X16130714Y-11689476D01*
X16149762Y-11679952D01*
X16159286Y-11670428D01*
X16168809Y-11651381D01*
X16168809Y-11603762D01*
X16159286Y-11584714D01*
X16149762Y-11575190D01*
X16130714Y-11565667D01*
X16092619Y-11565667D01*
X16073571Y-11575190D01*
X16064048Y-11584714D01*
X16054524Y-11603762D01*
X16292619Y-11489476D02*
X16311667Y-11489476D01*
X16330714Y-11499000D01*
X16340238Y-11508524D01*
X16349762Y-11527571D01*
X16359286Y-11565667D01*
X16359286Y-11613286D01*
X16349762Y-11651381D01*
X16340238Y-11670428D01*
X16330714Y-11679952D01*
X16311667Y-11689476D01*
X16292619Y-11689476D01*
X16273571Y-11679952D01*
X16264048Y-11670428D01*
X16254524Y-11651381D01*
X16245000Y-11613286D01*
X16245000Y-11565667D01*
X16254524Y-11527571D01*
X16264048Y-11508524D01*
X16273571Y-11499000D01*
X16292619Y-11489476D01*
X16435476Y-11489476D02*
X16435476Y-11527571D01*
X16511667Y-11489476D02*
X16511667Y-11527571D01*
X16806905Y-11765667D02*
X16797381Y-11756143D01*
X16778333Y-11727571D01*
X16768809Y-11708524D01*
X16759286Y-11679952D01*
X16749762Y-11632333D01*
X16749762Y-11594238D01*
X16759286Y-11546619D01*
X16768809Y-11518048D01*
X16778333Y-11499000D01*
X16797381Y-11470428D01*
X16806905Y-11460905D01*
X16968810Y-11556143D02*
X16968810Y-11689476D01*
X16921190Y-11479952D02*
X16873571Y-11622809D01*
X16997381Y-11622809D01*
X17225952Y-11689476D02*
X17225952Y-11489476D01*
X17311667Y-11689476D02*
X17311667Y-11584714D01*
X17302143Y-11565667D01*
X17283095Y-11556143D01*
X17254524Y-11556143D01*
X17235476Y-11565667D01*
X17225952Y-11575190D01*
X17435476Y-11689476D02*
X17416429Y-11679952D01*
X17406905Y-11670428D01*
X17397381Y-11651381D01*
X17397381Y-11594238D01*
X17406905Y-11575190D01*
X17416429Y-11565667D01*
X17435476Y-11556143D01*
X17464048Y-11556143D01*
X17483095Y-11565667D01*
X17492619Y-11575190D01*
X17502143Y-11594238D01*
X17502143Y-11651381D01*
X17492619Y-11670428D01*
X17483095Y-11679952D01*
X17464048Y-11689476D01*
X17435476Y-11689476D01*
X17616429Y-11689476D02*
X17597381Y-11679952D01*
X17587857Y-11660905D01*
X17587857Y-11489476D01*
X17768810Y-11679952D02*
X17749762Y-11689476D01*
X17711667Y-11689476D01*
X17692619Y-11679952D01*
X17683095Y-11660905D01*
X17683095Y-11584714D01*
X17692619Y-11565667D01*
X17711667Y-11556143D01*
X17749762Y-11556143D01*
X17768810Y-11565667D01*
X17778333Y-11584714D01*
X17778333Y-11603762D01*
X17683095Y-11622809D01*
X17854524Y-11679952D02*
X17873571Y-11689476D01*
X17911667Y-11689476D01*
X17930714Y-11679952D01*
X17940238Y-11660905D01*
X17940238Y-11651381D01*
X17930714Y-11632333D01*
X17911667Y-11622809D01*
X17883095Y-11622809D01*
X17864048Y-11613286D01*
X17854524Y-11594238D01*
X17854524Y-11584714D01*
X17864048Y-11565667D01*
X17883095Y-11556143D01*
X17911667Y-11556143D01*
X17930714Y-11565667D01*
X18006905Y-11765667D02*
X18016429Y-11756143D01*
X18035476Y-11727571D01*
X18045000Y-11708524D01*
X18054524Y-11679952D01*
X18064048Y-11632333D01*
X18064048Y-11594238D01*
X18054524Y-11546619D01*
X18045000Y-11518048D01*
X18035476Y-11499000D01*
X18016429Y-11470428D01*
X18006905Y-11460905D01*
X13035000Y-11819000D02*
X13235000Y-12019000D01*
X13235000Y-11819000D02*
X13035000Y-12019000D01*
X13205711Y-11989711D02*
X13205711Y-11848289D01*
X13064289Y-11848289D01*
X13064289Y-11989711D01*
X13205711Y-11989711D01*
X13473571Y-11809476D02*
X13597381Y-11809476D01*
X13530714Y-11885667D01*
X13559286Y-11885667D01*
X13578333Y-11895190D01*
X13587857Y-11904714D01*
X13597381Y-11923762D01*
X13597381Y-11971381D01*
X13587857Y-11990428D01*
X13578333Y-11999952D01*
X13559286Y-12009476D01*
X13502143Y-12009476D01*
X13483095Y-11999952D01*
X13473571Y-11990428D01*
X13683095Y-11990428D02*
X13692619Y-11999952D01*
X13683095Y-12009476D01*
X13673571Y-11999952D01*
X13683095Y-11990428D01*
X13683095Y-12009476D01*
X13873571Y-11809476D02*
X13778333Y-11809476D01*
X13768809Y-11904714D01*
X13778333Y-11895190D01*
X13797381Y-11885667D01*
X13845000Y-11885667D01*
X13864048Y-11895190D01*
X13873571Y-11904714D01*
X13883095Y-11923762D01*
X13883095Y-11971381D01*
X13873571Y-11990428D01*
X13864048Y-11999952D01*
X13845000Y-12009476D01*
X13797381Y-12009476D01*
X13778333Y-11999952D01*
X13768809Y-11990428D01*
X14006905Y-11809476D02*
X14025952Y-11809476D01*
X14045000Y-11819000D01*
X14054524Y-11828524D01*
X14064048Y-11847571D01*
X14073571Y-11885667D01*
X14073571Y-11933286D01*
X14064048Y-11971381D01*
X14054524Y-11990428D01*
X14045000Y-11999952D01*
X14025952Y-12009476D01*
X14006905Y-12009476D01*
X13987857Y-11999952D01*
X13978333Y-11990428D01*
X13968809Y-11971381D01*
X13959286Y-11933286D01*
X13959286Y-11885667D01*
X13968809Y-11847571D01*
X13978333Y-11828524D01*
X13987857Y-11819000D01*
X14006905Y-11809476D01*
X14197381Y-11809476D02*
X14216428Y-11809476D01*
X14235476Y-11819000D01*
X14245000Y-11828524D01*
X14254524Y-11847571D01*
X14264048Y-11885667D01*
X14264048Y-11933286D01*
X14254524Y-11971381D01*
X14245000Y-11990428D01*
X14235476Y-11999952D01*
X14216428Y-12009476D01*
X14197381Y-12009476D01*
X14178333Y-11999952D01*
X14168809Y-11990428D01*
X14159286Y-11971381D01*
X14149762Y-11933286D01*
X14149762Y-11885667D01*
X14159286Y-11847571D01*
X14168809Y-11828524D01*
X14178333Y-11819000D01*
X14197381Y-11809476D01*
X14349762Y-12009476D02*
X14349762Y-11876143D01*
X14349762Y-11895190D02*
X14359286Y-11885667D01*
X14378333Y-11876143D01*
X14406905Y-11876143D01*
X14425952Y-11885667D01*
X14435476Y-11904714D01*
X14435476Y-12009476D01*
X14435476Y-11904714D02*
X14445000Y-11885667D01*
X14464048Y-11876143D01*
X14492619Y-11876143D01*
X14511667Y-11885667D01*
X14521190Y-11904714D01*
X14521190Y-12009476D01*
X14616428Y-12009476D02*
X14616428Y-11876143D01*
X14616428Y-11895190D02*
X14625952Y-11885667D01*
X14645000Y-11876143D01*
X14673571Y-11876143D01*
X14692619Y-11885667D01*
X14702143Y-11904714D01*
X14702143Y-12009476D01*
X14702143Y-11904714D02*
X14711667Y-11885667D01*
X14730714Y-11876143D01*
X14759286Y-11876143D01*
X14778333Y-11885667D01*
X14787857Y-11904714D01*
X14787857Y-12009476D01*
X15178333Y-11799952D02*
X15006905Y-12057095D01*
X15435476Y-11809476D02*
X15454524Y-11809476D01*
X15473571Y-11819000D01*
X15483095Y-11828524D01*
X15492619Y-11847571D01*
X15502143Y-11885667D01*
X15502143Y-11933286D01*
X15492619Y-11971381D01*
X15483095Y-11990428D01*
X15473571Y-11999952D01*
X15454524Y-12009476D01*
X15435476Y-12009476D01*
X15416428Y-11999952D01*
X15406905Y-11990428D01*
X15397381Y-11971381D01*
X15387857Y-11933286D01*
X15387857Y-11885667D01*
X15397381Y-11847571D01*
X15406905Y-11828524D01*
X15416428Y-11819000D01*
X15435476Y-11809476D01*
X15587857Y-11990428D02*
X15597381Y-11999952D01*
X15587857Y-12009476D01*
X15578333Y-11999952D01*
X15587857Y-11990428D01*
X15587857Y-12009476D01*
X15787857Y-12009476D02*
X15673571Y-12009476D01*
X15730714Y-12009476D02*
X15730714Y-11809476D01*
X15711667Y-11838048D01*
X15692619Y-11857095D01*
X15673571Y-11866619D01*
X15854524Y-11809476D02*
X15978333Y-11809476D01*
X15911667Y-11885667D01*
X15940238Y-11885667D01*
X15959286Y-11895190D01*
X15968809Y-11904714D01*
X15978333Y-11923762D01*
X15978333Y-11971381D01*
X15968809Y-11990428D01*
X15959286Y-11999952D01*
X15940238Y-12009476D01*
X15883095Y-12009476D01*
X15864048Y-11999952D01*
X15854524Y-11990428D01*
X16045000Y-11809476D02*
X16178333Y-11809476D01*
X16092619Y-12009476D01*
X16283095Y-11895190D02*
X16264048Y-11885667D01*
X16254524Y-11876143D01*
X16245000Y-11857095D01*
X16245000Y-11847571D01*
X16254524Y-11828524D01*
X16264048Y-11819000D01*
X16283095Y-11809476D01*
X16321190Y-11809476D01*
X16340238Y-11819000D01*
X16349762Y-11828524D01*
X16359286Y-11847571D01*
X16359286Y-11857095D01*
X16349762Y-11876143D01*
X16340238Y-11885667D01*
X16321190Y-11895190D01*
X16283095Y-11895190D01*
X16264048Y-11904714D01*
X16254524Y-11914238D01*
X16245000Y-11933286D01*
X16245000Y-11971381D01*
X16254524Y-11990428D01*
X16264048Y-11999952D01*
X16283095Y-12009476D01*
X16321190Y-12009476D01*
X16340238Y-11999952D01*
X16349762Y-11990428D01*
X16359286Y-11971381D01*
X16359286Y-11933286D01*
X16349762Y-11914238D01*
X16340238Y-11904714D01*
X16321190Y-11895190D01*
X16435476Y-11809476D02*
X16435476Y-11847571D01*
X16511667Y-11809476D02*
X16511667Y-11847571D01*
X16806905Y-12085667D02*
X16797381Y-12076143D01*
X16778333Y-12047571D01*
X16768809Y-12028524D01*
X16759286Y-11999952D01*
X16749762Y-11952333D01*
X16749762Y-11914238D01*
X16759286Y-11866619D01*
X16768809Y-11838048D01*
X16778333Y-11819000D01*
X16797381Y-11790428D01*
X16806905Y-11780905D01*
X16987857Y-12009476D02*
X16873571Y-12009476D01*
X16930714Y-12009476D02*
X16930714Y-11809476D01*
X16911667Y-11838048D01*
X16892619Y-11857095D01*
X16873571Y-11866619D01*
X17225952Y-12009476D02*
X17225952Y-11809476D01*
X17311667Y-12009476D02*
X17311667Y-11904714D01*
X17302143Y-11885667D01*
X17283095Y-11876143D01*
X17254524Y-11876143D01*
X17235476Y-11885667D01*
X17225952Y-11895190D01*
X17435476Y-12009476D02*
X17416429Y-11999952D01*
X17406905Y-11990428D01*
X17397381Y-11971381D01*
X17397381Y-11914238D01*
X17406905Y-11895190D01*
X17416429Y-11885667D01*
X17435476Y-11876143D01*
X17464048Y-11876143D01*
X17483095Y-11885667D01*
X17492619Y-11895190D01*
X17502143Y-11914238D01*
X17502143Y-11971381D01*
X17492619Y-11990428D01*
X17483095Y-11999952D01*
X17464048Y-12009476D01*
X17435476Y-12009476D01*
X17616429Y-12009476D02*
X17597381Y-11999952D01*
X17587857Y-11980905D01*
X17587857Y-11809476D01*
X17768810Y-11999952D02*
X17749762Y-12009476D01*
X17711667Y-12009476D01*
X17692619Y-11999952D01*
X17683095Y-11980905D01*
X17683095Y-11904714D01*
X17692619Y-11885667D01*
X17711667Y-11876143D01*
X17749762Y-11876143D01*
X17768810Y-11885667D01*
X17778333Y-11904714D01*
X17778333Y-11923762D01*
X17683095Y-11942809D01*
X17845000Y-12085667D02*
X17854524Y-12076143D01*
X17873571Y-12047571D01*
X17883095Y-12028524D01*
X17892619Y-11999952D01*
X17902143Y-11952333D01*
X17902143Y-11914238D01*
X17892619Y-11866619D01*
X17883095Y-11838048D01*
X17873571Y-11819000D01*
X17854524Y-11790428D01*
X17845000Y-11780905D01*
X18206905Y-12085667D02*
X18197381Y-12076143D01*
X18178333Y-12047571D01*
X18168810Y-12028524D01*
X18159286Y-11999952D01*
X18149762Y-11952333D01*
X18149762Y-11914238D01*
X18159286Y-11866619D01*
X18168810Y-11838048D01*
X18178333Y-11819000D01*
X18197381Y-11790428D01*
X18206905Y-11780905D01*
X18283095Y-11876143D02*
X18283095Y-12009476D01*
X18283095Y-11895190D02*
X18292619Y-11885667D01*
X18311667Y-11876143D01*
X18340238Y-11876143D01*
X18359286Y-11885667D01*
X18368810Y-11904714D01*
X18368810Y-12009476D01*
X18492619Y-12009476D02*
X18473571Y-11999952D01*
X18464048Y-11990428D01*
X18454524Y-11971381D01*
X18454524Y-11914238D01*
X18464048Y-11895190D01*
X18473571Y-11885667D01*
X18492619Y-11876143D01*
X18521190Y-11876143D01*
X18540238Y-11885667D01*
X18549762Y-11895190D01*
X18559286Y-11914238D01*
X18559286Y-11971381D01*
X18549762Y-11990428D01*
X18540238Y-11999952D01*
X18521190Y-12009476D01*
X18492619Y-12009476D01*
X18616429Y-11876143D02*
X18692619Y-11876143D01*
X18645000Y-11809476D02*
X18645000Y-11980905D01*
X18654524Y-11999952D01*
X18673571Y-12009476D01*
X18692619Y-12009476D01*
X18911667Y-11876143D02*
X18911667Y-12076143D01*
X18911667Y-11885667D02*
X18930714Y-11876143D01*
X18968810Y-11876143D01*
X18987857Y-11885667D01*
X18997381Y-11895190D01*
X19006905Y-11914238D01*
X19006905Y-11971381D01*
X18997381Y-11990428D01*
X18987857Y-11999952D01*
X18968810Y-12009476D01*
X18930714Y-12009476D01*
X18911667Y-11999952D01*
X19121190Y-12009476D02*
X19102143Y-11999952D01*
X19092619Y-11980905D01*
X19092619Y-11809476D01*
X19283095Y-12009476D02*
X19283095Y-11904714D01*
X19273571Y-11885667D01*
X19254524Y-11876143D01*
X19216429Y-11876143D01*
X19197381Y-11885667D01*
X19283095Y-11999952D02*
X19264048Y-12009476D01*
X19216429Y-12009476D01*
X19197381Y-11999952D01*
X19187857Y-11980905D01*
X19187857Y-11961857D01*
X19197381Y-11942809D01*
X19216429Y-11933286D01*
X19264048Y-11933286D01*
X19283095Y-11923762D01*
X19349762Y-11876143D02*
X19425952Y-11876143D01*
X19378333Y-11809476D02*
X19378333Y-11980905D01*
X19387857Y-11999952D01*
X19406905Y-12009476D01*
X19425952Y-12009476D01*
X19568810Y-11999952D02*
X19549762Y-12009476D01*
X19511667Y-12009476D01*
X19492619Y-11999952D01*
X19483095Y-11980905D01*
X19483095Y-11904714D01*
X19492619Y-11885667D01*
X19511667Y-11876143D01*
X19549762Y-11876143D01*
X19568810Y-11885667D01*
X19578333Y-11904714D01*
X19578333Y-11923762D01*
X19483095Y-11942809D01*
X19749762Y-12009476D02*
X19749762Y-11809476D01*
X19749762Y-11999952D02*
X19730714Y-12009476D01*
X19692619Y-12009476D01*
X19673571Y-11999952D01*
X19664048Y-11990428D01*
X19654524Y-11971381D01*
X19654524Y-11914238D01*
X19664048Y-11895190D01*
X19673571Y-11885667D01*
X19692619Y-11876143D01*
X19730714Y-11876143D01*
X19749762Y-11885667D01*
X19825952Y-12085667D02*
X19835476Y-12076143D01*
X19854524Y-12047571D01*
X19864048Y-12028524D01*
X19873571Y-11999952D01*
X19883095Y-11952333D01*
X19883095Y-11914238D01*
X19873571Y-11866619D01*
X19864048Y-11838048D01*
X19854524Y-11819000D01*
X19835476Y-11790428D01*
X19825952Y-11780905D01*
M02*
