%TF.GenerationSoftware,KiCad,Pcbnew,6.0.6+dfsg-1*%
%TF.CreationDate,2022-07-24T22:16:40+10:00*%
%TF.ProjectId,power-board,706f7765-722d-4626-9f61-72642e6b6963,rev?*%
%TF.SameCoordinates,Original*%
%TF.FileFunction,Copper,L2,Bot*%
%TF.FilePolarity,Positive*%
%FSLAX46Y46*%
G04 Gerber Fmt 4.6, Leading zero omitted, Abs format (unit mm)*
G04 Created by KiCad (PCBNEW 6.0.6+dfsg-1) date 2022-07-24 22:16:40*
%MOMM*%
%LPD*%
G01*
G04 APERTURE LIST*
G04 Aperture macros list*
%AMRoundRect*
0 Rectangle with rounded corners*
0 $1 Rounding radius*
0 $2 $3 $4 $5 $6 $7 $8 $9 X,Y pos of 4 corners*
0 Add a 4 corners polygon primitive as box body*
4,1,4,$2,$3,$4,$5,$6,$7,$8,$9,$2,$3,0*
0 Add four circle primitives for the rounded corners*
1,1,$1+$1,$2,$3*
1,1,$1+$1,$4,$5*
1,1,$1+$1,$6,$7*
1,1,$1+$1,$8,$9*
0 Add four rect primitives between the rounded corners*
20,1,$1+$1,$2,$3,$4,$5,0*
20,1,$1+$1,$4,$5,$6,$7,0*
20,1,$1+$1,$6,$7,$8,$9,0*
20,1,$1+$1,$8,$9,$2,$3,0*%
%AMFreePoly0*
4,1,6,1.000000,0.000000,0.500000,-0.750000,-0.500000,-0.750000,-0.500000,0.750000,0.500000,0.750000,1.000000,0.000000,1.000000,0.000000,$1*%
%AMFreePoly1*
4,1,6,0.500000,-0.750000,-0.650000,-0.750000,-0.150000,0.000000,-0.650000,0.750000,0.500000,0.750000,0.500000,-0.750000,0.500000,-0.750000,$1*%
G04 Aperture macros list end*
%TA.AperFunction,ComponentPad*%
%ADD10C,6.400000*%
%TD*%
%TA.AperFunction,ComponentPad*%
%ADD11R,1.200000X1.200000*%
%TD*%
%TA.AperFunction,ComponentPad*%
%ADD12C,1.200000*%
%TD*%
%TA.AperFunction,ComponentPad*%
%ADD13R,1.800000X1.800000*%
%TD*%
%TA.AperFunction,ComponentPad*%
%ADD14C,1.800000*%
%TD*%
%TA.AperFunction,ComponentPad*%
%ADD15R,2.200000X2.200000*%
%TD*%
%TA.AperFunction,ComponentPad*%
%ADD16O,2.200000X2.200000*%
%TD*%
%TA.AperFunction,ComponentPad*%
%ADD17C,1.600000*%
%TD*%
%TA.AperFunction,ComponentPad*%
%ADD18O,1.600000X1.600000*%
%TD*%
%TA.AperFunction,ComponentPad*%
%ADD19R,1.700000X1.700000*%
%TD*%
%TA.AperFunction,ComponentPad*%
%ADD20O,1.700000X1.700000*%
%TD*%
%TA.AperFunction,ComponentPad*%
%ADD21R,3.500000X3.500000*%
%TD*%
%TA.AperFunction,ComponentPad*%
%ADD22RoundRect,0.750000X-1.000000X0.750000X-1.000000X-0.750000X1.000000X-0.750000X1.000000X0.750000X0*%
%TD*%
%TA.AperFunction,ComponentPad*%
%ADD23RoundRect,0.875000X-0.875000X0.875000X-0.875000X-0.875000X0.875000X-0.875000X0.875000X0.875000X0*%
%TD*%
%TA.AperFunction,ComponentPad*%
%ADD24R,2.000000X1.905000*%
%TD*%
%TA.AperFunction,ComponentPad*%
%ADD25O,2.000000X1.905000*%
%TD*%
%TA.AperFunction,SMDPad,CuDef*%
%ADD26FreePoly0,180.000000*%
%TD*%
%TA.AperFunction,SMDPad,CuDef*%
%ADD27FreePoly1,180.000000*%
%TD*%
%TA.AperFunction,ViaPad*%
%ADD28C,0.800000*%
%TD*%
%TA.AperFunction,Conductor*%
%ADD29C,0.500000*%
%TD*%
G04 APERTURE END LIST*
D10*
%TO.P,H2,1*%
%TO.N,GND*%
X160600000Y-56300000D03*
%TD*%
%TO.P,H4,1*%
%TO.N,GND*%
X160600000Y-90100000D03*
%TD*%
D11*
%TO.P,C1,1*%
%TO.N,/REG_IN*%
X159805401Y-70612000D03*
D12*
%TO.P,C1,2*%
%TO.N,GND*%
X161305401Y-70612000D03*
%TD*%
D13*
%TO.P,D2,1,K*%
%TO.N,Net-(D2-Pad1)*%
X160274000Y-61874400D03*
D14*
%TO.P,D2,2,A*%
%TO.N,/REG_OUT*%
X160274000Y-64414400D03*
%TD*%
D10*
%TO.P,H3,1*%
%TO.N,GND*%
X135915400Y-90170000D03*
%TD*%
D15*
%TO.P,D1,1,K*%
%TO.N,/REG_IN*%
X151739600Y-64947800D03*
D16*
%TO.P,D1,2,A*%
%TO.N,/PWR_SW*%
X151739600Y-54787800D03*
%TD*%
D17*
%TO.P,R1,1*%
%TO.N,Net-(D2-Pad1)*%
X155346400Y-64541400D03*
D18*
%TO.P,R1,2*%
%TO.N,GND*%
X155346400Y-54381400D03*
%TD*%
D17*
%TO.P,C2,1*%
%TO.N,/REG_OUT*%
X151607200Y-67868800D03*
%TO.P,C2,2*%
%TO.N,GND*%
X154107200Y-67868800D03*
%TD*%
D19*
%TO.P,SW1,1,A*%
%TO.N,/PWR_SW*%
X135509000Y-62890400D03*
D20*
%TO.P,SW1,2,B*%
%TO.N,/PWR_RAW*%
X135509000Y-65430400D03*
%TO.P,SW1,3,C*%
%TO.N,unconnected-(SW1-Pad3)*%
X135509000Y-67970400D03*
%TD*%
D21*
%TO.P,J1,1*%
%TO.N,/PWR_RAW*%
X145008600Y-66601600D03*
D22*
%TO.P,J1,2*%
%TO.N,GND*%
X145008600Y-60601600D03*
D23*
%TO.P,J1,3*%
%TO.N,N/C*%
X140308600Y-63601600D03*
%TD*%
D19*
%TO.P,J4,1,Pin_1*%
%TO.N,GND*%
X152044400Y-91343400D03*
D20*
%TO.P,J4,2,Pin_2*%
%TO.N,/REG_OUT*%
X152044400Y-88803400D03*
%TD*%
D10*
%TO.P,H1,1*%
%TO.N,GND*%
X136000000Y-56300000D03*
%TD*%
D19*
%TO.P,J3,1,Pin_1*%
%TO.N,GND*%
X147244400Y-91343400D03*
D20*
%TO.P,J3,2,Pin_2*%
%TO.N,/REG_OUT*%
X147244400Y-88803400D03*
%TD*%
D24*
%TO.P,U1,1,IN*%
%TO.N,/REG1*%
X152960000Y-75460000D03*
D25*
%TO.P,U1,2,GND*%
%TO.N,/REG2*%
X152960000Y-78000000D03*
%TO.P,U1,3,OUT*%
%TO.N,/REG3*%
X152960000Y-80540000D03*
%TD*%
D19*
%TO.P,J2,1,Pin_1*%
%TO.N,GND*%
X142244400Y-91368400D03*
D20*
%TO.P,J2,2,Pin_2*%
%TO.N,/REG_OUT*%
X142244400Y-88828400D03*
%TD*%
D26*
%TO.P,JP6,1,A*%
%TO.N,/REG_IN*%
X156376200Y-80518000D03*
D27*
%TO.P,JP6,2,B*%
%TO.N,/REG3*%
X154926200Y-80518000D03*
%TD*%
D26*
%TO.P,JP5,1,A*%
%TO.N,/REG_OUT*%
X156362400Y-77978000D03*
D27*
%TO.P,JP5,2,B*%
%TO.N,/REG2*%
X154912400Y-77978000D03*
%TD*%
D26*
%TO.P,JP4,1,A*%
%TO.N,GND*%
X156362400Y-75488800D03*
D27*
%TO.P,JP4,2,B*%
%TO.N,/REG1*%
X154912400Y-75488800D03*
%TD*%
D28*
%TO.N,/REG_OUT*%
X156311600Y-83769200D03*
%TO.N,/REG_IN*%
X156413200Y-82194400D03*
%TD*%
D29*
%TO.N,/REG_OUT*%
X156691950Y-83769200D02*
X159653200Y-80807950D01*
X159653200Y-80807950D02*
X159653200Y-79490800D01*
X156311600Y-83769200D02*
X156691950Y-83769200D01*
X158140400Y-77978000D02*
X156362400Y-77978000D01*
X159653200Y-79490800D02*
X158140400Y-77978000D01*
%TO.N,/REG_IN*%
X156413200Y-82194400D02*
X157276800Y-82194400D01*
X158953200Y-80518000D02*
X156376200Y-80518000D01*
X157276800Y-82194400D02*
X158953200Y-80518000D01*
%TO.N,/REG1*%
X152960000Y-75460000D02*
X154883600Y-75460000D01*
X154883600Y-75460000D02*
X154912400Y-75488800D01*
%TO.N,/REG2*%
X154890400Y-78000000D02*
X154912400Y-77978000D01*
X152960000Y-78000000D02*
X154890400Y-78000000D01*
%TO.N,/REG3*%
X152960000Y-80540000D02*
X154904200Y-80540000D01*
X154904200Y-80540000D02*
X154926200Y-80518000D01*
%TD*%
%TA.AperFunction,Conductor*%
%TO.N,GND*%
G36*
X150859664Y-53228502D02*
G01*
X150906157Y-53282158D01*
X150916261Y-53352432D01*
X150886767Y-53417012D01*
X150857379Y-53441932D01*
X150791224Y-53482472D01*
X150598702Y-53646902D01*
X150434272Y-53839424D01*
X150301984Y-54055298D01*
X150300091Y-54059868D01*
X150300089Y-54059872D01*
X150229047Y-54231383D01*
X150205095Y-54289209D01*
X150203940Y-54294021D01*
X150157275Y-54488397D01*
X150145991Y-54535397D01*
X150126126Y-54787800D01*
X150145991Y-55040203D01*
X150147145Y-55045010D01*
X150147146Y-55045016D01*
X150184779Y-55201768D01*
X150205095Y-55286391D01*
X150206988Y-55290962D01*
X150206989Y-55290964D01*
X150229237Y-55344674D01*
X150301984Y-55520302D01*
X150434272Y-55736176D01*
X150598702Y-55928698D01*
X150791224Y-56093128D01*
X151007098Y-56225416D01*
X151011668Y-56227309D01*
X151011672Y-56227311D01*
X151198905Y-56304865D01*
X151241009Y-56322305D01*
X151287307Y-56333420D01*
X151482384Y-56380254D01*
X151482390Y-56380255D01*
X151487197Y-56381409D01*
X151739600Y-56401274D01*
X151992003Y-56381409D01*
X151996810Y-56380255D01*
X151996816Y-56380254D01*
X152191893Y-56333420D01*
X152238191Y-56322305D01*
X152280295Y-56304865D01*
X152467528Y-56227311D01*
X152467532Y-56227309D01*
X152472102Y-56225416D01*
X152687976Y-56093128D01*
X152880498Y-55928698D01*
X153044928Y-55736176D01*
X153177216Y-55520302D01*
X153249964Y-55344674D01*
X153272211Y-55290964D01*
X153272212Y-55290962D01*
X153274105Y-55286391D01*
X153294421Y-55201768D01*
X153332054Y-55045016D01*
X153332055Y-55045010D01*
X153333209Y-55040203D01*
X153353074Y-54787800D01*
X153333209Y-54535397D01*
X153321926Y-54488397D01*
X153275260Y-54294021D01*
X153274105Y-54289209D01*
X153250153Y-54231383D01*
X153179111Y-54059872D01*
X153179109Y-54059868D01*
X153177216Y-54055298D01*
X153044928Y-53839424D01*
X152880498Y-53646902D01*
X152687976Y-53482472D01*
X152621821Y-53441932D01*
X152574191Y-53389285D01*
X152562584Y-53319244D01*
X152590687Y-53254046D01*
X152649577Y-53214392D01*
X152687657Y-53208500D01*
X160650633Y-53208500D01*
X160670018Y-53210000D01*
X160684851Y-53212310D01*
X160684855Y-53212310D01*
X160693724Y-53213691D01*
X160712436Y-53211244D01*
X160735366Y-53210353D01*
X161006103Y-53224542D01*
X161019209Y-53225919D01*
X161196796Y-53254046D01*
X161315445Y-53272838D01*
X161328345Y-53275580D01*
X161352895Y-53282158D01*
X161618052Y-53353207D01*
X161630586Y-53357279D01*
X161910587Y-53464762D01*
X161922635Y-53470126D01*
X162189870Y-53606289D01*
X162201286Y-53612880D01*
X162452832Y-53776236D01*
X162463492Y-53783982D01*
X162537161Y-53843638D01*
X162696573Y-53972727D01*
X162706374Y-53981552D01*
X162918448Y-54193626D01*
X162927273Y-54203427D01*
X163116016Y-54436505D01*
X163123764Y-54447168D01*
X163177935Y-54530584D01*
X163287117Y-54698709D01*
X163293711Y-54710130D01*
X163429874Y-54977365D01*
X163435237Y-54989412D01*
X163454735Y-55040203D01*
X163542719Y-55269409D01*
X163546795Y-55281953D01*
X163624420Y-55571655D01*
X163627162Y-55584555D01*
X163674080Y-55880785D01*
X163675458Y-55893899D01*
X163677450Y-55931906D01*
X163689262Y-56157299D01*
X163687935Y-56183276D01*
X163687691Y-56184846D01*
X163687691Y-56184850D01*
X163686309Y-56193724D01*
X163687473Y-56202626D01*
X163687473Y-56202628D01*
X163690436Y-56225283D01*
X163691500Y-56241621D01*
X163691500Y-90150633D01*
X163690000Y-90170018D01*
X163687690Y-90184851D01*
X163687690Y-90184855D01*
X163686309Y-90193724D01*
X163688135Y-90207683D01*
X163688756Y-90212433D01*
X163689647Y-90235368D01*
X163675458Y-90506099D01*
X163674080Y-90519215D01*
X163627162Y-90815445D01*
X163624420Y-90828345D01*
X163546795Y-91118047D01*
X163542719Y-91130591D01*
X163435238Y-91410587D01*
X163429874Y-91422635D01*
X163293711Y-91689870D01*
X163287120Y-91701286D01*
X163123764Y-91952832D01*
X163116016Y-91963495D01*
X162927273Y-92196573D01*
X162918448Y-92206374D01*
X162706374Y-92418448D01*
X162696573Y-92427273D01*
X162463495Y-92616016D01*
X162452832Y-92623764D01*
X162201286Y-92787120D01*
X162189870Y-92793711D01*
X161922635Y-92929874D01*
X161910588Y-92935237D01*
X161630586Y-93042721D01*
X161618052Y-93046793D01*
X161473196Y-93085608D01*
X161328345Y-93124420D01*
X161315445Y-93127162D01*
X161234134Y-93140040D01*
X161019209Y-93174081D01*
X161006101Y-93175458D01*
X160930937Y-93179397D01*
X160742701Y-93189262D01*
X160716724Y-93187935D01*
X160715154Y-93187691D01*
X160715150Y-93187691D01*
X160706276Y-93186309D01*
X160697374Y-93187473D01*
X160697372Y-93187473D01*
X160682323Y-93189441D01*
X160674714Y-93190436D01*
X160658379Y-93191500D01*
X135949367Y-93191500D01*
X135929982Y-93190000D01*
X135915149Y-93187690D01*
X135915145Y-93187690D01*
X135906276Y-93186309D01*
X135887564Y-93188756D01*
X135864634Y-93189647D01*
X135593897Y-93175458D01*
X135580791Y-93174081D01*
X135365866Y-93140040D01*
X135284555Y-93127162D01*
X135271655Y-93124420D01*
X135126804Y-93085608D01*
X134981948Y-93046793D01*
X134969414Y-93042721D01*
X134689412Y-92935237D01*
X134677365Y-92929874D01*
X134410130Y-92793711D01*
X134398714Y-92787120D01*
X134147168Y-92623764D01*
X134136505Y-92616016D01*
X133903427Y-92427273D01*
X133893626Y-92418448D01*
X133681552Y-92206374D01*
X133672727Y-92196573D01*
X133483984Y-91963495D01*
X133476236Y-91952832D01*
X133312880Y-91701286D01*
X133306289Y-91689870D01*
X133170126Y-91422635D01*
X133164762Y-91410587D01*
X133057281Y-91130591D01*
X133053205Y-91118047D01*
X132975580Y-90828345D01*
X132972838Y-90815445D01*
X132925920Y-90519215D01*
X132924542Y-90506098D01*
X132910932Y-90246410D01*
X132912505Y-90218915D01*
X132913576Y-90212552D01*
X132913729Y-90200000D01*
X132909773Y-90172376D01*
X132908500Y-90154514D01*
X132908500Y-88795095D01*
X140881651Y-88795095D01*
X140881948Y-88800248D01*
X140881948Y-88800251D01*
X140893360Y-88998167D01*
X140894510Y-89018115D01*
X140895647Y-89023161D01*
X140895648Y-89023167D01*
X140909885Y-89086339D01*
X140943622Y-89236039D01*
X141027666Y-89443016D01*
X141144387Y-89633488D01*
X141290650Y-89802338D01*
X141462526Y-89945032D01*
X141655400Y-90057738D01*
X141660225Y-90059580D01*
X141660226Y-90059581D01*
X141733012Y-90087375D01*
X141864092Y-90137430D01*
X141869160Y-90138461D01*
X141869163Y-90138462D01*
X141976417Y-90160283D01*
X142082997Y-90181967D01*
X142088172Y-90182157D01*
X142088174Y-90182157D01*
X142301073Y-90189964D01*
X142301077Y-90189964D01*
X142306237Y-90190153D01*
X142311357Y-90189497D01*
X142311359Y-90189497D01*
X142522688Y-90162425D01*
X142522689Y-90162425D01*
X142527816Y-90161768D01*
X142543185Y-90157157D01*
X142736829Y-90099061D01*
X142736834Y-90099059D01*
X142741784Y-90097574D01*
X142942394Y-89999296D01*
X143124260Y-89869573D01*
X143282496Y-89711889D01*
X143341994Y-89629089D01*
X143409835Y-89534677D01*
X143412853Y-89530477D01*
X143427502Y-89500838D01*
X143509536Y-89334853D01*
X143509537Y-89334851D01*
X143511830Y-89330211D01*
X143576770Y-89116469D01*
X143605929Y-88894990D01*
X143607556Y-88828400D01*
X143602763Y-88770095D01*
X145881651Y-88770095D01*
X145881948Y-88775248D01*
X145881948Y-88775251D01*
X145894212Y-88987947D01*
X145894510Y-88993115D01*
X145895647Y-88998161D01*
X145895648Y-88998167D01*
X145915519Y-89086339D01*
X145943622Y-89211039D01*
X146027666Y-89418016D01*
X146144387Y-89608488D01*
X146290650Y-89777338D01*
X146462526Y-89920032D01*
X146655400Y-90032738D01*
X146864092Y-90112430D01*
X146869160Y-90113461D01*
X146869163Y-90113462D01*
X146976417Y-90135283D01*
X147082997Y-90156967D01*
X147088172Y-90157157D01*
X147088174Y-90157157D01*
X147301073Y-90164964D01*
X147301077Y-90164964D01*
X147306237Y-90165153D01*
X147311357Y-90164497D01*
X147311359Y-90164497D01*
X147522688Y-90137425D01*
X147522689Y-90137425D01*
X147527816Y-90136768D01*
X147532766Y-90135283D01*
X147736829Y-90074061D01*
X147736834Y-90074059D01*
X147741784Y-90072574D01*
X147942394Y-89974296D01*
X148124260Y-89844573D01*
X148282496Y-89686889D01*
X148318065Y-89637390D01*
X148409835Y-89509677D01*
X148412853Y-89505477D01*
X148441547Y-89447420D01*
X148509536Y-89309853D01*
X148509537Y-89309851D01*
X148511830Y-89305211D01*
X148567669Y-89121423D01*
X148575265Y-89096423D01*
X148575265Y-89096421D01*
X148576770Y-89091469D01*
X148605929Y-88869990D01*
X148607556Y-88803400D01*
X148604818Y-88770095D01*
X150681651Y-88770095D01*
X150681948Y-88775248D01*
X150681948Y-88775251D01*
X150694212Y-88987947D01*
X150694510Y-88993115D01*
X150695647Y-88998161D01*
X150695648Y-88998167D01*
X150715519Y-89086339D01*
X150743622Y-89211039D01*
X150827666Y-89418016D01*
X150944387Y-89608488D01*
X151090650Y-89777338D01*
X151262526Y-89920032D01*
X151455400Y-90032738D01*
X151664092Y-90112430D01*
X151669160Y-90113461D01*
X151669163Y-90113462D01*
X151776417Y-90135283D01*
X151882997Y-90156967D01*
X151888172Y-90157157D01*
X151888174Y-90157157D01*
X152101073Y-90164964D01*
X152101077Y-90164964D01*
X152106237Y-90165153D01*
X152111357Y-90164497D01*
X152111359Y-90164497D01*
X152322688Y-90137425D01*
X152322689Y-90137425D01*
X152327816Y-90136768D01*
X152332766Y-90135283D01*
X152536829Y-90074061D01*
X152536834Y-90074059D01*
X152541784Y-90072574D01*
X152742394Y-89974296D01*
X152924260Y-89844573D01*
X153082496Y-89686889D01*
X153118065Y-89637390D01*
X153209835Y-89509677D01*
X153212853Y-89505477D01*
X153241547Y-89447420D01*
X153309536Y-89309853D01*
X153309537Y-89309851D01*
X153311830Y-89305211D01*
X153367669Y-89121423D01*
X153375265Y-89096423D01*
X153375265Y-89096421D01*
X153376770Y-89091469D01*
X153405929Y-88869990D01*
X153407556Y-88803400D01*
X153389252Y-88580761D01*
X153334831Y-88364102D01*
X153245754Y-88159240D01*
X153143395Y-88001017D01*
X153127222Y-87976017D01*
X153127220Y-87976014D01*
X153124414Y-87971677D01*
X152974070Y-87806451D01*
X152970019Y-87803252D01*
X152970015Y-87803248D01*
X152802814Y-87671200D01*
X152802810Y-87671198D01*
X152798759Y-87667998D01*
X152603189Y-87560038D01*
X152598320Y-87558314D01*
X152598316Y-87558312D01*
X152397487Y-87487195D01*
X152397483Y-87487194D01*
X152392612Y-87485469D01*
X152387519Y-87484562D01*
X152387516Y-87484561D01*
X152177773Y-87447200D01*
X152177767Y-87447199D01*
X152172684Y-87446294D01*
X152098852Y-87445392D01*
X151954481Y-87443628D01*
X151954479Y-87443628D01*
X151949311Y-87443565D01*
X151728491Y-87477355D01*
X151516156Y-87546757D01*
X151318007Y-87649907D01*
X151313874Y-87653010D01*
X151313871Y-87653012D01*
X151260615Y-87692998D01*
X151139365Y-87784035D01*
X150985029Y-87945538D01*
X150859143Y-88130080D01*
X150765088Y-88332705D01*
X150705389Y-88547970D01*
X150681651Y-88770095D01*
X148604818Y-88770095D01*
X148589252Y-88580761D01*
X148534831Y-88364102D01*
X148445754Y-88159240D01*
X148343395Y-88001017D01*
X148327222Y-87976017D01*
X148327220Y-87976014D01*
X148324414Y-87971677D01*
X148174070Y-87806451D01*
X148170019Y-87803252D01*
X148170015Y-87803248D01*
X148002814Y-87671200D01*
X148002810Y-87671198D01*
X147998759Y-87667998D01*
X147803189Y-87560038D01*
X147798320Y-87558314D01*
X147798316Y-87558312D01*
X147597487Y-87487195D01*
X147597483Y-87487194D01*
X147592612Y-87485469D01*
X147587519Y-87484562D01*
X147587516Y-87484561D01*
X147377773Y-87447200D01*
X147377767Y-87447199D01*
X147372684Y-87446294D01*
X147298852Y-87445392D01*
X147154481Y-87443628D01*
X147154479Y-87443628D01*
X147149311Y-87443565D01*
X146928491Y-87477355D01*
X146716156Y-87546757D01*
X146518007Y-87649907D01*
X146513874Y-87653010D01*
X146513871Y-87653012D01*
X146460615Y-87692998D01*
X146339365Y-87784035D01*
X146185029Y-87945538D01*
X146059143Y-88130080D01*
X145965088Y-88332705D01*
X145905389Y-88547970D01*
X145881651Y-88770095D01*
X143602763Y-88770095D01*
X143589252Y-88605761D01*
X143534831Y-88389102D01*
X143445754Y-88184240D01*
X143324414Y-87996677D01*
X143174070Y-87831451D01*
X143170019Y-87828252D01*
X143170015Y-87828248D01*
X143002814Y-87696200D01*
X143002810Y-87696198D01*
X142998759Y-87692998D01*
X142803189Y-87585038D01*
X142798320Y-87583314D01*
X142798316Y-87583312D01*
X142597487Y-87512195D01*
X142597483Y-87512194D01*
X142592612Y-87510469D01*
X142587519Y-87509562D01*
X142587516Y-87509561D01*
X142377773Y-87472200D01*
X142377767Y-87472199D01*
X142372684Y-87471294D01*
X142298852Y-87470392D01*
X142154481Y-87468628D01*
X142154479Y-87468628D01*
X142149311Y-87468565D01*
X141928491Y-87502355D01*
X141716156Y-87571757D01*
X141518007Y-87674907D01*
X141513874Y-87678010D01*
X141513871Y-87678012D01*
X141343500Y-87805930D01*
X141339365Y-87809035D01*
X141335793Y-87812773D01*
X141208920Y-87945538D01*
X141185029Y-87970538D01*
X141059143Y-88155080D01*
X141043403Y-88188990D01*
X140976693Y-88332705D01*
X140965088Y-88357705D01*
X140905389Y-88572970D01*
X140881651Y-88795095D01*
X132908500Y-88795095D01*
X132908500Y-80642263D01*
X151450064Y-80642263D01*
X151486404Y-80879744D01*
X151516966Y-80973249D01*
X151559434Y-81103183D01*
X151559437Y-81103189D01*
X151561042Y-81108101D01*
X151563429Y-81112687D01*
X151563431Y-81112691D01*
X151654325Y-81287295D01*
X151671975Y-81321200D01*
X151816223Y-81513320D01*
X151989912Y-81679301D01*
X152188378Y-81814686D01*
X152193061Y-81816860D01*
X152193065Y-81816862D01*
X152401595Y-81913658D01*
X152401599Y-81913659D01*
X152406290Y-81915837D01*
X152637798Y-81980040D01*
X152642935Y-81980589D01*
X152830593Y-82000644D01*
X152830601Y-82000644D01*
X152833928Y-82001000D01*
X153068402Y-82001000D01*
X153070975Y-82000788D01*
X153070986Y-82000788D01*
X153171946Y-81992487D01*
X153246937Y-81986322D01*
X153479944Y-81927794D01*
X153608771Y-81871779D01*
X153695526Y-81834057D01*
X153695529Y-81834055D01*
X153700263Y-81831997D01*
X153901977Y-81701502D01*
X153905795Y-81698028D01*
X153905804Y-81698021D01*
X153940198Y-81666725D01*
X154004044Y-81635673D01*
X154074543Y-81644069D01*
X154107510Y-81664695D01*
X154141645Y-81694274D01*
X154141648Y-81694276D01*
X154148457Y-81700176D01*
X154281466Y-81760919D01*
X154426200Y-81781729D01*
X155418608Y-81781729D01*
X155486729Y-81801731D01*
X155533222Y-81855387D01*
X155543326Y-81925661D01*
X155538442Y-81946660D01*
X155519658Y-82004472D01*
X155499696Y-82194400D01*
X155519658Y-82384328D01*
X155578673Y-82565956D01*
X155674160Y-82731344D01*
X155678578Y-82736251D01*
X155678579Y-82736252D01*
X155786285Y-82855872D01*
X155817003Y-82919879D01*
X155808238Y-82990333D01*
X155766710Y-83042118D01*
X155700347Y-83090334D01*
X155572560Y-83232256D01*
X155477073Y-83397644D01*
X155418058Y-83579272D01*
X155398096Y-83769200D01*
X155418058Y-83959128D01*
X155477073Y-84140756D01*
X155572560Y-84306144D01*
X155576978Y-84311051D01*
X155576979Y-84311052D01*
X155667886Y-84412014D01*
X155700347Y-84448066D01*
X155854848Y-84560318D01*
X155860876Y-84563002D01*
X155860878Y-84563003D01*
X156023281Y-84635309D01*
X156029312Y-84637994D01*
X156122713Y-84657847D01*
X156209656Y-84676328D01*
X156209661Y-84676328D01*
X156216113Y-84677700D01*
X156407087Y-84677700D01*
X156413539Y-84676328D01*
X156413544Y-84676328D01*
X156500487Y-84657847D01*
X156593888Y-84637994D01*
X156599919Y-84635309D01*
X156762324Y-84563002D01*
X156762325Y-84563001D01*
X156768352Y-84560318D01*
X156773689Y-84556441D01*
X156773695Y-84556437D01*
X156800120Y-84537238D01*
X156841809Y-84518980D01*
X156841518Y-84518083D01*
X156842396Y-84517798D01*
X156846603Y-84516881D01*
X156849486Y-84515618D01*
X156854497Y-84514616D01*
X156860364Y-84513229D01*
X156867631Y-84512382D01*
X156936277Y-84487465D01*
X156940405Y-84486048D01*
X157002886Y-84465807D01*
X157002888Y-84465806D01*
X157009849Y-84463551D01*
X157016104Y-84459755D01*
X157021578Y-84457249D01*
X157027008Y-84454530D01*
X157033887Y-84452033D01*
X157094926Y-84412014D01*
X157098630Y-84409677D01*
X157161057Y-84371795D01*
X157169434Y-84364397D01*
X157169458Y-84364424D01*
X157172450Y-84361771D01*
X157175683Y-84359068D01*
X157181802Y-84355056D01*
X157235078Y-84298817D01*
X157237456Y-84296375D01*
X160142111Y-81391720D01*
X160156523Y-81379334D01*
X160168118Y-81370801D01*
X160168123Y-81370796D01*
X160174018Y-81366458D01*
X160178757Y-81360880D01*
X160178760Y-81360877D01*
X160208235Y-81326182D01*
X160215165Y-81318666D01*
X160220860Y-81312971D01*
X160238481Y-81290699D01*
X160241272Y-81287295D01*
X160283791Y-81237247D01*
X160283792Y-81237245D01*
X160288533Y-81231665D01*
X160291861Y-81225149D01*
X160295228Y-81220100D01*
X160298395Y-81214971D01*
X160302934Y-81209234D01*
X160333855Y-81143075D01*
X160335761Y-81139175D01*
X160368969Y-81074142D01*
X160370708Y-81067034D01*
X160372807Y-81061391D01*
X160374724Y-81055628D01*
X160377822Y-81049000D01*
X160392687Y-80977533D01*
X160393657Y-80973249D01*
X160409673Y-80907795D01*
X160411008Y-80902340D01*
X160411700Y-80891186D01*
X160411736Y-80891188D01*
X160411975Y-80887195D01*
X160412349Y-80883003D01*
X160413840Y-80875835D01*
X160411746Y-80798429D01*
X160411700Y-80795022D01*
X160411700Y-79557869D01*
X160413133Y-79538918D01*
X160415299Y-79524683D01*
X160415299Y-79524681D01*
X160416399Y-79517451D01*
X160412115Y-79464782D01*
X160411700Y-79454567D01*
X160411700Y-79446507D01*
X160408411Y-79418293D01*
X160407978Y-79413918D01*
X160402654Y-79348461D01*
X160402653Y-79348458D01*
X160402060Y-79341163D01*
X160399804Y-79334199D01*
X160398613Y-79328240D01*
X160397229Y-79322385D01*
X160396382Y-79315119D01*
X160371465Y-79246473D01*
X160370048Y-79242345D01*
X160349807Y-79179864D01*
X160349806Y-79179862D01*
X160347551Y-79172901D01*
X160343755Y-79166646D01*
X160341249Y-79161172D01*
X160338530Y-79155742D01*
X160336033Y-79148863D01*
X160331671Y-79142209D01*
X160296019Y-79087832D01*
X160293672Y-79084112D01*
X160258709Y-79026493D01*
X160258705Y-79026488D01*
X160255795Y-79021692D01*
X160248397Y-79013316D01*
X160248423Y-79013293D01*
X160245774Y-79010303D01*
X160243066Y-79007064D01*
X160239056Y-79000948D01*
X160233749Y-78995921D01*
X160233746Y-78995917D01*
X160182817Y-78947672D01*
X160180375Y-78945294D01*
X158724170Y-77489089D01*
X158711784Y-77474677D01*
X158703251Y-77463082D01*
X158703246Y-77463077D01*
X158698908Y-77457182D01*
X158693330Y-77452443D01*
X158693327Y-77452440D01*
X158658632Y-77422965D01*
X158651116Y-77416035D01*
X158645421Y-77410340D01*
X158631151Y-77399050D01*
X158623149Y-77392719D01*
X158619745Y-77389928D01*
X158569697Y-77347409D01*
X158569695Y-77347408D01*
X158564115Y-77342667D01*
X158557599Y-77339339D01*
X158552550Y-77335972D01*
X158547421Y-77332805D01*
X158541684Y-77328266D01*
X158475525Y-77297345D01*
X158471625Y-77295439D01*
X158406592Y-77262231D01*
X158399484Y-77260492D01*
X158393841Y-77258393D01*
X158388078Y-77256476D01*
X158381450Y-77253378D01*
X158309983Y-77238513D01*
X158305699Y-77237543D01*
X158234790Y-77220192D01*
X158229188Y-77219844D01*
X158229185Y-77219844D01*
X158223636Y-77219500D01*
X158223638Y-77219464D01*
X158219645Y-77219225D01*
X158215453Y-77218851D01*
X158208285Y-77217360D01*
X158142075Y-77219151D01*
X158130879Y-77219454D01*
X158127472Y-77219500D01*
X157484194Y-77219500D01*
X157416073Y-77199498D01*
X157369580Y-77145842D01*
X157363298Y-77128999D01*
X157361370Y-77122434D01*
X157329704Y-77014589D01*
X157265217Y-76914245D01*
X157255522Y-76899159D01*
X157255520Y-76899156D01*
X157250650Y-76891579D01*
X157243840Y-76885678D01*
X157146955Y-76801726D01*
X157146952Y-76801724D01*
X157140143Y-76795824D01*
X157007134Y-76735081D01*
X156862400Y-76714271D01*
X156096938Y-76714271D01*
X156028817Y-76694269D01*
X155982324Y-76640613D01*
X155972220Y-76570339D01*
X155989811Y-76521940D01*
X155993395Y-76516152D01*
X155999182Y-76509242D01*
X156057682Y-76375231D01*
X156076056Y-76230168D01*
X156052818Y-76085804D01*
X155989848Y-75953834D01*
X155726420Y-75558692D01*
X155705276Y-75490917D01*
X155726420Y-75418908D01*
X155988451Y-75025862D01*
X155988455Y-75025856D01*
X155989848Y-75023766D01*
X156029704Y-74952211D01*
X156070900Y-74811911D01*
X156070900Y-74665689D01*
X156029704Y-74525389D01*
X156004435Y-74486070D01*
X155955522Y-74409959D01*
X155955520Y-74409956D01*
X155950650Y-74402379D01*
X155936116Y-74389785D01*
X155846955Y-74312526D01*
X155846952Y-74312524D01*
X155840143Y-74306624D01*
X155707134Y-74245881D01*
X155562400Y-74225071D01*
X154446868Y-74225071D01*
X154378747Y-74205069D01*
X154346041Y-74174635D01*
X154328641Y-74151418D01*
X154323261Y-74144239D01*
X154206705Y-74056885D01*
X154070316Y-74005755D01*
X154008134Y-73999000D01*
X151911866Y-73999000D01*
X151849684Y-74005755D01*
X151713295Y-74056885D01*
X151596739Y-74144239D01*
X151509385Y-74260795D01*
X151458255Y-74397184D01*
X151451500Y-74459366D01*
X151451500Y-76460634D01*
X151458255Y-76522816D01*
X151509385Y-76659205D01*
X151596739Y-76775761D01*
X151713295Y-76863115D01*
X151733189Y-76870573D01*
X151789953Y-76913213D01*
X151814654Y-76979774D01*
X151799447Y-77049123D01*
X151787842Y-77066647D01*
X151694633Y-77184670D01*
X151694630Y-77184675D01*
X151691432Y-77188724D01*
X151688939Y-77193240D01*
X151688937Y-77193243D01*
X151578821Y-77392719D01*
X151575326Y-77399050D01*
X151573602Y-77403919D01*
X151573600Y-77403923D01*
X151568029Y-77419656D01*
X151495130Y-77625515D01*
X151452999Y-77862037D01*
X151450064Y-78102263D01*
X151486404Y-78339744D01*
X151523094Y-78451997D01*
X151559434Y-78563183D01*
X151559437Y-78563189D01*
X151561042Y-78568101D01*
X151563429Y-78572687D01*
X151563431Y-78572691D01*
X151651362Y-78741603D01*
X151671975Y-78781200D01*
X151675085Y-78785342D01*
X151796102Y-78946521D01*
X151816223Y-78973320D01*
X151857280Y-79012555D01*
X151965791Y-79116250D01*
X151989912Y-79139301D01*
X152026903Y-79164535D01*
X152071904Y-79219444D01*
X152080075Y-79289968D01*
X152048821Y-79353716D01*
X152024340Y-79374411D01*
X152022365Y-79375689D01*
X152018023Y-79378498D01*
X151840330Y-79540186D01*
X151826365Y-79557869D01*
X151694633Y-79724670D01*
X151694630Y-79724675D01*
X151691432Y-79728724D01*
X151688939Y-79733240D01*
X151688937Y-79733243D01*
X151577823Y-79934526D01*
X151575326Y-79939050D01*
X151573602Y-79943919D01*
X151573600Y-79943923D01*
X151567866Y-79960115D01*
X151495130Y-80165515D01*
X151494223Y-80170608D01*
X151494222Y-80170611D01*
X151477704Y-80263346D01*
X151452999Y-80402037D01*
X151450064Y-80642263D01*
X132908500Y-80642263D01*
X132908500Y-78000000D01*
X134036654Y-78000000D01*
X134036924Y-78004119D01*
X134043357Y-78102263D01*
X134056017Y-78295426D01*
X134056819Y-78299459D01*
X134056820Y-78299465D01*
X134110256Y-78568101D01*
X134113776Y-78585797D01*
X134115103Y-78589706D01*
X134115104Y-78589710D01*
X134166665Y-78741603D01*
X134208941Y-78866145D01*
X134216233Y-78880932D01*
X134334682Y-79121122D01*
X134339885Y-79131673D01*
X134342179Y-79135106D01*
X134479862Y-79341163D01*
X134504367Y-79377838D01*
X134507081Y-79380932D01*
X134507085Y-79380938D01*
X134666955Y-79563234D01*
X134699573Y-79600427D01*
X134702662Y-79603136D01*
X134919062Y-79792915D01*
X134919068Y-79792919D01*
X134922162Y-79795633D01*
X134925588Y-79797922D01*
X134925593Y-79797926D01*
X135109405Y-79920744D01*
X135168327Y-79960115D01*
X135172026Y-79961939D01*
X135172031Y-79961942D01*
X135308313Y-80029148D01*
X135433855Y-80091059D01*
X135437760Y-80092384D01*
X135437761Y-80092385D01*
X135710290Y-80184896D01*
X135710294Y-80184897D01*
X135714203Y-80186224D01*
X135718247Y-80187028D01*
X135718253Y-80187030D01*
X136000535Y-80243180D01*
X136000541Y-80243181D01*
X136004574Y-80243983D01*
X136008679Y-80244252D01*
X136008686Y-80244253D01*
X136295881Y-80263076D01*
X136300000Y-80263346D01*
X136304119Y-80263076D01*
X136591314Y-80244253D01*
X136591321Y-80244252D01*
X136595426Y-80243983D01*
X136599459Y-80243181D01*
X136599465Y-80243180D01*
X136881747Y-80187030D01*
X136881753Y-80187028D01*
X136885797Y-80186224D01*
X136889706Y-80184897D01*
X136889710Y-80184896D01*
X137162239Y-80092385D01*
X137162240Y-80092384D01*
X137166145Y-80091059D01*
X137291687Y-80029148D01*
X137427969Y-79961942D01*
X137427974Y-79961939D01*
X137431673Y-79960115D01*
X137490595Y-79920744D01*
X137674407Y-79797926D01*
X137674412Y-79797922D01*
X137677838Y-79795633D01*
X137680932Y-79792919D01*
X137680938Y-79792915D01*
X137897338Y-79603136D01*
X137900427Y-79600427D01*
X137933045Y-79563234D01*
X138092915Y-79380938D01*
X138092919Y-79380932D01*
X138095633Y-79377838D01*
X138120139Y-79341163D01*
X138257821Y-79135106D01*
X138260115Y-79131673D01*
X138265319Y-79121122D01*
X138383767Y-78880932D01*
X138391059Y-78866145D01*
X138433335Y-78741603D01*
X138484896Y-78589710D01*
X138484897Y-78589706D01*
X138486224Y-78585797D01*
X138489744Y-78568101D01*
X138543180Y-78299465D01*
X138543181Y-78299459D01*
X138543983Y-78295426D01*
X138556644Y-78102263D01*
X138563076Y-78004119D01*
X138563346Y-78000000D01*
X138543983Y-77704574D01*
X138527288Y-77620640D01*
X138487030Y-77418253D01*
X138487028Y-77418247D01*
X138486224Y-77414203D01*
X138482735Y-77403923D01*
X138392385Y-77137761D01*
X138392384Y-77137760D01*
X138391059Y-77133855D01*
X138289284Y-76927475D01*
X138261942Y-76872031D01*
X138261939Y-76872026D01*
X138260115Y-76868327D01*
X138201860Y-76781142D01*
X138097926Y-76625593D01*
X138097922Y-76625588D01*
X138095633Y-76622162D01*
X138092919Y-76619068D01*
X138092915Y-76619062D01*
X137903136Y-76402662D01*
X137900427Y-76399573D01*
X137862473Y-76366288D01*
X137680938Y-76207085D01*
X137680932Y-76207081D01*
X137677838Y-76204367D01*
X137674412Y-76202078D01*
X137674407Y-76202074D01*
X137435106Y-76042179D01*
X137431673Y-76039885D01*
X137427974Y-76038061D01*
X137427969Y-76038058D01*
X137249581Y-75950087D01*
X137166145Y-75908941D01*
X137162239Y-75907615D01*
X136889710Y-75815104D01*
X136889706Y-75815103D01*
X136885797Y-75813776D01*
X136881753Y-75812972D01*
X136881747Y-75812970D01*
X136599465Y-75756820D01*
X136599459Y-75756819D01*
X136595426Y-75756017D01*
X136591321Y-75755748D01*
X136591314Y-75755747D01*
X136304119Y-75736924D01*
X136300000Y-75736654D01*
X136295881Y-75736924D01*
X136008686Y-75755747D01*
X136008679Y-75755748D01*
X136004574Y-75756017D01*
X136000541Y-75756819D01*
X136000535Y-75756820D01*
X135718253Y-75812970D01*
X135718247Y-75812972D01*
X135714203Y-75813776D01*
X135710294Y-75815103D01*
X135710290Y-75815104D01*
X135437761Y-75907615D01*
X135433855Y-75908941D01*
X135350419Y-75950087D01*
X135172031Y-76038058D01*
X135172026Y-76038061D01*
X135168327Y-76039885D01*
X135164894Y-76042179D01*
X134925593Y-76202074D01*
X134925588Y-76202078D01*
X134922162Y-76204367D01*
X134919068Y-76207081D01*
X134919062Y-76207085D01*
X134737527Y-76366288D01*
X134699573Y-76399573D01*
X134696864Y-76402662D01*
X134507085Y-76619062D01*
X134507081Y-76619068D01*
X134504367Y-76622162D01*
X134502078Y-76625588D01*
X134502074Y-76625593D01*
X134398140Y-76781142D01*
X134339885Y-76868327D01*
X134338061Y-76872026D01*
X134338058Y-76872031D01*
X134310716Y-76927475D01*
X134208941Y-77133855D01*
X134207616Y-77137760D01*
X134207615Y-77137761D01*
X134117266Y-77403923D01*
X134113776Y-77414203D01*
X134112972Y-77418247D01*
X134112970Y-77418253D01*
X134072713Y-77620640D01*
X134056017Y-77704574D01*
X134036654Y-78000000D01*
X132908500Y-78000000D01*
X132908500Y-71260134D01*
X158696901Y-71260134D01*
X158703656Y-71322316D01*
X158754786Y-71458705D01*
X158842140Y-71575261D01*
X158958696Y-71662615D01*
X159095085Y-71713745D01*
X159157267Y-71720500D01*
X160453535Y-71720500D01*
X160515717Y-71713745D01*
X160652106Y-71662615D01*
X160768662Y-71575261D01*
X160856016Y-71458705D01*
X160907146Y-71322316D01*
X160913901Y-71260134D01*
X160913901Y-69963866D01*
X160907146Y-69901684D01*
X160856016Y-69765295D01*
X160768662Y-69648739D01*
X160652106Y-69561385D01*
X160515717Y-69510255D01*
X160453535Y-69503500D01*
X159157267Y-69503500D01*
X159095085Y-69510255D01*
X158958696Y-69561385D01*
X158842140Y-69648739D01*
X158754786Y-69765295D01*
X158703656Y-69901684D01*
X158696901Y-69963866D01*
X158696901Y-71260134D01*
X132908500Y-71260134D01*
X132908500Y-67937095D01*
X134146251Y-67937095D01*
X134146548Y-67942248D01*
X134146548Y-67942251D01*
X134152011Y-68036990D01*
X134159110Y-68160115D01*
X134160247Y-68165161D01*
X134160248Y-68165167D01*
X134180119Y-68253339D01*
X134208222Y-68378039D01*
X134292266Y-68585016D01*
X134408987Y-68775488D01*
X134555250Y-68944338D01*
X134727126Y-69087032D01*
X134920000Y-69199738D01*
X135128692Y-69279430D01*
X135133760Y-69280461D01*
X135133763Y-69280462D01*
X135241017Y-69302283D01*
X135347597Y-69323967D01*
X135352772Y-69324157D01*
X135352774Y-69324157D01*
X135565673Y-69331964D01*
X135565677Y-69331964D01*
X135570837Y-69332153D01*
X135575957Y-69331497D01*
X135575959Y-69331497D01*
X135787288Y-69304425D01*
X135787289Y-69304425D01*
X135792416Y-69303768D01*
X135797366Y-69302283D01*
X136001429Y-69241061D01*
X136001434Y-69241059D01*
X136006384Y-69239574D01*
X136206994Y-69141296D01*
X136388860Y-69011573D01*
X136394129Y-69006323D01*
X136540863Y-68860100D01*
X136547096Y-68853889D01*
X136581963Y-68805367D01*
X136674435Y-68676677D01*
X136677453Y-68672477D01*
X136710560Y-68605491D01*
X136774136Y-68476853D01*
X136774137Y-68476851D01*
X136776430Y-68472211D01*
X136841370Y-68258469D01*
X136870529Y-68036990D01*
X136872156Y-67970400D01*
X136853852Y-67747761D01*
X136799431Y-67531102D01*
X136710354Y-67326240D01*
X136636482Y-67212051D01*
X136591822Y-67143017D01*
X136591820Y-67143014D01*
X136589014Y-67138677D01*
X136438670Y-66973451D01*
X136434619Y-66970252D01*
X136434615Y-66970248D01*
X136267414Y-66838200D01*
X136267410Y-66838198D01*
X136263359Y-66834998D01*
X136222053Y-66812196D01*
X136172084Y-66761764D01*
X136157312Y-66692321D01*
X136182428Y-66625916D01*
X136209780Y-66599309D01*
X136278351Y-66550398D01*
X136388860Y-66471573D01*
X136547096Y-66313889D01*
X136567067Y-66286097D01*
X136674435Y-66136677D01*
X136677453Y-66132477D01*
X136697203Y-66092517D01*
X136774136Y-65936853D01*
X136774137Y-65936851D01*
X136776430Y-65932211D01*
X136823987Y-65775684D01*
X136839865Y-65723423D01*
X136839865Y-65723421D01*
X136841370Y-65718469D01*
X136870529Y-65496990D01*
X136870694Y-65490250D01*
X136872074Y-65433765D01*
X136872074Y-65433761D01*
X136872156Y-65430400D01*
X136853852Y-65207761D01*
X136799431Y-64991102D01*
X136710354Y-64786240D01*
X136609823Y-64630843D01*
X136591822Y-64603017D01*
X136591820Y-64603014D01*
X136589014Y-64598677D01*
X136585532Y-64594850D01*
X136561978Y-64568964D01*
X138050100Y-64568964D01*
X138050191Y-64570637D01*
X138050191Y-64570652D01*
X138051944Y-64603017D01*
X138053219Y-64626557D01*
X138054056Y-64630843D01*
X138087104Y-64800069D01*
X138098220Y-64856993D01*
X138181404Y-65076552D01*
X138217338Y-65137678D01*
X138280264Y-65244718D01*
X138300391Y-65278956D01*
X138451781Y-65458419D01*
X138631244Y-65609809D01*
X138833648Y-65728796D01*
X139053207Y-65811980D01*
X139058439Y-65813002D01*
X139058440Y-65813002D01*
X139270440Y-65854403D01*
X139283643Y-65856981D01*
X139288001Y-65857217D01*
X139339548Y-65860009D01*
X139339563Y-65860009D01*
X139341236Y-65860100D01*
X141275964Y-65860100D01*
X141277637Y-65860009D01*
X141277652Y-65860009D01*
X141329199Y-65857217D01*
X141333557Y-65856981D01*
X141346760Y-65854403D01*
X141558760Y-65813002D01*
X141558761Y-65813002D01*
X141563993Y-65811980D01*
X141783552Y-65728796D01*
X141985956Y-65609809D01*
X142165419Y-65458419D01*
X142316809Y-65278956D01*
X142336937Y-65244718D01*
X142399862Y-65137678D01*
X142435796Y-65076552D01*
X142506273Y-64890532D01*
X142549112Y-64833917D01*
X142615760Y-64809449D01*
X142685055Y-64824898D01*
X142734998Y-64875359D01*
X142750100Y-64935173D01*
X142750100Y-68399734D01*
X142756855Y-68461916D01*
X142807985Y-68598305D01*
X142895339Y-68714861D01*
X143011895Y-68802215D01*
X143148284Y-68853345D01*
X143210466Y-68860100D01*
X146806734Y-68860100D01*
X146868916Y-68853345D01*
X147005305Y-68802215D01*
X147121861Y-68714861D01*
X147209215Y-68598305D01*
X147260345Y-68461916D01*
X147267100Y-68399734D01*
X147267100Y-66095934D01*
X150131100Y-66095934D01*
X150137855Y-66158116D01*
X150188985Y-66294505D01*
X150276339Y-66411061D01*
X150392895Y-66498415D01*
X150529284Y-66549545D01*
X150591466Y-66556300D01*
X150800723Y-66556300D01*
X150868844Y-66576302D01*
X150915337Y-66629958D01*
X150925441Y-66700232D01*
X150895947Y-66764812D01*
X150872994Y-66785513D01*
X150767411Y-66859443D01*
X150767408Y-66859445D01*
X150762900Y-66862602D01*
X150601002Y-67024500D01*
X150469677Y-67212051D01*
X150467354Y-67217033D01*
X150467351Y-67217038D01*
X150416430Y-67326240D01*
X150372916Y-67419557D01*
X150371494Y-67424865D01*
X150371493Y-67424867D01*
X150343027Y-67531102D01*
X150313657Y-67640713D01*
X150293702Y-67868800D01*
X150313657Y-68096887D01*
X150315081Y-68102200D01*
X150315081Y-68102202D01*
X150358281Y-68263423D01*
X150372916Y-68318043D01*
X150375239Y-68323024D01*
X150375239Y-68323025D01*
X150467351Y-68520562D01*
X150467354Y-68520567D01*
X150469677Y-68525549D01*
X150525653Y-68605491D01*
X150597208Y-68707681D01*
X150601002Y-68713100D01*
X150762900Y-68874998D01*
X150767408Y-68878155D01*
X150767411Y-68878157D01*
X150845589Y-68932898D01*
X150950451Y-69006323D01*
X150955433Y-69008646D01*
X150955438Y-69008649D01*
X151123533Y-69087032D01*
X151157957Y-69103084D01*
X151163265Y-69104506D01*
X151163267Y-69104507D01*
X151373798Y-69160919D01*
X151373800Y-69160919D01*
X151379113Y-69162343D01*
X151607200Y-69182298D01*
X151835287Y-69162343D01*
X151840600Y-69160919D01*
X151840602Y-69160919D01*
X152051133Y-69104507D01*
X152051135Y-69104506D01*
X152056443Y-69103084D01*
X152090867Y-69087032D01*
X152258962Y-69008649D01*
X152258967Y-69008646D01*
X152263949Y-69006323D01*
X152368811Y-68932898D01*
X152446989Y-68878157D01*
X152446992Y-68878155D01*
X152451500Y-68874998D01*
X152613398Y-68713100D01*
X152617193Y-68707681D01*
X152688747Y-68605491D01*
X152744723Y-68525549D01*
X152747046Y-68520567D01*
X152747049Y-68520562D01*
X152839161Y-68323025D01*
X152839161Y-68323024D01*
X152841484Y-68318043D01*
X152856120Y-68263423D01*
X152899319Y-68102202D01*
X152899319Y-68102200D01*
X152900743Y-68096887D01*
X152920698Y-67868800D01*
X152900743Y-67640713D01*
X152871373Y-67531102D01*
X152842907Y-67424867D01*
X152842906Y-67424865D01*
X152841484Y-67419557D01*
X152797970Y-67326240D01*
X152747049Y-67217038D01*
X152747046Y-67217033D01*
X152744723Y-67212051D01*
X152613398Y-67024500D01*
X152451500Y-66862602D01*
X152446992Y-66859445D01*
X152446989Y-66859443D01*
X152341406Y-66785513D01*
X152297078Y-66730056D01*
X152289769Y-66659436D01*
X152321800Y-66596076D01*
X152383001Y-66560091D01*
X152413677Y-66556300D01*
X152887734Y-66556300D01*
X152949916Y-66549545D01*
X153086305Y-66498415D01*
X153202861Y-66411061D01*
X153290215Y-66294505D01*
X153341345Y-66158116D01*
X153348100Y-66095934D01*
X153348100Y-64541400D01*
X154032902Y-64541400D01*
X154052857Y-64769487D01*
X154054281Y-64774800D01*
X154054281Y-64774802D01*
X154097121Y-64934680D01*
X154112116Y-64990643D01*
X154114439Y-64995624D01*
X154114439Y-64995625D01*
X154206551Y-65193162D01*
X154206554Y-65193167D01*
X154208877Y-65198149D01*
X154340202Y-65385700D01*
X154502100Y-65547598D01*
X154506608Y-65550755D01*
X154506611Y-65550757D01*
X154584789Y-65605498D01*
X154689651Y-65678923D01*
X154694633Y-65681246D01*
X154694638Y-65681249D01*
X154802980Y-65731769D01*
X154897157Y-65775684D01*
X154902465Y-65777106D01*
X154902467Y-65777107D01*
X155112998Y-65833519D01*
X155113000Y-65833519D01*
X155118313Y-65834943D01*
X155346400Y-65854898D01*
X155574487Y-65834943D01*
X155579800Y-65833519D01*
X155579802Y-65833519D01*
X155790333Y-65777107D01*
X155790335Y-65777106D01*
X155795643Y-65775684D01*
X155889820Y-65731769D01*
X155998162Y-65681249D01*
X155998167Y-65681246D01*
X156003149Y-65678923D01*
X156108011Y-65605498D01*
X156186189Y-65550757D01*
X156186192Y-65550755D01*
X156190700Y-65547598D01*
X156352598Y-65385700D01*
X156483923Y-65198149D01*
X156486246Y-65193167D01*
X156486249Y-65193162D01*
X156578361Y-64995625D01*
X156578361Y-64995624D01*
X156580684Y-64990643D01*
X156595680Y-64934680D01*
X156638519Y-64774802D01*
X156638519Y-64774800D01*
X156639943Y-64769487D01*
X156659898Y-64541400D01*
X156645766Y-64379869D01*
X158861095Y-64379869D01*
X158861392Y-64385022D01*
X158861392Y-64385025D01*
X158867039Y-64482958D01*
X158874427Y-64611097D01*
X158875564Y-64616143D01*
X158875565Y-64616149D01*
X158903766Y-64741284D01*
X158925346Y-64837042D01*
X158927288Y-64841824D01*
X158927289Y-64841828D01*
X158985975Y-64986354D01*
X159012484Y-65051637D01*
X159133501Y-65249119D01*
X159285147Y-65424184D01*
X159463349Y-65572130D01*
X159663322Y-65688984D01*
X159879694Y-65771609D01*
X159884760Y-65772640D01*
X159884761Y-65772640D01*
X159888305Y-65773361D01*
X160106656Y-65817785D01*
X160237324Y-65822576D01*
X160332949Y-65826083D01*
X160332953Y-65826083D01*
X160338113Y-65826272D01*
X160343233Y-65825616D01*
X160343235Y-65825616D01*
X160441700Y-65813002D01*
X160567847Y-65796842D01*
X160572795Y-65795357D01*
X160572802Y-65795356D01*
X160784747Y-65731769D01*
X160789690Y-65730286D01*
X160798249Y-65726093D01*
X160993049Y-65630662D01*
X160993052Y-65630660D01*
X160997684Y-65628391D01*
X161186243Y-65493894D01*
X161350303Y-65330405D01*
X161485458Y-65142317D01*
X161532641Y-65046850D01*
X161585784Y-64939322D01*
X161585785Y-64939320D01*
X161588078Y-64934680D01*
X161655408Y-64713071D01*
X161685640Y-64483441D01*
X161686778Y-64436888D01*
X161687245Y-64417765D01*
X161687245Y-64417761D01*
X161687327Y-64414400D01*
X161676023Y-64276907D01*
X161668773Y-64188718D01*
X161668772Y-64188712D01*
X161668349Y-64183567D01*
X161640137Y-64071250D01*
X161613184Y-63963944D01*
X161613183Y-63963940D01*
X161611925Y-63958933D01*
X161609866Y-63954197D01*
X161521630Y-63751268D01*
X161521628Y-63751265D01*
X161519570Y-63746531D01*
X161393764Y-63552065D01*
X161378420Y-63535202D01*
X161303848Y-63453248D01*
X161272796Y-63389402D01*
X161281192Y-63318904D01*
X161326369Y-63264136D01*
X161352812Y-63250467D01*
X161412297Y-63228167D01*
X161420705Y-63225015D01*
X161537261Y-63137661D01*
X161624615Y-63021105D01*
X161675745Y-62884716D01*
X161682500Y-62822534D01*
X161682500Y-60926266D01*
X161675745Y-60864084D01*
X161624615Y-60727695D01*
X161537261Y-60611139D01*
X161420705Y-60523785D01*
X161284316Y-60472655D01*
X161222134Y-60465900D01*
X159325866Y-60465900D01*
X159263684Y-60472655D01*
X159127295Y-60523785D01*
X159010739Y-60611139D01*
X158923385Y-60727695D01*
X158872255Y-60864084D01*
X158865500Y-60926266D01*
X158865500Y-62822534D01*
X158872255Y-62884716D01*
X158923385Y-63021105D01*
X159010739Y-63137661D01*
X159127295Y-63225015D01*
X159135704Y-63228167D01*
X159135705Y-63228168D01*
X159195164Y-63250458D01*
X159251929Y-63293099D01*
X159276629Y-63359661D01*
X159261422Y-63429009D01*
X159242029Y-63455491D01*
X159175639Y-63524964D01*
X159172725Y-63529236D01*
X159172724Y-63529237D01*
X159157152Y-63552065D01*
X159045119Y-63716299D01*
X158947602Y-63926381D01*
X158885707Y-64149569D01*
X158861095Y-64379869D01*
X156645766Y-64379869D01*
X156639943Y-64313313D01*
X156637057Y-64302543D01*
X156582107Y-64097467D01*
X156582106Y-64097465D01*
X156580684Y-64092157D01*
X156501200Y-63921701D01*
X156486249Y-63889638D01*
X156486246Y-63889633D01*
X156483923Y-63884651D01*
X156380875Y-63737484D01*
X156355757Y-63701611D01*
X156355755Y-63701608D01*
X156352598Y-63697100D01*
X156190700Y-63535202D01*
X156186192Y-63532045D01*
X156186189Y-63532043D01*
X156039041Y-63429009D01*
X156003149Y-63403877D01*
X155998167Y-63401554D01*
X155998162Y-63401551D01*
X155800625Y-63309439D01*
X155800624Y-63309439D01*
X155795643Y-63307116D01*
X155790335Y-63305694D01*
X155790333Y-63305693D01*
X155579802Y-63249281D01*
X155579800Y-63249281D01*
X155574487Y-63247857D01*
X155346400Y-63227902D01*
X155118313Y-63247857D01*
X155113000Y-63249281D01*
X155112998Y-63249281D01*
X154902467Y-63305693D01*
X154902465Y-63305694D01*
X154897157Y-63307116D01*
X154892176Y-63309439D01*
X154892175Y-63309439D01*
X154694638Y-63401551D01*
X154694633Y-63401554D01*
X154689651Y-63403877D01*
X154653759Y-63429009D01*
X154506611Y-63532043D01*
X154506608Y-63532045D01*
X154502100Y-63535202D01*
X154340202Y-63697100D01*
X154337045Y-63701608D01*
X154337043Y-63701611D01*
X154311925Y-63737484D01*
X154208877Y-63884651D01*
X154206554Y-63889633D01*
X154206551Y-63889638D01*
X154191600Y-63921701D01*
X154112116Y-64092157D01*
X154110694Y-64097465D01*
X154110693Y-64097467D01*
X154055743Y-64302543D01*
X154052857Y-64313313D01*
X154032902Y-64541400D01*
X153348100Y-64541400D01*
X153348100Y-63799666D01*
X153341345Y-63737484D01*
X153290215Y-63601095D01*
X153202861Y-63484539D01*
X153086305Y-63397185D01*
X152949916Y-63346055D01*
X152887734Y-63339300D01*
X150591466Y-63339300D01*
X150529284Y-63346055D01*
X150392895Y-63397185D01*
X150276339Y-63484539D01*
X150188985Y-63601095D01*
X150137855Y-63737484D01*
X150131100Y-63799666D01*
X150131100Y-66095934D01*
X147267100Y-66095934D01*
X147267100Y-64803466D01*
X147260345Y-64741284D01*
X147209215Y-64604895D01*
X147121861Y-64488339D01*
X147005305Y-64400985D01*
X146868916Y-64349855D01*
X146806734Y-64343100D01*
X143210466Y-64343100D01*
X143148284Y-64349855D01*
X143011895Y-64400985D01*
X142895339Y-64488339D01*
X142807985Y-64604895D01*
X142804836Y-64613296D01*
X142803619Y-64615518D01*
X142753360Y-64665664D01*
X142683969Y-64680677D01*
X142617477Y-64655791D01*
X142574995Y-64598907D01*
X142567100Y-64555008D01*
X142567100Y-62634236D01*
X142563981Y-62576643D01*
X142518980Y-62346207D01*
X142435796Y-62126648D01*
X142354800Y-61988869D01*
X142319517Y-61928850D01*
X142319515Y-61928848D01*
X142316809Y-61924244D01*
X142165419Y-61744781D01*
X141985956Y-61593391D01*
X141974461Y-61586633D01*
X141918064Y-61553479D01*
X141783552Y-61474404D01*
X141563993Y-61391220D01*
X141333557Y-61346219D01*
X141327827Y-61345909D01*
X141277652Y-61343191D01*
X141277637Y-61343191D01*
X141275964Y-61343100D01*
X139341236Y-61343100D01*
X139339563Y-61343191D01*
X139339548Y-61343191D01*
X139289373Y-61345909D01*
X139283643Y-61346219D01*
X139053207Y-61391220D01*
X138833648Y-61474404D01*
X138699136Y-61553479D01*
X138642740Y-61586633D01*
X138631244Y-61593391D01*
X138451781Y-61744781D01*
X138300391Y-61924244D01*
X138297685Y-61928848D01*
X138297683Y-61928850D01*
X138262400Y-61988869D01*
X138181404Y-62126648D01*
X138098220Y-62346207D01*
X138053219Y-62576643D01*
X138050100Y-62634236D01*
X138050100Y-64568964D01*
X136561978Y-64568964D01*
X136441798Y-64436888D01*
X136410746Y-64373042D01*
X136419141Y-64302543D01*
X136464317Y-64247775D01*
X136490761Y-64234106D01*
X136597297Y-64194167D01*
X136605705Y-64191015D01*
X136722261Y-64103661D01*
X136809615Y-63987105D01*
X136860745Y-63850716D01*
X136867500Y-63788534D01*
X136867500Y-61992266D01*
X136860745Y-61930084D01*
X136809615Y-61793695D01*
X136722261Y-61677139D01*
X136605705Y-61589785D01*
X136469316Y-61538655D01*
X136407134Y-61531900D01*
X134610866Y-61531900D01*
X134548684Y-61538655D01*
X134412295Y-61589785D01*
X134295739Y-61677139D01*
X134208385Y-61793695D01*
X134157255Y-61930084D01*
X134150500Y-61992266D01*
X134150500Y-63788534D01*
X134157255Y-63850716D01*
X134208385Y-63987105D01*
X134295739Y-64103661D01*
X134412295Y-64191015D01*
X134420704Y-64194167D01*
X134420705Y-64194168D01*
X134529451Y-64234935D01*
X134586216Y-64277576D01*
X134610916Y-64344138D01*
X134595709Y-64413487D01*
X134576316Y-64439968D01*
X134530092Y-64488339D01*
X134449629Y-64572538D01*
X134446715Y-64576810D01*
X134446714Y-64576811D01*
X134412780Y-64626557D01*
X134323743Y-64757080D01*
X134229688Y-64959705D01*
X134169989Y-65174970D01*
X134146251Y-65397095D01*
X134146548Y-65402248D01*
X134146548Y-65402251D01*
X134151832Y-65493894D01*
X134159110Y-65620115D01*
X134160247Y-65625161D01*
X134160248Y-65625167D01*
X134183427Y-65728016D01*
X134208222Y-65838039D01*
X134292266Y-66045016D01*
X134325550Y-66099331D01*
X134361574Y-66158116D01*
X134408987Y-66235488D01*
X134555250Y-66404338D01*
X134727126Y-66547032D01*
X134777216Y-66576302D01*
X134800445Y-66589876D01*
X134849169Y-66641514D01*
X134862240Y-66711297D01*
X134835509Y-66777069D01*
X134795055Y-66810427D01*
X134782607Y-66816907D01*
X134778474Y-66820010D01*
X134778471Y-66820012D01*
X134608100Y-66947930D01*
X134603965Y-66951035D01*
X134449629Y-67112538D01*
X134323743Y-67297080D01*
X134229688Y-67499705D01*
X134169989Y-67714970D01*
X134146251Y-67937095D01*
X132908500Y-67937095D01*
X132908500Y-56353250D01*
X132910246Y-56332345D01*
X132912770Y-56317344D01*
X132912770Y-56317341D01*
X132913576Y-56312552D01*
X132913729Y-56300000D01*
X132913039Y-56295180D01*
X132911644Y-56285437D01*
X132910545Y-56260983D01*
X132925090Y-55983451D01*
X132926468Y-55970334D01*
X132933063Y-55928698D01*
X132975024Y-55663763D01*
X132977766Y-55650863D01*
X133058101Y-55351048D01*
X133062177Y-55338505D01*
X133173406Y-55048743D01*
X133178770Y-55036694D01*
X133319686Y-54760130D01*
X133326281Y-54748708D01*
X133495330Y-54488397D01*
X133503082Y-54477728D01*
X133698413Y-54236514D01*
X133707238Y-54226713D01*
X133926713Y-54007238D01*
X133936514Y-53998413D01*
X134177728Y-53803082D01*
X134188397Y-53795330D01*
X134448708Y-53626281D01*
X134460130Y-53619686D01*
X134736694Y-53478770D01*
X134748743Y-53473406D01*
X135038505Y-53362177D01*
X135051048Y-53358101D01*
X135054109Y-53357281D01*
X135350863Y-53277766D01*
X135363763Y-53275024D01*
X135496213Y-53254046D01*
X135670337Y-53226468D01*
X135683448Y-53225090D01*
X135738957Y-53222181D01*
X135957299Y-53210738D01*
X135983276Y-53212065D01*
X135984846Y-53212309D01*
X135984850Y-53212309D01*
X135993724Y-53213691D01*
X136002626Y-53212527D01*
X136002628Y-53212527D01*
X136017677Y-53210559D01*
X136025286Y-53209564D01*
X136041621Y-53208500D01*
X150791543Y-53208500D01*
X150859664Y-53228502D01*
G37*
%TD.AperFunction*%
%TD*%
M02*
