%TF.GenerationSoftware,KiCad,Pcbnew,6.0.6+dfsg-1*%
%TF.CreationDate,2022-07-24T22:16:40+10:00*%
%TF.ProjectId,power-board,706f7765-722d-4626-9f61-72642e6b6963,rev?*%
%TF.SameCoordinates,Original*%
%TF.FileFunction,Legend,Top*%
%TF.FilePolarity,Positive*%
%FSLAX46Y46*%
G04 Gerber Fmt 4.6, Leading zero omitted, Abs format (unit mm)*
G04 Created by KiCad (PCBNEW 6.0.6+dfsg-1) date 2022-07-24 22:16:40*
%MOMM*%
%LPD*%
G01*
G04 APERTURE LIST*
G04 Aperture macros list*
%AMRoundRect*
0 Rectangle with rounded corners*
0 $1 Rounding radius*
0 $2 $3 $4 $5 $6 $7 $8 $9 X,Y pos of 4 corners*
0 Add a 4 corners polygon primitive as box body*
4,1,4,$2,$3,$4,$5,$6,$7,$8,$9,$2,$3,0*
0 Add four circle primitives for the rounded corners*
1,1,$1+$1,$2,$3*
1,1,$1+$1,$4,$5*
1,1,$1+$1,$6,$7*
1,1,$1+$1,$8,$9*
0 Add four rect primitives between the rounded corners*
20,1,$1+$1,$2,$3,$4,$5,0*
20,1,$1+$1,$4,$5,$6,$7,0*
20,1,$1+$1,$6,$7,$8,$9,0*
20,1,$1+$1,$8,$9,$2,$3,0*%
%AMFreePoly0*
4,1,6,1.000000,0.000000,0.500000,-0.750000,-0.500000,-0.750000,-0.500000,0.750000,0.500000,0.750000,1.000000,0.000000,1.000000,0.000000,$1*%
%AMFreePoly1*
4,1,6,0.500000,-0.750000,-0.650000,-0.750000,-0.150000,0.000000,-0.650000,0.750000,0.500000,0.750000,0.500000,-0.750000,0.500000,-0.750000,$1*%
G04 Aperture macros list end*
%ADD10C,0.150000*%
%ADD11C,0.130000*%
%ADD12C,0.100000*%
%ADD13C,0.120000*%
%ADD14C,0.500000*%
%ADD15C,6.400000*%
%ADD16R,1.200000X1.200000*%
%ADD17C,1.200000*%
%ADD18FreePoly0,180.000000*%
%ADD19FreePoly1,180.000000*%
%ADD20R,1.800000X1.800000*%
%ADD21C,1.800000*%
%ADD22R,2.200000X2.200000*%
%ADD23O,2.200000X2.200000*%
%ADD24C,1.600000*%
%ADD25O,1.600000X1.600000*%
%ADD26R,1.700000X1.700000*%
%ADD27O,1.700000X1.700000*%
%ADD28R,3.500000X3.500000*%
%ADD29RoundRect,0.750000X-1.000000X0.750000X-1.000000X-0.750000X1.000000X-0.750000X1.000000X0.750000X0*%
%ADD30RoundRect,0.875000X-0.875000X0.875000X-0.875000X-0.875000X0.875000X-0.875000X0.875000X0.875000X0*%
%ADD31O,3.500000X3.500000*%
%ADD32R,2.000000X1.905000*%
%ADD33O,2.000000X1.905000*%
G04 APERTURE END LIST*
D10*
X157429200Y-85394800D02*
X163322000Y-85394800D01*
X163322000Y-85394800D02*
X163322000Y-74879200D01*
X163322000Y-74879200D02*
X157429200Y-74879200D01*
X157429200Y-74879200D02*
X157429200Y-85394800D01*
G36*
X157429200Y-85394800D02*
G01*
X163322000Y-85394800D01*
X163322000Y-74879200D01*
X157429200Y-74879200D01*
X157429200Y-85394800D01*
G37*
D11*
X136437028Y-83775580D02*
X136360838Y-83737485D01*
X136208457Y-83737485D01*
X136132266Y-83775580D01*
X136056076Y-83851771D01*
X136017980Y-83927961D01*
X136017980Y-84080342D01*
X136056076Y-84156533D01*
X136132266Y-84232723D01*
X136208457Y-84270819D01*
X136360838Y-84270819D01*
X136437028Y-84232723D01*
X136284647Y-83470819D02*
X136094171Y-83508914D01*
X135903695Y-83623200D01*
X135789409Y-83813676D01*
X135751314Y-84004152D01*
X135789409Y-84194628D01*
X135903695Y-84385104D01*
X136094171Y-84499390D01*
X136284647Y-84537485D01*
X136475123Y-84499390D01*
X136665600Y-84385104D01*
X136779885Y-84194628D01*
X136817980Y-84004152D01*
X136779885Y-83813676D01*
X136665600Y-83623200D01*
X136475123Y-83508914D01*
X136284647Y-83470819D01*
X137732266Y-83661295D02*
X137770361Y-83623200D01*
X137846552Y-83585104D01*
X138037028Y-83585104D01*
X138113219Y-83623200D01*
X138151314Y-83661295D01*
X138189409Y-83737485D01*
X138189409Y-83813676D01*
X138151314Y-83927961D01*
X137694171Y-84385104D01*
X138189409Y-84385104D01*
X138684647Y-83585104D02*
X138760838Y-83585104D01*
X138837028Y-83623200D01*
X138875123Y-83661295D01*
X138913219Y-83737485D01*
X138951314Y-83889866D01*
X138951314Y-84080342D01*
X138913219Y-84232723D01*
X138875123Y-84308914D01*
X138837028Y-84347009D01*
X138760838Y-84385104D01*
X138684647Y-84385104D01*
X138608457Y-84347009D01*
X138570361Y-84308914D01*
X138532266Y-84232723D01*
X138494171Y-84080342D01*
X138494171Y-83889866D01*
X138532266Y-83737485D01*
X138570361Y-83661295D01*
X138608457Y-83623200D01*
X138684647Y-83585104D01*
X139256076Y-83661295D02*
X139294171Y-83623200D01*
X139370361Y-83585104D01*
X139560838Y-83585104D01*
X139637028Y-83623200D01*
X139675123Y-83661295D01*
X139713219Y-83737485D01*
X139713219Y-83813676D01*
X139675123Y-83927961D01*
X139217980Y-84385104D01*
X139713219Y-84385104D01*
X140017980Y-83661295D02*
X140056076Y-83623200D01*
X140132266Y-83585104D01*
X140322742Y-83585104D01*
X140398933Y-83623200D01*
X140437028Y-83661295D01*
X140475123Y-83737485D01*
X140475123Y-83813676D01*
X140437028Y-83927961D01*
X139979885Y-84385104D01*
X140475123Y-84385104D01*
X141427504Y-84385104D02*
X141427504Y-83585104D01*
X141694171Y-84156533D01*
X141960838Y-83585104D01*
X141960838Y-84385104D01*
X142341790Y-84385104D02*
X142341790Y-83851771D01*
X142341790Y-83585104D02*
X142303695Y-83623200D01*
X142341790Y-83661295D01*
X142379885Y-83623200D01*
X142341790Y-83585104D01*
X142341790Y-83661295D01*
X143065600Y-84347009D02*
X142989409Y-84385104D01*
X142837028Y-84385104D01*
X142760838Y-84347009D01*
X142722742Y-84308914D01*
X142684647Y-84232723D01*
X142684647Y-84004152D01*
X142722742Y-83927961D01*
X142760838Y-83889866D01*
X142837028Y-83851771D01*
X142989409Y-83851771D01*
X143065600Y-83889866D01*
X143408457Y-84385104D02*
X143408457Y-83585104D01*
X143751314Y-84385104D02*
X143751314Y-83966057D01*
X143713219Y-83889866D01*
X143637028Y-83851771D01*
X143522742Y-83851771D01*
X143446552Y-83889866D01*
X143408457Y-83927961D01*
X144475123Y-84385104D02*
X144475123Y-83966057D01*
X144437028Y-83889866D01*
X144360838Y-83851771D01*
X144208457Y-83851771D01*
X144132266Y-83889866D01*
X144475123Y-84347009D02*
X144398933Y-84385104D01*
X144208457Y-84385104D01*
X144132266Y-84347009D01*
X144094171Y-84270819D01*
X144094171Y-84194628D01*
X144132266Y-84118438D01*
X144208457Y-84080342D01*
X144398933Y-84080342D01*
X144475123Y-84042247D01*
X145160838Y-84347009D02*
X145084647Y-84385104D01*
X144932266Y-84385104D01*
X144856076Y-84347009D01*
X144817980Y-84270819D01*
X144817980Y-83966057D01*
X144856076Y-83889866D01*
X144932266Y-83851771D01*
X145084647Y-83851771D01*
X145160838Y-83889866D01*
X145198933Y-83966057D01*
X145198933Y-84042247D01*
X144817980Y-84118438D01*
X145656076Y-84385104D02*
X145579885Y-84347009D01*
X145541790Y-84270819D01*
X145541790Y-83585104D01*
X146837028Y-83966057D02*
X146951314Y-84004152D01*
X146989409Y-84042247D01*
X147027504Y-84118438D01*
X147027504Y-84232723D01*
X146989409Y-84308914D01*
X146951314Y-84347009D01*
X146875123Y-84385104D01*
X146570361Y-84385104D01*
X146570361Y-83585104D01*
X146837028Y-83585104D01*
X146913219Y-83623200D01*
X146951314Y-83661295D01*
X146989409Y-83737485D01*
X146989409Y-83813676D01*
X146951314Y-83889866D01*
X146913219Y-83927961D01*
X146837028Y-83966057D01*
X146570361Y-83966057D01*
X147370361Y-84385104D02*
X147370361Y-83851771D01*
X147370361Y-83585104D02*
X147332266Y-83623200D01*
X147370361Y-83661295D01*
X147408457Y-83623200D01*
X147370361Y-83585104D01*
X147370361Y-83661295D01*
X147865600Y-84385104D02*
X147789409Y-84347009D01*
X147751314Y-84270819D01*
X147751314Y-83585104D01*
X148284647Y-84385104D02*
X148208457Y-84347009D01*
X148170361Y-84270819D01*
X148170361Y-83585104D01*
X148589409Y-84385104D02*
X148589409Y-83851771D01*
X148589409Y-83585104D02*
X148551314Y-83623200D01*
X148589409Y-83661295D01*
X148627504Y-83623200D01*
X148589409Y-83585104D01*
X148589409Y-83661295D01*
X148970361Y-83851771D02*
X148970361Y-84385104D01*
X148970361Y-83927961D02*
X149008457Y-83889866D01*
X149084647Y-83851771D01*
X149198933Y-83851771D01*
X149275123Y-83889866D01*
X149313219Y-83966057D01*
X149313219Y-84385104D01*
X150037028Y-83851771D02*
X150037028Y-84499390D01*
X149998933Y-84575580D01*
X149960838Y-84613676D01*
X149884647Y-84651771D01*
X149770361Y-84651771D01*
X149694171Y-84613676D01*
X150037028Y-84347009D02*
X149960838Y-84385104D01*
X149808457Y-84385104D01*
X149732266Y-84347009D01*
X149694171Y-84308914D01*
X149656076Y-84232723D01*
X149656076Y-84004152D01*
X149694171Y-83927961D01*
X149732266Y-83889866D01*
X149808457Y-83851771D01*
X149960838Y-83851771D01*
X150037028Y-83889866D01*
X150303695Y-83851771D02*
X150608457Y-83851771D01*
X150417980Y-83585104D02*
X150417980Y-84270819D01*
X150456076Y-84347009D01*
X150532266Y-84385104D01*
X150608457Y-84385104D01*
X150989409Y-84385104D02*
X150913219Y-84347009D01*
X150875123Y-84308914D01*
X150837028Y-84232723D01*
X150837028Y-84004152D01*
X150875123Y-83927961D01*
X150913219Y-83889866D01*
X150989409Y-83851771D01*
X151103695Y-83851771D01*
X151179885Y-83889866D01*
X151217980Y-83927961D01*
X151256076Y-84004152D01*
X151256076Y-84232723D01*
X151217980Y-84308914D01*
X151179885Y-84347009D01*
X151103695Y-84385104D01*
X150989409Y-84385104D01*
X151598933Y-83851771D02*
X151598933Y-84385104D01*
X151598933Y-83927961D02*
X151637028Y-83889866D01*
X151713219Y-83851771D01*
X151827504Y-83851771D01*
X151903695Y-83889866D01*
X151941790Y-83966057D01*
X151941790Y-84385104D01*
D10*
X154559047Y-91308228D02*
X155320952Y-91308228D01*
X154559047Y-88869828D02*
X155320952Y-88869828D01*
X154940000Y-89250780D02*
X154940000Y-88488876D01*
D11*
X141605047Y-69565828D02*
X142366952Y-69565828D01*
X134824304Y-72205809D02*
X134938590Y-72243904D01*
X135129066Y-72243904D01*
X135205257Y-72205809D01*
X135243352Y-72167714D01*
X135281447Y-72091523D01*
X135281447Y-72015333D01*
X135243352Y-71939142D01*
X135205257Y-71901047D01*
X135129066Y-71862952D01*
X134976685Y-71824857D01*
X134900495Y-71786761D01*
X134862400Y-71748666D01*
X134824304Y-71672476D01*
X134824304Y-71596285D01*
X134862400Y-71520095D01*
X134900495Y-71482000D01*
X134976685Y-71443904D01*
X135167161Y-71443904D01*
X135281447Y-71482000D01*
X135624304Y-72243904D02*
X135624304Y-71710571D01*
X135624304Y-71443904D02*
X135586209Y-71482000D01*
X135624304Y-71520095D01*
X135662400Y-71482000D01*
X135624304Y-71443904D01*
X135624304Y-71520095D01*
X136005257Y-72243904D02*
X136005257Y-71710571D01*
X136005257Y-71786761D02*
X136043352Y-71748666D01*
X136119542Y-71710571D01*
X136233828Y-71710571D01*
X136310019Y-71748666D01*
X136348114Y-71824857D01*
X136348114Y-72243904D01*
X136348114Y-71824857D02*
X136386209Y-71748666D01*
X136462400Y-71710571D01*
X136576685Y-71710571D01*
X136652876Y-71748666D01*
X136690971Y-71824857D01*
X136690971Y-72243904D01*
X137071923Y-71710571D02*
X137071923Y-72510571D01*
X137071923Y-71748666D02*
X137148114Y-71710571D01*
X137300495Y-71710571D01*
X137376685Y-71748666D01*
X137414780Y-71786761D01*
X137452876Y-71862952D01*
X137452876Y-72091523D01*
X137414780Y-72167714D01*
X137376685Y-72205809D01*
X137300495Y-72243904D01*
X137148114Y-72243904D01*
X137071923Y-72205809D01*
X137910019Y-72243904D02*
X137833828Y-72205809D01*
X137795733Y-72129619D01*
X137795733Y-71443904D01*
X138519542Y-72205809D02*
X138443352Y-72243904D01*
X138290971Y-72243904D01*
X138214780Y-72205809D01*
X138176685Y-72129619D01*
X138176685Y-71824857D01*
X138214780Y-71748666D01*
X138290971Y-71710571D01*
X138443352Y-71710571D01*
X138519542Y-71748666D01*
X138557638Y-71824857D01*
X138557638Y-71901047D01*
X138176685Y-71977238D01*
X139510019Y-72243904D02*
X139510019Y-71443904D01*
X139814780Y-71443904D01*
X139890971Y-71482000D01*
X139929066Y-71520095D01*
X139967161Y-71596285D01*
X139967161Y-71710571D01*
X139929066Y-71786761D01*
X139890971Y-71824857D01*
X139814780Y-71862952D01*
X139510019Y-71862952D01*
X140424304Y-72243904D02*
X140348114Y-72205809D01*
X140310019Y-72167714D01*
X140271923Y-72091523D01*
X140271923Y-71862952D01*
X140310019Y-71786761D01*
X140348114Y-71748666D01*
X140424304Y-71710571D01*
X140538590Y-71710571D01*
X140614780Y-71748666D01*
X140652876Y-71786761D01*
X140690971Y-71862952D01*
X140690971Y-72091523D01*
X140652876Y-72167714D01*
X140614780Y-72205809D01*
X140538590Y-72243904D01*
X140424304Y-72243904D01*
X140957638Y-71710571D02*
X141110019Y-72243904D01*
X141262400Y-71862952D01*
X141414780Y-72243904D01*
X141567161Y-71710571D01*
X142176685Y-72205809D02*
X142100495Y-72243904D01*
X141948114Y-72243904D01*
X141871923Y-72205809D01*
X141833828Y-72129619D01*
X141833828Y-71824857D01*
X141871923Y-71748666D01*
X141948114Y-71710571D01*
X142100495Y-71710571D01*
X142176685Y-71748666D01*
X142214780Y-71824857D01*
X142214780Y-71901047D01*
X141833828Y-71977238D01*
X142557638Y-72243904D02*
X142557638Y-71710571D01*
X142557638Y-71862952D02*
X142595733Y-71786761D01*
X142633828Y-71748666D01*
X142710019Y-71710571D01*
X142786209Y-71710571D01*
X143624304Y-72205809D02*
X143738590Y-72243904D01*
X143929066Y-72243904D01*
X144005257Y-72205809D01*
X144043352Y-72167714D01*
X144081447Y-72091523D01*
X144081447Y-72015333D01*
X144043352Y-71939142D01*
X144005257Y-71901047D01*
X143929066Y-71862952D01*
X143776685Y-71824857D01*
X143700495Y-71786761D01*
X143662400Y-71748666D01*
X143624304Y-71672476D01*
X143624304Y-71596285D01*
X143662400Y-71520095D01*
X143700495Y-71482000D01*
X143776685Y-71443904D01*
X143967161Y-71443904D01*
X144081447Y-71482000D01*
X144767161Y-71710571D02*
X144767161Y-72243904D01*
X144424304Y-71710571D02*
X144424304Y-72129619D01*
X144462400Y-72205809D01*
X144538590Y-72243904D01*
X144652876Y-72243904D01*
X144729066Y-72205809D01*
X144767161Y-72167714D01*
X145148114Y-71710571D02*
X145148114Y-72510571D01*
X145148114Y-71748666D02*
X145224304Y-71710571D01*
X145376685Y-71710571D01*
X145452876Y-71748666D01*
X145490971Y-71786761D01*
X145529066Y-71862952D01*
X145529066Y-72091523D01*
X145490971Y-72167714D01*
X145452876Y-72205809D01*
X145376685Y-72243904D01*
X145224304Y-72243904D01*
X145148114Y-72205809D01*
X145871923Y-71710571D02*
X145871923Y-72510571D01*
X145871923Y-71748666D02*
X145948114Y-71710571D01*
X146100495Y-71710571D01*
X146176685Y-71748666D01*
X146214780Y-71786761D01*
X146252876Y-71862952D01*
X146252876Y-72091523D01*
X146214780Y-72167714D01*
X146176685Y-72205809D01*
X146100495Y-72243904D01*
X145948114Y-72243904D01*
X145871923Y-72205809D01*
X146710019Y-72243904D02*
X146633828Y-72205809D01*
X146595733Y-72129619D01*
X146595733Y-71443904D01*
X146938590Y-71710571D02*
X147129066Y-72243904D01*
X147319542Y-71710571D02*
X147129066Y-72243904D01*
X147052876Y-72434380D01*
X147014780Y-72472476D01*
X146938590Y-72510571D01*
X148690971Y-72243904D02*
X148424304Y-71862952D01*
X148233828Y-72243904D02*
X148233828Y-71443904D01*
X148538590Y-71443904D01*
X148614780Y-71482000D01*
X148652876Y-71520095D01*
X148690971Y-71596285D01*
X148690971Y-71710571D01*
X148652876Y-71786761D01*
X148614780Y-71824857D01*
X148538590Y-71862952D01*
X148233828Y-71862952D01*
X149338590Y-72205809D02*
X149262400Y-72243904D01*
X149110019Y-72243904D01*
X149033828Y-72205809D01*
X148995733Y-72129619D01*
X148995733Y-71824857D01*
X149033828Y-71748666D01*
X149110019Y-71710571D01*
X149262400Y-71710571D01*
X149338590Y-71748666D01*
X149376685Y-71824857D01*
X149376685Y-71901047D01*
X148995733Y-71977238D01*
X149643352Y-71710571D02*
X149833828Y-72243904D01*
X150024304Y-71710571D01*
X151357638Y-72243904D02*
X150900495Y-72243904D01*
X151129066Y-72243904D02*
X151129066Y-71443904D01*
X151052876Y-71558190D01*
X150976685Y-71634380D01*
X150900495Y-71672476D01*
X151700495Y-72167714D02*
X151738590Y-72205809D01*
X151700495Y-72243904D01*
X151662400Y-72205809D01*
X151700495Y-72167714D01*
X151700495Y-72243904D01*
X152233828Y-71443904D02*
X152310019Y-71443904D01*
X152386209Y-71482000D01*
X152424304Y-71520095D01*
X152462400Y-71596285D01*
X152500495Y-71748666D01*
X152500495Y-71939142D01*
X152462400Y-72091523D01*
X152424304Y-72167714D01*
X152386209Y-72205809D01*
X152310019Y-72243904D01*
X152233828Y-72243904D01*
X152157638Y-72205809D01*
X152119542Y-72167714D01*
X152081447Y-72091523D01*
X152043352Y-71939142D01*
X152043352Y-71748666D01*
X152081447Y-71596285D01*
X152119542Y-71520095D01*
X152157638Y-71482000D01*
X152233828Y-71443904D01*
D12*
X133479333Y-63570133D02*
X133479333Y-63703466D01*
X133446000Y-63770133D01*
X133379333Y-63836800D01*
X133246000Y-63870133D01*
X133012666Y-63870133D01*
X132879333Y-63836800D01*
X132812666Y-63770133D01*
X132779333Y-63703466D01*
X132779333Y-63570133D01*
X132812666Y-63503466D01*
X132879333Y-63436800D01*
X133012666Y-63403466D01*
X133246000Y-63403466D01*
X133379333Y-63436800D01*
X133446000Y-63503466D01*
X133479333Y-63570133D01*
X132779333Y-64170133D02*
X133479333Y-64170133D01*
X132779333Y-64570133D01*
X133479333Y-64570133D01*
X132546000Y-65603466D02*
X133546000Y-65603466D01*
X133479333Y-66770133D02*
X133479333Y-66903466D01*
X133446000Y-66970133D01*
X133379333Y-67036800D01*
X133246000Y-67070133D01*
X133012666Y-67070133D01*
X132879333Y-67036800D01*
X132812666Y-66970133D01*
X132779333Y-66903466D01*
X132779333Y-66770133D01*
X132812666Y-66703466D01*
X132879333Y-66636800D01*
X133012666Y-66603466D01*
X133246000Y-66603466D01*
X133379333Y-66636800D01*
X133446000Y-66703466D01*
X133479333Y-66770133D01*
X133146000Y-67603466D02*
X133146000Y-67370133D01*
X132779333Y-67370133D02*
X133479333Y-67370133D01*
X133479333Y-67703466D01*
X133146000Y-68203466D02*
X133146000Y-67970133D01*
X132779333Y-67970133D02*
X133479333Y-67970133D01*
X133479333Y-68303466D01*
D11*
X147650247Y-69565828D02*
X148412152Y-69565828D01*
X148031200Y-69946780D02*
X148031200Y-69184876D01*
X140706457Y-81235161D02*
X140706457Y-81501828D01*
X141125504Y-81501828D02*
X140325504Y-81501828D01*
X140325504Y-81120876D01*
X141125504Y-80701828D02*
X141087409Y-80778019D01*
X141049314Y-80816114D01*
X140973123Y-80854209D01*
X140744552Y-80854209D01*
X140668361Y-80816114D01*
X140630266Y-80778019D01*
X140592171Y-80701828D01*
X140592171Y-80587542D01*
X140630266Y-80511352D01*
X140668361Y-80473257D01*
X140744552Y-80435161D01*
X140973123Y-80435161D01*
X141049314Y-80473257D01*
X141087409Y-80511352D01*
X141125504Y-80587542D01*
X141125504Y-80701828D01*
X141125504Y-80092304D02*
X140592171Y-80092304D01*
X140744552Y-80092304D02*
X140668361Y-80054209D01*
X140630266Y-80016114D01*
X140592171Y-79939923D01*
X140592171Y-79863733D01*
X141125504Y-78606590D02*
X141125504Y-78987542D01*
X140325504Y-78987542D01*
X141125504Y-78339923D02*
X140325504Y-78339923D01*
X140896933Y-78073257D01*
X140325504Y-77806590D01*
X141125504Y-77806590D01*
X140325504Y-77501828D02*
X140325504Y-76968495D01*
X141125504Y-77311352D01*
X140668361Y-76549447D02*
X140630266Y-76625638D01*
X140592171Y-76663733D01*
X140515980Y-76701828D01*
X140477885Y-76701828D01*
X140401695Y-76663733D01*
X140363600Y-76625638D01*
X140325504Y-76549447D01*
X140325504Y-76397066D01*
X140363600Y-76320876D01*
X140401695Y-76282780D01*
X140477885Y-76244685D01*
X140515980Y-76244685D01*
X140592171Y-76282780D01*
X140630266Y-76320876D01*
X140668361Y-76397066D01*
X140668361Y-76549447D01*
X140706457Y-76625638D01*
X140744552Y-76663733D01*
X140820742Y-76701828D01*
X140973123Y-76701828D01*
X141049314Y-76663733D01*
X141087409Y-76625638D01*
X141125504Y-76549447D01*
X141125504Y-76397066D01*
X141087409Y-76320876D01*
X141049314Y-76282780D01*
X140973123Y-76244685D01*
X140820742Y-76244685D01*
X140744552Y-76282780D01*
X140706457Y-76320876D01*
X140668361Y-76397066D01*
X140325504Y-75749447D02*
X140325504Y-75673257D01*
X140363600Y-75597066D01*
X140401695Y-75558971D01*
X140477885Y-75520876D01*
X140630266Y-75482780D01*
X140820742Y-75482780D01*
X140973123Y-75520876D01*
X141049314Y-75558971D01*
X141087409Y-75597066D01*
X141125504Y-75673257D01*
X141125504Y-75749447D01*
X141087409Y-75825638D01*
X141049314Y-75863733D01*
X140973123Y-75901828D01*
X140820742Y-75939923D01*
X140630266Y-75939923D01*
X140477885Y-75901828D01*
X140401695Y-75863733D01*
X140363600Y-75825638D01*
X140325504Y-75749447D01*
X140325504Y-74758971D02*
X140325504Y-75139923D01*
X140706457Y-75178019D01*
X140668361Y-75139923D01*
X140630266Y-75063733D01*
X140630266Y-74873257D01*
X140668361Y-74797066D01*
X140706457Y-74758971D01*
X140782647Y-74720876D01*
X140973123Y-74720876D01*
X141049314Y-74758971D01*
X141087409Y-74797066D01*
X141125504Y-74873257D01*
X141125504Y-75063733D01*
X141087409Y-75139923D01*
X141049314Y-75178019D01*
X142413504Y-82473257D02*
X141613504Y-82473257D01*
X141918266Y-82473257D02*
X141880171Y-82397066D01*
X141880171Y-82244685D01*
X141918266Y-82168495D01*
X141956361Y-82130400D01*
X142032552Y-82092304D01*
X142261123Y-82092304D01*
X142337314Y-82130400D01*
X142375409Y-82168495D01*
X142413504Y-82244685D01*
X142413504Y-82397066D01*
X142375409Y-82473257D01*
X142413504Y-81749447D02*
X141880171Y-81749447D01*
X142032552Y-81749447D02*
X141956361Y-81711352D01*
X141918266Y-81673257D01*
X141880171Y-81597066D01*
X141880171Y-81520876D01*
X142413504Y-81254209D02*
X141880171Y-81254209D01*
X141613504Y-81254209D02*
X141651600Y-81292304D01*
X141689695Y-81254209D01*
X141651600Y-81216114D01*
X141613504Y-81254209D01*
X141689695Y-81254209D01*
X142413504Y-80530400D02*
X141613504Y-80530400D01*
X142375409Y-80530400D02*
X142413504Y-80606590D01*
X142413504Y-80758971D01*
X142375409Y-80835161D01*
X142337314Y-80873257D01*
X142261123Y-80911352D01*
X142032552Y-80911352D01*
X141956361Y-80873257D01*
X141918266Y-80835161D01*
X141880171Y-80758971D01*
X141880171Y-80606590D01*
X141918266Y-80530400D01*
X141880171Y-79806590D02*
X142527790Y-79806590D01*
X142603980Y-79844685D01*
X142642076Y-79882780D01*
X142680171Y-79958971D01*
X142680171Y-80073257D01*
X142642076Y-80149447D01*
X142375409Y-79806590D02*
X142413504Y-79882780D01*
X142413504Y-80035161D01*
X142375409Y-80111352D01*
X142337314Y-80149447D01*
X142261123Y-80187542D01*
X142032552Y-80187542D01*
X141956361Y-80149447D01*
X141918266Y-80111352D01*
X141880171Y-80035161D01*
X141880171Y-79882780D01*
X141918266Y-79806590D01*
X142375409Y-79120876D02*
X142413504Y-79197066D01*
X142413504Y-79349447D01*
X142375409Y-79425638D01*
X142299219Y-79463733D01*
X141994457Y-79463733D01*
X141918266Y-79425638D01*
X141880171Y-79349447D01*
X141880171Y-79197066D01*
X141918266Y-79120876D01*
X141994457Y-79082780D01*
X142070647Y-79082780D01*
X142146838Y-79463733D01*
X141880171Y-78130400D02*
X142565885Y-78130400D01*
X142642076Y-78168495D01*
X142680171Y-78244685D01*
X142680171Y-78282780D01*
X141613504Y-78130400D02*
X141651600Y-78168495D01*
X141689695Y-78130400D01*
X141651600Y-78092304D01*
X141613504Y-78130400D01*
X141689695Y-78130400D01*
X141880171Y-77406590D02*
X142413504Y-77406590D01*
X141880171Y-77749447D02*
X142299219Y-77749447D01*
X142375409Y-77711352D01*
X142413504Y-77635161D01*
X142413504Y-77520876D01*
X142375409Y-77444685D01*
X142337314Y-77406590D01*
X142413504Y-77025638D02*
X141880171Y-77025638D01*
X141956361Y-77025638D02*
X141918266Y-76987542D01*
X141880171Y-76911352D01*
X141880171Y-76797066D01*
X141918266Y-76720876D01*
X141994457Y-76682780D01*
X142413504Y-76682780D01*
X141994457Y-76682780D02*
X141918266Y-76644685D01*
X141880171Y-76568495D01*
X141880171Y-76454209D01*
X141918266Y-76378019D01*
X141994457Y-76339923D01*
X142413504Y-76339923D01*
X141880171Y-75958971D02*
X142680171Y-75958971D01*
X141918266Y-75958971D02*
X141880171Y-75882780D01*
X141880171Y-75730400D01*
X141918266Y-75654209D01*
X141956361Y-75616114D01*
X142032552Y-75578019D01*
X142261123Y-75578019D01*
X142337314Y-75616114D01*
X142375409Y-75654209D01*
X142413504Y-75730400D01*
X142413504Y-75882780D01*
X142375409Y-75958971D01*
X142375409Y-74930400D02*
X142413504Y-75006590D01*
X142413504Y-75158971D01*
X142375409Y-75235161D01*
X142299219Y-75273257D01*
X141994457Y-75273257D01*
X141918266Y-75235161D01*
X141880171Y-75158971D01*
X141880171Y-75006590D01*
X141918266Y-74930400D01*
X141994457Y-74892304D01*
X142070647Y-74892304D01*
X142146838Y-75273257D01*
X142413504Y-74549447D02*
X141880171Y-74549447D01*
X142032552Y-74549447D02*
X141956361Y-74511352D01*
X141918266Y-74473257D01*
X141880171Y-74397066D01*
X141880171Y-74320876D01*
X142375409Y-74092304D02*
X142413504Y-74016114D01*
X142413504Y-73863733D01*
X142375409Y-73787542D01*
X142299219Y-73749447D01*
X142261123Y-73749447D01*
X142184933Y-73787542D01*
X142146838Y-73863733D01*
X142146838Y-73978019D01*
X142108742Y-74054209D01*
X142032552Y-74092304D01*
X141994457Y-74092304D01*
X141918266Y-74054209D01*
X141880171Y-73978019D01*
X141880171Y-73863733D01*
X141918266Y-73787542D01*
X143168171Y-80682780D02*
X143168171Y-80378019D01*
X142901504Y-80568495D02*
X143587219Y-80568495D01*
X143663409Y-80530400D01*
X143701504Y-80454209D01*
X143701504Y-80378019D01*
X143701504Y-80111352D02*
X142901504Y-80111352D01*
X143701504Y-79768495D02*
X143282457Y-79768495D01*
X143206266Y-79806590D01*
X143168171Y-79882780D01*
X143168171Y-79997066D01*
X143206266Y-80073257D01*
X143244361Y-80111352D01*
X143701504Y-79387542D02*
X143168171Y-79387542D01*
X142901504Y-79387542D02*
X142939600Y-79425638D01*
X142977695Y-79387542D01*
X142939600Y-79349447D01*
X142901504Y-79387542D01*
X142977695Y-79387542D01*
X143663409Y-79044685D02*
X143701504Y-78968495D01*
X143701504Y-78816114D01*
X143663409Y-78739923D01*
X143587219Y-78701828D01*
X143549123Y-78701828D01*
X143472933Y-78739923D01*
X143434838Y-78816114D01*
X143434838Y-78930400D01*
X143396742Y-79006590D01*
X143320552Y-79044685D01*
X143282457Y-79044685D01*
X143206266Y-79006590D01*
X143168171Y-78930400D01*
X143168171Y-78816114D01*
X143206266Y-78739923D01*
X143663409Y-77787542D02*
X143701504Y-77711352D01*
X143701504Y-77558971D01*
X143663409Y-77482780D01*
X143587219Y-77444685D01*
X143549123Y-77444685D01*
X143472933Y-77482780D01*
X143434838Y-77558971D01*
X143434838Y-77673257D01*
X143396742Y-77749447D01*
X143320552Y-77787542D01*
X143282457Y-77787542D01*
X143206266Y-77749447D01*
X143168171Y-77673257D01*
X143168171Y-77558971D01*
X143206266Y-77482780D01*
X143701504Y-77101828D02*
X143168171Y-77101828D01*
X142901504Y-77101828D02*
X142939600Y-77139923D01*
X142977695Y-77101828D01*
X142939600Y-77063733D01*
X142901504Y-77101828D01*
X142977695Y-77101828D01*
X143701504Y-76378019D02*
X142901504Y-76378019D01*
X143663409Y-76378019D02*
X143701504Y-76454209D01*
X143701504Y-76606590D01*
X143663409Y-76682780D01*
X143625314Y-76720876D01*
X143549123Y-76758971D01*
X143320552Y-76758971D01*
X143244361Y-76720876D01*
X143206266Y-76682780D01*
X143168171Y-76606590D01*
X143168171Y-76454209D01*
X143206266Y-76378019D01*
X143663409Y-75692304D02*
X143701504Y-75768495D01*
X143701504Y-75920876D01*
X143663409Y-75997066D01*
X143587219Y-76035161D01*
X143282457Y-76035161D01*
X143206266Y-75997066D01*
X143168171Y-75920876D01*
X143168171Y-75768495D01*
X143206266Y-75692304D01*
X143282457Y-75654209D01*
X143358647Y-75654209D01*
X143434838Y-76035161D01*
X145858457Y-82282780D02*
X145858457Y-82549447D01*
X146277504Y-82549447D02*
X145477504Y-82549447D01*
X145477504Y-82168495D01*
X146277504Y-81749447D02*
X146239409Y-81825638D01*
X146201314Y-81863733D01*
X146125123Y-81901828D01*
X145896552Y-81901828D01*
X145820361Y-81863733D01*
X145782266Y-81825638D01*
X145744171Y-81749447D01*
X145744171Y-81635161D01*
X145782266Y-81558971D01*
X145820361Y-81520876D01*
X145896552Y-81482780D01*
X146125123Y-81482780D01*
X146201314Y-81520876D01*
X146239409Y-81558971D01*
X146277504Y-81635161D01*
X146277504Y-81749447D01*
X146277504Y-81139923D02*
X145744171Y-81139923D01*
X145896552Y-81139923D02*
X145820361Y-81101828D01*
X145782266Y-81063733D01*
X145744171Y-80987542D01*
X145744171Y-80911352D01*
X146277504Y-79654209D02*
X146277504Y-80035161D01*
X145477504Y-80035161D01*
X146277504Y-79387542D02*
X145477504Y-79387542D01*
X145477504Y-79197066D01*
X145515600Y-79082780D01*
X145591790Y-79006590D01*
X145667980Y-78968495D01*
X145820361Y-78930400D01*
X145934647Y-78930400D01*
X146087028Y-78968495D01*
X146163219Y-79006590D01*
X146239409Y-79082780D01*
X146277504Y-79197066D01*
X146277504Y-79387542D01*
X146277504Y-78168495D02*
X146277504Y-78625638D01*
X146277504Y-78397066D02*
X145477504Y-78397066D01*
X145591790Y-78473257D01*
X145667980Y-78549447D01*
X145706076Y-78625638D01*
X146277504Y-77406590D02*
X146277504Y-77863733D01*
X146277504Y-77635161D02*
X145477504Y-77635161D01*
X145591790Y-77711352D01*
X145667980Y-77787542D01*
X145706076Y-77863733D01*
X146277504Y-76644685D02*
X146277504Y-77101828D01*
X146277504Y-76873257D02*
X145477504Y-76873257D01*
X145591790Y-76949447D01*
X145667980Y-77025638D01*
X145706076Y-77101828D01*
X145477504Y-76378019D02*
X145477504Y-75844685D01*
X146277504Y-76187542D01*
X145477504Y-75654209D02*
X146277504Y-75387542D01*
X145477504Y-75120876D01*
X145477504Y-74930400D02*
X145477504Y-74435161D01*
X145782266Y-74701828D01*
X145782266Y-74587542D01*
X145820361Y-74511352D01*
X145858457Y-74473257D01*
X145934647Y-74435161D01*
X146125123Y-74435161D01*
X146201314Y-74473257D01*
X146239409Y-74511352D01*
X146277504Y-74587542D01*
X146277504Y-74816114D01*
X146239409Y-74892304D01*
X146201314Y-74930400D01*
X145477504Y-74168495D02*
X145477504Y-73673257D01*
X145782266Y-73939923D01*
X145782266Y-73825638D01*
X145820361Y-73749447D01*
X145858457Y-73711352D01*
X145934647Y-73673257D01*
X146125123Y-73673257D01*
X146201314Y-73711352D01*
X146239409Y-73749447D01*
X146277504Y-73825638D01*
X146277504Y-74054209D01*
X146239409Y-74130400D01*
X146201314Y-74168495D01*
X147565504Y-82473257D02*
X146765504Y-82473257D01*
X147070266Y-82473257D02*
X147032171Y-82397066D01*
X147032171Y-82244685D01*
X147070266Y-82168495D01*
X147108361Y-82130400D01*
X147184552Y-82092304D01*
X147413123Y-82092304D01*
X147489314Y-82130400D01*
X147527409Y-82168495D01*
X147565504Y-82244685D01*
X147565504Y-82397066D01*
X147527409Y-82473257D01*
X147565504Y-81749447D02*
X147032171Y-81749447D01*
X147184552Y-81749447D02*
X147108361Y-81711352D01*
X147070266Y-81673257D01*
X147032171Y-81597066D01*
X147032171Y-81520876D01*
X147565504Y-81254209D02*
X147032171Y-81254209D01*
X146765504Y-81254209D02*
X146803600Y-81292304D01*
X146841695Y-81254209D01*
X146803600Y-81216114D01*
X146765504Y-81254209D01*
X146841695Y-81254209D01*
X147565504Y-80530400D02*
X146765504Y-80530400D01*
X147527409Y-80530400D02*
X147565504Y-80606590D01*
X147565504Y-80758971D01*
X147527409Y-80835161D01*
X147489314Y-80873257D01*
X147413123Y-80911352D01*
X147184552Y-80911352D01*
X147108361Y-80873257D01*
X147070266Y-80835161D01*
X147032171Y-80758971D01*
X147032171Y-80606590D01*
X147070266Y-80530400D01*
X147032171Y-79806590D02*
X147679790Y-79806590D01*
X147755980Y-79844685D01*
X147794076Y-79882780D01*
X147832171Y-79958971D01*
X147832171Y-80073257D01*
X147794076Y-80149447D01*
X147527409Y-79806590D02*
X147565504Y-79882780D01*
X147565504Y-80035161D01*
X147527409Y-80111352D01*
X147489314Y-80149447D01*
X147413123Y-80187542D01*
X147184552Y-80187542D01*
X147108361Y-80149447D01*
X147070266Y-80111352D01*
X147032171Y-80035161D01*
X147032171Y-79882780D01*
X147070266Y-79806590D01*
X147527409Y-79120876D02*
X147565504Y-79197066D01*
X147565504Y-79349447D01*
X147527409Y-79425638D01*
X147451219Y-79463733D01*
X147146457Y-79463733D01*
X147070266Y-79425638D01*
X147032171Y-79349447D01*
X147032171Y-79197066D01*
X147070266Y-79120876D01*
X147146457Y-79082780D01*
X147222647Y-79082780D01*
X147298838Y-79463733D01*
X147032171Y-78130400D02*
X147717885Y-78130400D01*
X147794076Y-78168495D01*
X147832171Y-78244685D01*
X147832171Y-78282780D01*
X146765504Y-78130400D02*
X146803600Y-78168495D01*
X146841695Y-78130400D01*
X146803600Y-78092304D01*
X146765504Y-78130400D01*
X146841695Y-78130400D01*
X147032171Y-77406590D02*
X147565504Y-77406590D01*
X147032171Y-77749447D02*
X147451219Y-77749447D01*
X147527409Y-77711352D01*
X147565504Y-77635161D01*
X147565504Y-77520876D01*
X147527409Y-77444685D01*
X147489314Y-77406590D01*
X147565504Y-77025638D02*
X147032171Y-77025638D01*
X147108361Y-77025638D02*
X147070266Y-76987542D01*
X147032171Y-76911352D01*
X147032171Y-76797066D01*
X147070266Y-76720876D01*
X147146457Y-76682780D01*
X147565504Y-76682780D01*
X147146457Y-76682780D02*
X147070266Y-76644685D01*
X147032171Y-76568495D01*
X147032171Y-76454209D01*
X147070266Y-76378019D01*
X147146457Y-76339923D01*
X147565504Y-76339923D01*
X147032171Y-75958971D02*
X147832171Y-75958971D01*
X147070266Y-75958971D02*
X147032171Y-75882780D01*
X147032171Y-75730400D01*
X147070266Y-75654209D01*
X147108361Y-75616114D01*
X147184552Y-75578019D01*
X147413123Y-75578019D01*
X147489314Y-75616114D01*
X147527409Y-75654209D01*
X147565504Y-75730400D01*
X147565504Y-75882780D01*
X147527409Y-75958971D01*
X147527409Y-74930400D02*
X147565504Y-75006590D01*
X147565504Y-75158971D01*
X147527409Y-75235161D01*
X147451219Y-75273257D01*
X147146457Y-75273257D01*
X147070266Y-75235161D01*
X147032171Y-75158971D01*
X147032171Y-75006590D01*
X147070266Y-74930400D01*
X147146457Y-74892304D01*
X147222647Y-74892304D01*
X147298838Y-75273257D01*
X147565504Y-74549447D02*
X147032171Y-74549447D01*
X147184552Y-74549447D02*
X147108361Y-74511352D01*
X147070266Y-74473257D01*
X147032171Y-74397066D01*
X147032171Y-74320876D01*
X147527409Y-74092304D02*
X147565504Y-74016114D01*
X147565504Y-73863733D01*
X147527409Y-73787542D01*
X147451219Y-73749447D01*
X147413123Y-73749447D01*
X147336933Y-73787542D01*
X147298838Y-73863733D01*
X147298838Y-73978019D01*
X147260742Y-74054209D01*
X147184552Y-74092304D01*
X147146457Y-74092304D01*
X147070266Y-74054209D01*
X147032171Y-73978019D01*
X147032171Y-73863733D01*
X147070266Y-73787542D01*
X148853504Y-80892304D02*
X148815409Y-80968495D01*
X148777314Y-81006590D01*
X148701123Y-81044685D01*
X148472552Y-81044685D01*
X148396361Y-81006590D01*
X148358266Y-80968495D01*
X148320171Y-80892304D01*
X148320171Y-80778019D01*
X148358266Y-80701828D01*
X148396361Y-80663733D01*
X148472552Y-80625638D01*
X148701123Y-80625638D01*
X148777314Y-80663733D01*
X148815409Y-80701828D01*
X148853504Y-80778019D01*
X148853504Y-80892304D01*
X148320171Y-80397066D02*
X148320171Y-80092304D01*
X148053504Y-80282780D02*
X148739219Y-80282780D01*
X148815409Y-80244685D01*
X148853504Y-80168495D01*
X148853504Y-80092304D01*
X148853504Y-79825638D02*
X148053504Y-79825638D01*
X148853504Y-79482780D02*
X148434457Y-79482780D01*
X148358266Y-79520876D01*
X148320171Y-79597066D01*
X148320171Y-79711352D01*
X148358266Y-79787542D01*
X148396361Y-79825638D01*
X148815409Y-78797066D02*
X148853504Y-78873257D01*
X148853504Y-79025638D01*
X148815409Y-79101828D01*
X148739219Y-79139923D01*
X148434457Y-79139923D01*
X148358266Y-79101828D01*
X148320171Y-79025638D01*
X148320171Y-78873257D01*
X148358266Y-78797066D01*
X148434457Y-78758971D01*
X148510647Y-78758971D01*
X148586838Y-79139923D01*
X148853504Y-78416114D02*
X148320171Y-78416114D01*
X148472552Y-78416114D02*
X148396361Y-78378019D01*
X148358266Y-78339923D01*
X148320171Y-78263733D01*
X148320171Y-78187542D01*
X148815409Y-77349447D02*
X148853504Y-77273257D01*
X148853504Y-77120876D01*
X148815409Y-77044685D01*
X148739219Y-77006590D01*
X148701123Y-77006590D01*
X148624933Y-77044685D01*
X148586838Y-77120876D01*
X148586838Y-77235161D01*
X148548742Y-77311352D01*
X148472552Y-77349447D01*
X148434457Y-77349447D01*
X148358266Y-77311352D01*
X148320171Y-77235161D01*
X148320171Y-77120876D01*
X148358266Y-77044685D01*
X148853504Y-76663733D02*
X148320171Y-76663733D01*
X148053504Y-76663733D02*
X148091600Y-76701828D01*
X148129695Y-76663733D01*
X148091600Y-76625638D01*
X148053504Y-76663733D01*
X148129695Y-76663733D01*
X148853504Y-75939923D02*
X148053504Y-75939923D01*
X148815409Y-75939923D02*
X148853504Y-76016114D01*
X148853504Y-76168495D01*
X148815409Y-76244685D01*
X148777314Y-76282780D01*
X148701123Y-76320876D01*
X148472552Y-76320876D01*
X148396361Y-76282780D01*
X148358266Y-76244685D01*
X148320171Y-76168495D01*
X148320171Y-76016114D01*
X148358266Y-75939923D01*
X148815409Y-75254209D02*
X148853504Y-75330400D01*
X148853504Y-75482780D01*
X148815409Y-75558971D01*
X148739219Y-75597066D01*
X148434457Y-75597066D01*
X148358266Y-75558971D01*
X148320171Y-75482780D01*
X148320171Y-75330400D01*
X148358266Y-75254209D01*
X148434457Y-75216114D01*
X148510647Y-75216114D01*
X148586838Y-75597066D01*
D10*
%TO.C,C1*%
X160310533Y-73966342D02*
X160262914Y-74013961D01*
X160120057Y-74061580D01*
X160024819Y-74061580D01*
X159881961Y-74013961D01*
X159786723Y-73918723D01*
X159739104Y-73823485D01*
X159691485Y-73633009D01*
X159691485Y-73490152D01*
X159739104Y-73299676D01*
X159786723Y-73204438D01*
X159881961Y-73109200D01*
X160024819Y-73061580D01*
X160120057Y-73061580D01*
X160262914Y-73109200D01*
X160310533Y-73156819D01*
X161262914Y-74061580D02*
X160691485Y-74061580D01*
X160977200Y-74061580D02*
X160977200Y-73061580D01*
X160881961Y-73204438D01*
X160786723Y-73299676D01*
X160691485Y-73347295D01*
%TO.C,D2*%
X159535904Y-67457580D02*
X159535904Y-66457580D01*
X159774000Y-66457580D01*
X159916857Y-66505200D01*
X160012095Y-66600438D01*
X160059714Y-66695676D01*
X160107333Y-66886152D01*
X160107333Y-67029009D01*
X160059714Y-67219485D01*
X160012095Y-67314723D01*
X159916857Y-67409961D01*
X159774000Y-67457580D01*
X159535904Y-67457580D01*
X160488285Y-66552819D02*
X160535904Y-66505200D01*
X160631142Y-66457580D01*
X160869238Y-66457580D01*
X160964476Y-66505200D01*
X161012095Y-66552819D01*
X161059714Y-66648057D01*
X161059714Y-66743295D01*
X161012095Y-66886152D01*
X160440666Y-67457580D01*
X161059714Y-67457580D01*
%TO.C,D1*%
X152090380Y-60174095D02*
X151090380Y-60174095D01*
X151090380Y-59936000D01*
X151138000Y-59793142D01*
X151233238Y-59697904D01*
X151328476Y-59650285D01*
X151518952Y-59602666D01*
X151661809Y-59602666D01*
X151852285Y-59650285D01*
X151947523Y-59697904D01*
X152042761Y-59793142D01*
X152090380Y-59936000D01*
X152090380Y-60174095D01*
X152090380Y-58650285D02*
X152090380Y-59221714D01*
X152090380Y-58936000D02*
X151090380Y-58936000D01*
X151233238Y-59031238D01*
X151328476Y-59126476D01*
X151376095Y-59221714D01*
%TO.C,R1*%
X155900380Y-59602666D02*
X155424190Y-59936000D01*
X155900380Y-60174095D02*
X154900380Y-60174095D01*
X154900380Y-59793142D01*
X154948000Y-59697904D01*
X154995619Y-59650285D01*
X155090857Y-59602666D01*
X155233714Y-59602666D01*
X155328952Y-59650285D01*
X155376571Y-59697904D01*
X155424190Y-59793142D01*
X155424190Y-60174095D01*
X155900380Y-58650285D02*
X155900380Y-59221714D01*
X155900380Y-58936000D02*
X154900380Y-58936000D01*
X155043238Y-59031238D01*
X155138476Y-59126476D01*
X155186095Y-59221714D01*
%TO.C,C2*%
X156770342Y-68035466D02*
X156817961Y-68083085D01*
X156865580Y-68225942D01*
X156865580Y-68321180D01*
X156817961Y-68464038D01*
X156722723Y-68559276D01*
X156627485Y-68606895D01*
X156437009Y-68654514D01*
X156294152Y-68654514D01*
X156103676Y-68606895D01*
X156008438Y-68559276D01*
X155913200Y-68464038D01*
X155865580Y-68321180D01*
X155865580Y-68225942D01*
X155913200Y-68083085D01*
X155960819Y-68035466D01*
X155960819Y-67654514D02*
X155913200Y-67606895D01*
X155865580Y-67511657D01*
X155865580Y-67273561D01*
X155913200Y-67178323D01*
X155960819Y-67130704D01*
X156056057Y-67083085D01*
X156151295Y-67083085D01*
X156294152Y-67130704D01*
X156865580Y-67702133D01*
X156865580Y-67083085D01*
%TO.C,SW1*%
X138834761Y-69303733D02*
X138882380Y-69160876D01*
X138882380Y-68922780D01*
X138834761Y-68827542D01*
X138787142Y-68779923D01*
X138691904Y-68732304D01*
X138596666Y-68732304D01*
X138501428Y-68779923D01*
X138453809Y-68827542D01*
X138406190Y-68922780D01*
X138358571Y-69113257D01*
X138310952Y-69208495D01*
X138263333Y-69256114D01*
X138168095Y-69303733D01*
X138072857Y-69303733D01*
X137977619Y-69256114D01*
X137930000Y-69208495D01*
X137882380Y-69113257D01*
X137882380Y-68875161D01*
X137930000Y-68732304D01*
X137882380Y-68398971D02*
X138882380Y-68160876D01*
X138168095Y-67970400D01*
X138882380Y-67779923D01*
X137882380Y-67541828D01*
X138882380Y-66637066D02*
X138882380Y-67208495D01*
X138882380Y-66922780D02*
X137882380Y-66922780D01*
X138025238Y-67018019D01*
X138120476Y-67113257D01*
X138168095Y-67208495D01*
%TO.C,J1*%
X138710980Y-60005933D02*
X139425266Y-60005933D01*
X139568123Y-60053552D01*
X139663361Y-60148790D01*
X139710980Y-60291647D01*
X139710980Y-60386885D01*
X139710980Y-59005933D02*
X139710980Y-59577361D01*
X139710980Y-59291647D02*
X138710980Y-59291647D01*
X138853838Y-59386885D01*
X138949076Y-59482123D01*
X138996695Y-59577361D01*
%TO.C,J4*%
X151711066Y-86167980D02*
X151711066Y-86882266D01*
X151663447Y-87025123D01*
X151568209Y-87120361D01*
X151425352Y-87167980D01*
X151330114Y-87167980D01*
X152615828Y-86501314D02*
X152615828Y-87167980D01*
X152377733Y-86120361D02*
X152139638Y-86834647D01*
X152758685Y-86834647D01*
%TO.C,J3*%
X146911066Y-86117180D02*
X146911066Y-86831466D01*
X146863447Y-86974323D01*
X146768209Y-87069561D01*
X146625352Y-87117180D01*
X146530114Y-87117180D01*
X147292019Y-86117180D02*
X147911066Y-86117180D01*
X147577733Y-86498133D01*
X147720590Y-86498133D01*
X147815828Y-86545752D01*
X147863447Y-86593371D01*
X147911066Y-86688609D01*
X147911066Y-86926704D01*
X147863447Y-87021942D01*
X147815828Y-87069561D01*
X147720590Y-87117180D01*
X147434876Y-87117180D01*
X147339638Y-87069561D01*
X147292019Y-87021942D01*
%TO.C,U1*%
X149820380Y-74523504D02*
X150629904Y-74523504D01*
X150725142Y-74475885D01*
X150772761Y-74428266D01*
X150820380Y-74333028D01*
X150820380Y-74142552D01*
X150772761Y-74047314D01*
X150725142Y-73999695D01*
X150629904Y-73952076D01*
X149820380Y-73952076D01*
X150820380Y-72952076D02*
X150820380Y-73523504D01*
X150820380Y-73237790D02*
X149820380Y-73237790D01*
X149963238Y-73333028D01*
X150058476Y-73428266D01*
X150106095Y-73523504D01*
%TO.C,J2*%
X141911066Y-86117180D02*
X141911066Y-86831466D01*
X141863447Y-86974323D01*
X141768209Y-87069561D01*
X141625352Y-87117180D01*
X141530114Y-87117180D01*
X142339638Y-86212419D02*
X142387257Y-86164800D01*
X142482495Y-86117180D01*
X142720590Y-86117180D01*
X142815828Y-86164800D01*
X142863447Y-86212419D01*
X142911066Y-86307657D01*
X142911066Y-86402895D01*
X142863447Y-86545752D01*
X142292019Y-87117180D01*
X142911066Y-87117180D01*
D13*
%TO.C,C1*%
X160555401Y-68532000D02*
X160555401Y-69772000D01*
X160755401Y-68541000D02*
X160755401Y-69772000D01*
X162316401Y-69470000D02*
X162316401Y-71754000D01*
X160995401Y-71452000D02*
X160995401Y-72646000D01*
X162236401Y-69358000D02*
X162236401Y-71866000D01*
X162636401Y-70242000D02*
X162636401Y-70982000D01*
X161516401Y-68761000D02*
X161516401Y-69772000D01*
X161876401Y-68993000D02*
X161876401Y-69772000D01*
X162436401Y-69672000D02*
X162436401Y-71552000D01*
X161636401Y-68827000D02*
X161636401Y-69772000D01*
X160675401Y-71452000D02*
X160675401Y-72689000D01*
X162116401Y-71452000D02*
X162116401Y-72008000D01*
X161836401Y-68962000D02*
X161836401Y-69772000D01*
X162396401Y-69599000D02*
X162396401Y-71625000D01*
X160875401Y-68556000D02*
X160875401Y-69772000D01*
X162036401Y-69134000D02*
X162036401Y-69772000D01*
X161316401Y-68672000D02*
X161316401Y-69772000D01*
X162356401Y-69532000D02*
X162356401Y-71692000D01*
X162196401Y-69308000D02*
X162196401Y-71916000D01*
X161676401Y-71452000D02*
X161676401Y-72372000D01*
X160955401Y-71452000D02*
X160955401Y-72654000D01*
X161436401Y-68723000D02*
X161436401Y-69772000D01*
X160795401Y-68545000D02*
X160795401Y-69772000D01*
X160955401Y-68570000D02*
X160955401Y-69772000D01*
X161476401Y-71452000D02*
X161476401Y-72482000D01*
X161035401Y-68587000D02*
X161035401Y-69772000D01*
X161796401Y-68932000D02*
X161796401Y-69772000D01*
X161596401Y-71452000D02*
X161596401Y-72420000D01*
X160995401Y-68578000D02*
X160995401Y-69772000D01*
X160835401Y-68550000D02*
X160835401Y-69772000D01*
X161716401Y-71452000D02*
X161716401Y-72347000D01*
X161996401Y-71452000D02*
X161996401Y-72128000D01*
X161276401Y-68658000D02*
X161276401Y-69772000D01*
X160555401Y-71452000D02*
X160555401Y-72692000D01*
X160915401Y-68562000D02*
X160915401Y-69772000D01*
X162076401Y-69174000D02*
X162076401Y-69772000D01*
X160915401Y-71452000D02*
X160915401Y-72662000D01*
X161836401Y-71452000D02*
X161836401Y-72262000D01*
X161476401Y-68742000D02*
X161476401Y-69772000D01*
X162596401Y-70075000D02*
X162596401Y-71149000D01*
X161716401Y-68877000D02*
X161716401Y-69772000D01*
X161356401Y-71452000D02*
X161356401Y-72536000D01*
X162156401Y-69261000D02*
X162156401Y-71963000D01*
X161436401Y-71452000D02*
X161436401Y-72501000D01*
X161235401Y-68644000D02*
X161235401Y-69772000D01*
X162036401Y-71452000D02*
X162036401Y-72090000D01*
X161155401Y-71452000D02*
X161155401Y-72606000D01*
X161996401Y-69096000D02*
X161996401Y-69772000D01*
X160675401Y-68535000D02*
X160675401Y-69772000D01*
X161676401Y-68852000D02*
X161676401Y-69772000D01*
X158485600Y-69217000D02*
X158485600Y-69617000D01*
X161516401Y-71452000D02*
X161516401Y-72463000D01*
X160835401Y-71452000D02*
X160835401Y-72674000D01*
X161636401Y-71452000D02*
X161636401Y-72397000D01*
X161276401Y-71452000D02*
X161276401Y-72566000D01*
X162476401Y-69753000D02*
X162476401Y-71471000D01*
X161235401Y-71452000D02*
X161235401Y-72580000D01*
X162116401Y-69216000D02*
X162116401Y-69772000D01*
X162516401Y-69844000D02*
X162516401Y-71380000D01*
X160715401Y-68538000D02*
X160715401Y-69772000D01*
X161556401Y-71452000D02*
X161556401Y-72442000D01*
X160595401Y-68532000D02*
X160595401Y-69772000D01*
X161596401Y-68804000D02*
X161596401Y-69772000D01*
X161756401Y-71452000D02*
X161756401Y-72320000D01*
X161075401Y-71452000D02*
X161075401Y-72628000D01*
X160795401Y-71452000D02*
X160795401Y-72679000D01*
X160635401Y-71452000D02*
X160635401Y-72691000D01*
X161316401Y-71452000D02*
X161316401Y-72552000D01*
X161075401Y-68596000D02*
X161075401Y-69772000D01*
X160875401Y-71452000D02*
X160875401Y-72668000D01*
X161396401Y-71452000D02*
X161396401Y-72519000D01*
X160595401Y-71452000D02*
X160595401Y-72692000D01*
X161796401Y-71452000D02*
X161796401Y-72292000D01*
X161195401Y-68630000D02*
X161195401Y-69772000D01*
X161115401Y-71452000D02*
X161115401Y-72617000D01*
X161356401Y-68688000D02*
X161356401Y-69772000D01*
X161956401Y-71452000D02*
X161956401Y-72164000D01*
X161556401Y-68782000D02*
X161556401Y-69772000D01*
X162076401Y-71452000D02*
X162076401Y-72050000D01*
X161195401Y-71452000D02*
X161195401Y-72594000D01*
X162556401Y-69948000D02*
X162556401Y-71276000D01*
X161916401Y-71452000D02*
X161916401Y-72199000D01*
X158285600Y-69417000D02*
X158685600Y-69417000D01*
X160755401Y-71452000D02*
X160755401Y-72683000D01*
X161916401Y-69025000D02*
X161916401Y-69772000D01*
X162276401Y-69412000D02*
X162276401Y-71812000D01*
X161155401Y-68618000D02*
X161155401Y-69772000D01*
X161956401Y-69060000D02*
X161956401Y-69772000D01*
X161115401Y-68607000D02*
X161115401Y-69772000D01*
X161756401Y-68904000D02*
X161756401Y-69772000D01*
X161876401Y-71452000D02*
X161876401Y-72231000D01*
X161035401Y-71452000D02*
X161035401Y-72637000D01*
X161396401Y-68705000D02*
X161396401Y-69772000D01*
X160715401Y-71452000D02*
X160715401Y-72686000D01*
X160635401Y-68533000D02*
X160635401Y-69772000D01*
X162675401Y-70612000D02*
G75*
G03*
X162675401Y-70612000I-2120000J0D01*
G01*
%TO.C,D2*%
X161819000Y-60584400D02*
X158729000Y-60584400D01*
X158729170Y-60584400D02*
G75*
G03*
X160274462Y-66134400I1544830J-2560000D01*
G01*
X160273538Y-66134400D02*
G75*
G03*
X161818830Y-60584400I462J2990000D01*
G01*
X162774000Y-63144400D02*
G75*
G03*
X162774000Y-63144400I-2500000J0D01*
G01*
%TO.C,D1*%
X150269600Y-61687800D02*
X153209600Y-61687800D01*
X151739600Y-63607800D02*
X151739600Y-62587800D01*
X150269600Y-57147800D02*
X150269600Y-62587800D01*
X153209600Y-62587800D02*
X153209600Y-57147800D01*
X153209600Y-57147800D02*
X150269600Y-57147800D01*
X150269600Y-61567800D02*
X153209600Y-61567800D01*
X150269600Y-61807800D02*
X153209600Y-61807800D01*
X151739600Y-56127800D02*
X151739600Y-57147800D01*
X150269600Y-62587800D02*
X153209600Y-62587800D01*
%TO.C,R1*%
X155346400Y-55421400D02*
X155346400Y-56191400D01*
X156716400Y-56191400D02*
X153976400Y-56191400D01*
X153976400Y-62731400D02*
X156716400Y-62731400D01*
X156716400Y-62731400D02*
X156716400Y-56191400D01*
X153976400Y-56191400D02*
X153976400Y-62731400D01*
X155346400Y-63501400D02*
X155346400Y-62731400D01*
%TO.C,C2*%
X150237200Y-66498800D02*
X155477200Y-66498800D01*
X150237200Y-66498800D02*
X150237200Y-69238800D01*
X155477200Y-66498800D02*
X155477200Y-69238800D01*
X150237200Y-69238800D02*
X155477200Y-69238800D01*
%TO.C,SW1*%
X134179000Y-64160400D02*
X136839000Y-64160400D01*
X134179000Y-64160400D02*
X134179000Y-69300400D01*
X134179000Y-61560400D02*
X135509000Y-61560400D01*
X134179000Y-69300400D02*
X136839000Y-69300400D01*
X136839000Y-64160400D02*
X136839000Y-69300400D01*
X134179000Y-62890400D02*
X134179000Y-61560400D01*
D10*
%TO.C,H5*%
X142983200Y-69569400D02*
X143883200Y-69569400D01*
X144983200Y-69569400D02*
X146983200Y-69569400D01*
X145658200Y-68819400D02*
G75*
G03*
X145733200Y-70244400I-675000J-750000D01*
G01*
X142908200Y-69569400D02*
G75*
G03*
X142908200Y-69569400I-925000J0D01*
G01*
X148908200Y-69569400D02*
G75*
G03*
X148908200Y-69569400I-925000J0D01*
G01*
D14*
X145158200Y-69569400D02*
G75*
G03*
X145158200Y-69569400I-175000J0D01*
G01*
D13*
%TO.C,J1*%
X148758600Y-67701600D02*
X149808600Y-67701600D01*
X149808600Y-66651600D02*
X149808600Y-67701600D01*
X149608600Y-52801600D02*
X149608600Y-67501600D01*
X140408600Y-61601600D02*
X140408600Y-52801600D01*
X143108600Y-67501600D02*
X140408600Y-67501600D01*
X140408600Y-67501600D02*
X140408600Y-65601600D01*
X140408600Y-52801600D02*
X149608600Y-52801600D01*
X149608600Y-67501600D02*
X147008600Y-67501600D01*
%TO.C,J4*%
X153374400Y-87473400D02*
X150714400Y-87473400D01*
X150714400Y-90073400D02*
X150714400Y-87473400D01*
X153374400Y-90073400D02*
X150714400Y-90073400D01*
X153374400Y-92673400D02*
X152044400Y-92673400D01*
X153374400Y-90073400D02*
X153374400Y-87473400D01*
X153374400Y-91343400D02*
X153374400Y-92673400D01*
%TO.C,J3*%
X145914400Y-90073400D02*
X145914400Y-87473400D01*
X148574400Y-87473400D02*
X145914400Y-87473400D01*
X148574400Y-91343400D02*
X148574400Y-92673400D01*
X148574400Y-90073400D02*
X148574400Y-87473400D01*
X148574400Y-92673400D02*
X147244400Y-92673400D01*
X148574400Y-90073400D02*
X145914400Y-90073400D01*
%TO.C,U1*%
X137140000Y-72880000D02*
X135940000Y-72880000D01*
X139540000Y-72880000D02*
X138340000Y-72880000D01*
X149270000Y-83120000D02*
X139780000Y-83120000D01*
X139540000Y-83120000D02*
X138340000Y-83120000D01*
X137140000Y-83120000D02*
X135940000Y-83120000D01*
X149270000Y-72880000D02*
X139780000Y-72880000D01*
X151810000Y-80540000D02*
X149270000Y-80540000D01*
X139780000Y-72880000D02*
X139780000Y-83120000D01*
X134740000Y-83120000D02*
X133540000Y-83120000D01*
X133380000Y-80080000D02*
X133380000Y-81280000D01*
X133380000Y-77680000D02*
X133380000Y-78880000D01*
X151810000Y-78000000D02*
X149270000Y-78000000D01*
X133380000Y-75279000D02*
X133380000Y-76480000D01*
X151810000Y-75460000D02*
X149270000Y-75460000D01*
X149270000Y-72880000D02*
X149270000Y-83120000D01*
X133380000Y-72880000D02*
X133380000Y-74080000D01*
X133380000Y-82480000D02*
X133380000Y-83120000D01*
X134740000Y-72880000D02*
X133540000Y-72880000D01*
%TO.C,J2*%
X140914400Y-90098400D02*
X140914400Y-87498400D01*
X143574400Y-90098400D02*
X140914400Y-90098400D01*
X143574400Y-87498400D02*
X140914400Y-87498400D01*
X143574400Y-90098400D02*
X143574400Y-87498400D01*
X143574400Y-91368400D02*
X143574400Y-92698400D01*
X143574400Y-92698400D02*
X142244400Y-92698400D01*
%TD*%
%LPC*%
D15*
%TO.C,H2*%
X160600000Y-56300000D03*
%TD*%
%TO.C,H4*%
X160600000Y-90100000D03*
%TD*%
D16*
%TO.C,C1*%
X159805401Y-70612000D03*
D17*
X161305401Y-70612000D03*
%TD*%
D18*
%TO.C,JP2*%
X156362400Y-77978000D03*
D19*
X154912400Y-77978000D03*
%TD*%
D18*
%TO.C,JP1*%
X156362400Y-75488800D03*
D19*
X154912400Y-75488800D03*
%TD*%
D20*
%TO.C,D2*%
X160274000Y-61874400D03*
D21*
X160274000Y-64414400D03*
%TD*%
D15*
%TO.C,H3*%
X135915400Y-90170000D03*
%TD*%
D22*
%TO.C,D1*%
X151739600Y-64947800D03*
D23*
X151739600Y-54787800D03*
%TD*%
D18*
%TO.C,JP3*%
X156362400Y-80518000D03*
D19*
X154912400Y-80518000D03*
%TD*%
D24*
%TO.C,R1*%
X155346400Y-64541400D03*
D25*
X155346400Y-54381400D03*
%TD*%
D24*
%TO.C,C2*%
X151607200Y-67868800D03*
X154107200Y-67868800D03*
%TD*%
D26*
%TO.C,SW1*%
X135509000Y-62890400D03*
D27*
X135509000Y-65430400D03*
X135509000Y-67970400D03*
%TD*%
D28*
%TO.C,J1*%
X145008600Y-66601600D03*
D29*
X145008600Y-60601600D03*
D30*
X140308600Y-63601600D03*
%TD*%
D26*
%TO.C,J4*%
X152044400Y-91343400D03*
D27*
X152044400Y-88803400D03*
%TD*%
D15*
%TO.C,H1*%
X136000000Y-56300000D03*
%TD*%
D26*
%TO.C,J3*%
X147244400Y-91343400D03*
D27*
X147244400Y-88803400D03*
%TD*%
D31*
%TO.C,U1*%
X136300000Y-78000000D03*
D32*
X152960000Y-75460000D03*
D33*
X152960000Y-78000000D03*
X152960000Y-80540000D03*
%TD*%
D26*
%TO.C,J2*%
X142244400Y-91368400D03*
D27*
X142244400Y-88828400D03*
%TD*%
M02*
